<?xml version="1.0" encoding="utf-8" standalone="no"?>
<!DOCTYPE svg PUBLIC "-//W3C//DTD SVG 1.1//EN" "http://www.w3.org/Graphics/SVG/1.1/DTD/svg11.dtd">
<svg width="1280" height="720" version="1.1" xmlns:xlink="http://www.w3.org/1999/xlink" xmlns="http://www.w3.org/2000/svg">
  <defs>
    <clipPath id="clipPath1">
      <rect x="0" y="0" width="1280" height="720" />
    </clipPath>
  </defs>
  <g clip-path="url(#clipPath1)">
    <polyline points="105.2868,670.894 105.2868,674.894" style="fill:none;stroke:black;stroke-width:1" shape-rendering="crispEdges" />
    <polyline points="134.7337,670.894 134.7337,674.894" style="fill:none;stroke:black;stroke-width:1" shape-rendering="crispEdges" />
    <polyline points="164.1807,670.894 164.1807,674.894" style="fill:none;stroke:black;stroke-width:1" shape-rendering="crispEdges" />
    <polyline points="223.0747,670.894 223.0747,674.894" style="fill:none;stroke:black;stroke-width:1" shape-rendering="crispEdges" />
    <polyline points="252.5216,670.894 252.5216,674.894" style="fill:none;stroke:black;stroke-width:1" shape-rendering="crispEdges" />
    <polyline points="281.9686,670.894 281.9686,674.894" style="fill:none;stroke:black;stroke-width:1" shape-rendering="crispEdges" />
    <polyline points="340.8625,670.894 340.8625,674.894" style="fill:none;stroke:black;stroke-width:1" shape-rendering="crispEdges" />
    <polyline points="370.3095,670.894 370.3095,674.894" style="fill:none;stroke:black;stroke-width:1" shape-rendering="crispEdges" />
    <polyline points="399.7565,670.894 399.7565,674.894" style="fill:none;stroke:black;stroke-width:1" shape-rendering="crispEdges" />
    <polyline points="458.6504,670.894 458.6504,674.894" style="fill:none;stroke:black;stroke-width:1" shape-rendering="crispEdges" />
    <polyline points="488.0974,670.894 488.0974,674.894" style="fill:none;stroke:black;stroke-width:1" shape-rendering="crispEdges" />
    <polyline points="517.5444,670.894 517.5444,674.894" style="fill:none;stroke:black;stroke-width:1" shape-rendering="crispEdges" />
    <polyline points="576.4383,670.894 576.4383,674.894" style="fill:none;stroke:black;stroke-width:1" shape-rendering="crispEdges" />
    <polyline points="605.8853,670.894 605.8853,674.894" style="fill:none;stroke:black;stroke-width:1" shape-rendering="crispEdges" />
    <polyline points="635.3323,670.894 635.3323,674.894" style="fill:none;stroke:black;stroke-width:1" shape-rendering="crispEdges" />
    <polyline points="694.2262,670.894 694.2262,674.894" style="fill:none;stroke:black;stroke-width:1" shape-rendering="crispEdges" />
    <polyline points="723.6732,670.894 723.6732,674.894" style="fill:none;stroke:black;stroke-width:1" shape-rendering="crispEdges" />
    <polyline points="753.1202,670.894 753.1202,674.894" style="fill:none;stroke:black;stroke-width:1" shape-rendering="crispEdges" />
    <polyline points="812.0141,670.894 812.0141,674.894" style="fill:none;stroke:black;stroke-width:1" shape-rendering="crispEdges" />
    <polyline points="841.4611,670.894 841.4611,674.894" style="fill:none;stroke:black;stroke-width:1" shape-rendering="crispEdges" />
    <polyline points="870.9081,670.894 870.9081,674.894" style="fill:none;stroke:black;stroke-width:1" shape-rendering="crispEdges" />
    <polyline points="929.802,670.894 929.802,674.894" style="fill:none;stroke:black;stroke-width:1" shape-rendering="crispEdges" />
    <polyline points="959.249,670.894 959.249,674.894" style="fill:none;stroke:black;stroke-width:1" shape-rendering="crispEdges" />
    <polyline points="988.696,670.894 988.696,674.894" style="fill:none;stroke:black;stroke-width:1" shape-rendering="crispEdges" />
    <polyline points="1047.5899,670.894 1047.5899,674.894" style="fill:none;stroke:black;stroke-width:1" shape-rendering="crispEdges" />
    <polyline points="1077.0369,670.894 1077.0369,674.894" style="fill:none;stroke:black;stroke-width:1" shape-rendering="crispEdges" />
    <polyline points="1106.4838,670.894 1106.4838,674.894" style="fill:none;stroke:black;stroke-width:1" shape-rendering="crispEdges" />
    <polyline points="1165.3778,670.894 1165.3778,674.894" style="fill:none;stroke:black;stroke-width:1" shape-rendering="crispEdges" />
    <polyline points="1194.8248,670.894 1194.8248,674.894" style="fill:none;stroke:black;stroke-width:1" shape-rendering="crispEdges" />
    <polyline points="1224.2717,670.894 1224.2717,674.894" style="fill:none;stroke:black;stroke-width:1" shape-rendering="crispEdges" />
    <polyline points="54.061,638.4453 50.061,638.4453" style="fill:none;stroke:black;stroke-width:1" shape-rendering="crispEdges" />
    <polyline points="54.061,612.4463 50.061,612.4463" style="fill:none;stroke:black;stroke-width:1" shape-rendering="crispEdges" />
    <polyline points="54.061,586.4474 50.061,586.4474" style="fill:none;stroke:black;stroke-width:1" shape-rendering="crispEdges" />
    <polyline points="54.061,534.4494 50.061,534.4494" style="fill:none;stroke:black;stroke-width:1" shape-rendering="crispEdges" />
    <polyline points="54.061,508.4504 50.061,508.4504" style="fill:none;stroke:black;stroke-width:1" shape-rendering="crispEdges" />
    <polyline points="54.061,482.4514 50.061,482.4514" style="fill:none;stroke:black;stroke-width:1" shape-rendering="crispEdges" />
    <polyline points="54.061,430.4534 50.061,430.4534" style="fill:none;stroke:black;stroke-width:1" shape-rendering="crispEdges" />
    <polyline points="54.061,404.4544 50.061,404.4544" style="fill:none;stroke:black;stroke-width:1" shape-rendering="crispEdges" />
    <polyline points="54.061,378.4555 50.061,378.4555" style="fill:none;stroke:black;stroke-width:1" shape-rendering="crispEdges" />
    <polyline points="54.061,326.4575 50.061,326.4575" style="fill:none;stroke:black;stroke-width:1" shape-rendering="crispEdges" />
    <polyline points="54.061,300.4585 50.061,300.4585" style="fill:none;stroke:black;stroke-width:1" shape-rendering="crispEdges" />
    <polyline points="54.061,274.4595 50.061,274.4595" style="fill:none;stroke:black;stroke-width:1" shape-rendering="crispEdges" />
    <polyline points="54.061,222.4615 50.061,222.4615" style="fill:none;stroke:black;stroke-width:1" shape-rendering="crispEdges" />
    <polyline points="54.061,196.4625 50.061,196.4625" style="fill:none;stroke:black;stroke-width:1" shape-rendering="crispEdges" />
    <polyline points="54.061,170.4636 50.061,170.4636" style="fill:none;stroke:black;stroke-width:1" shape-rendering="crispEdges" />
    <polyline points="54.061,118.4656 50.061,118.4656" style="fill:none;stroke:black;stroke-width:1" shape-rendering="crispEdges" />
    <polyline points="54.061,92.4666 50.061,92.4666" style="fill:none;stroke:black;stroke-width:1" shape-rendering="crispEdges" />
    <polyline points="54.061,66.4676 50.061,66.4676" style="fill:none;stroke:black;stroke-width:1" shape-rendering="crispEdges" />
    <polyline points="54.061,14.4696 50.061,14.4696" style="fill:none;stroke:black;stroke-width:1" shape-rendering="crispEdges" />
    <text dominant-baseline="hanging" text-anchor="middle" transform="translate(75.8398,681.894)" font-family="Segoe UI" font-size="12" font-weight="400" fill="black">-10</text>
    <text dominant-baseline="hanging" text-anchor="middle" transform="translate(193.6277,681.894)" font-family="Segoe UI" font-size="12" font-weight="400" fill="black">-8</text>
    <text dominant-baseline="hanging" text-anchor="middle" transform="translate(311.4156,681.894)" font-family="Segoe UI" font-size="12" font-weight="400" fill="black">-6</text>
    <text dominant-baseline="hanging" text-anchor="middle" transform="translate(429.2035,681.894)" font-family="Segoe UI" font-size="12" font-weight="400" fill="black">-4</text>
    <text dominant-baseline="hanging" text-anchor="middle" transform="translate(546.9914,681.894)" font-family="Segoe UI" font-size="12" font-weight="400" fill="black">-2</text>
    <text dominant-baseline="hanging" text-anchor="middle" transform="translate(664.7793,681.894)" font-family="Segoe UI" font-size="12" font-weight="400" fill="black">0</text>
    <text dominant-baseline="hanging" text-anchor="middle" transform="translate(782.5671,681.894)" font-family="Segoe UI" font-size="12" font-weight="400" fill="black">2</text>
    <text dominant-baseline="hanging" text-anchor="middle" transform="translate(900.355,681.894)" font-family="Segoe UI" font-size="12" font-weight="400" fill="black">4</text>
    <text dominant-baseline="hanging" text-anchor="middle" transform="translate(1018.1429,681.894)" font-family="Segoe UI" font-size="12" font-weight="400" fill="black">6</text>
    <text dominant-baseline="hanging" text-anchor="middle" transform="translate(1135.9308,681.894)" font-family="Segoe UI" font-size="12" font-weight="400" fill="black">8</text>
    <text dominant-baseline="hanging" text-anchor="middle" transform="translate(1253.7187,681.894)" font-family="Segoe UI" font-size="12" font-weight="400" fill="black">10</text>
    <polyline points="75.8398,670.894 75.8398,677.894" style="fill:none;stroke:black;stroke-width:1" shape-rendering="crispEdges" />
    <polyline points="193.6277,670.894 193.6277,677.894" style="fill:none;stroke:black;stroke-width:1" shape-rendering="crispEdges" />
    <polyline points="311.4156,670.894 311.4156,677.894" style="fill:none;stroke:black;stroke-width:1" shape-rendering="crispEdges" />
    <polyline points="429.2035,670.894 429.2035,677.894" style="fill:none;stroke:black;stroke-width:1" shape-rendering="crispEdges" />
    <polyline points="546.9914,670.894 546.9914,677.894" style="fill:none;stroke:black;stroke-width:1" shape-rendering="crispEdges" />
    <polyline points="664.7793,670.894 664.7793,677.894" style="fill:none;stroke:black;stroke-width:1" shape-rendering="crispEdges" />
    <polyline points="782.5671,670.894 782.5671,677.894" style="fill:none;stroke:black;stroke-width:1" shape-rendering="crispEdges" />
    <polyline points="900.355,670.894 900.355,677.894" style="fill:none;stroke:black;stroke-width:1" shape-rendering="crispEdges" />
    <polyline points="1018.1429,670.894 1018.1429,677.894" style="fill:none;stroke:black;stroke-width:1" shape-rendering="crispEdges" />
    <polyline points="1135.9308,670.894 1135.9308,677.894" style="fill:none;stroke:black;stroke-width:1" shape-rendering="crispEdges" />
    <polyline points="1253.7187,670.894 1253.7187,677.894" style="fill:none;stroke:black;stroke-width:1" shape-rendering="crispEdges" />
    <text dominant-baseline="baseline" text-anchor="middle" transform="translate(659.7793,708)" font-family="Segoe UI" font-size="12" font-weight="400" fill="black">x</text>
    <text dominant-baseline="middle" text-anchor="end" transform="translate(43.061,664.4443)" font-family="Segoe UI" font-size="12" font-weight="400" fill="black">0</text>
    <text dominant-baseline="middle" text-anchor="end" transform="translate(43.061,560.4484)" font-family="Segoe UI" font-size="12" font-weight="400" fill="black">2</text>
    <text dominant-baseline="middle" text-anchor="end" transform="translate(43.061,456.4524)" font-family="Segoe UI" font-size="12" font-weight="400" fill="black">4</text>
    <text dominant-baseline="middle" text-anchor="end" transform="translate(43.061,352.4565)" font-family="Segoe UI" font-size="12" font-weight="400" fill="black">6</text>
    <text dominant-baseline="middle" text-anchor="end" transform="translate(43.061,248.4605)" font-family="Segoe UI" font-size="12" font-weight="400" fill="black">8</text>
    <text dominant-baseline="middle" text-anchor="end" transform="translate(43.061,144.4646)" font-family="Segoe UI" font-size="12" font-weight="400" fill="black">10</text>
    <text dominant-baseline="middle" text-anchor="end" transform="translate(43.061,40.4686)" font-family="Segoe UI" font-size="12" font-weight="400" fill="black">12</text>
    <polyline points="54.061,664.4443 47.061,664.4443" style="fill:none;stroke:black;stroke-width:1" shape-rendering="crispEdges" />
    <polyline points="54.061,560.4484 47.061,560.4484" style="fill:none;stroke:black;stroke-width:1" shape-rendering="crispEdges" />
    <polyline points="54.061,456.4524 47.061,456.4524" style="fill:none;stroke:black;stroke-width:1" shape-rendering="crispEdges" />
    <polyline points="54.061,352.4565 47.061,352.4565" style="fill:none;stroke:black;stroke-width:1" shape-rendering="crispEdges" />
    <polyline points="54.061,248.4605 47.061,248.4605" style="fill:none;stroke:black;stroke-width:1" shape-rendering="crispEdges" />
    <polyline points="54.061,144.4646 47.061,144.4646" style="fill:none;stroke:black;stroke-width:1" shape-rendering="crispEdges" />
    <polyline points="54.061,40.4686 47.061,40.4686" style="fill:none;stroke:black;stroke-width:1" shape-rendering="crispEdges" />
    <text dominant-baseline="hanging" text-anchor="middle" transform="translate(12,341.9603) rotate(-90)" font-family="Segoe UI" font-size="12" font-weight="400" fill="black">f(x)</text>
  </g>
  <defs>
    <clipPath id="clipPath2">
      <rect x="54.061" y="13.0265" width="1211.4365" height="657.8675" />
    </clipPath>
  </defs>
  <g clip-path="url(#clipPath2)">
    <polyline points="75.8398,19.4762 77.0766,21.0825 78.3133,22.6885 79.5501,24.2944 80.7869,25.9 82.0237,27.5054 83.2604,29.1105 84.4972,30.7154 85.734,32.3201 86.9707,33.9245 88.2075,35.5288 89.4443,37.1327 90.6811,38.7365 91.9178,40.34 93.1546,41.9432 94.3914,43.5462 95.6282,45.149 96.8649,46.7515 98.1017,48.3538 99.3385,49.9559 100.5752,51.5577 101.812,53.1592 103.0488,54.7605 104.2856,56.3615 105.5223,57.9623 106.7591,59.5629 107.9959,61.1632 109.2327,62.7632 110.4694,64.363 111.7062,65.9625 112.943,67.5618 114.1797,69.1608 115.4165,70.7596 116.6533,72.3581 117.8901,73.9563 119.1268,75.5543 120.3636,77.152 121.6004,78.7494 122.8372,80.3466 124.0739,81.9435 125.3107,83.5402 126.5475,85.1365 127.7842,86.7326 129.021,88.3285 130.2578,89.924 131.4946,91.5193 132.7313,93.1143 133.9681,94.709 135.2049,96.3034 136.4417,97.8976 137.6784,99.4915 138.9152,101.0851 140.152,102.6784 141.3888,104.2714 142.6255,105.8642 143.8623,107.4566 145.0991,109.0488 146.3358,110.6407 147.5726,112.2322 148.8094,113.8235 150.0462,115.4145 151.2829,117.0052 152.5197,118.5956 153.7565,120.1857 154.9933,121.7755 156.23,123.365 157.4668,124.9542 158.7036,126.5431 159.9403,128.1317 161.1771,129.72 162.4139,131.3079 163.6507,132.8956 164.8874,134.4829 166.1242,136.07 167.361,137.6567 168.5978,139.2431 169.8345,140.8291 171.0713,142.4149 172.3081,144.0003 173.5448,145.5855 174.7816,147.1702 176.0184,148.7547 177.2552,150.3388 178.4919,151.9226 179.7287,153.5061 180.9655,155.0892 182.2023,156.6721 183.439,158.2545 184.6758,159.8366 185.9126,161.4184 187.1493,162.9999 188.3861,164.581 189.6229,166.1617 190.8597,167.7422 192.0964,169.3222 193.3332,170.9019 194.57,172.4813 195.8068,174.0603 197.0435,175.6389 198.2803,177.2172 199.5171,178.7952 200.7538,180.3727 201.9906,181.9499 203.2274,183.5268 204.4642,185.1033 205.7009,186.6794 206.9377,188.2551 208.1745,189.8305 209.4113,191.4054 210.648,192.9801 211.8848,194.5543 213.1216,196.1281 214.3584,197.7016 215.5951,199.2747 216.8319,200.8474 218.0687,202.4197 219.3054,203.9916 220.6011,205.6379 221.8968,207.2838 223.1924,208.9293 224.4881,210.5743 225.7838,212.2189 227.0794,213.863 228.3751,215.5067 229.6708,217.15 230.9664,218.7928 232.2621,220.4351 233.5578,222.077 234.8534,223.7184 236.1491,225.3593 237.4448,226.9998 238.7404,228.6398 240.0361,230.2794 241.3318,231.9185 242.6274,233.557 243.9231,235.1952 245.2188,236.8328 246.5144,238.4699 247.8101,240.1066 249.1058,241.7427 250.4014,243.3784 251.6971,245.0136 252.9928,246.6482 254.2884,248.2824 255.5841,249.9161 256.8798,251.5492 258.1754,253.1818 259.4711,254.8139 260.7668,256.4455 262.0624,258.0766 263.3581,259.7071 264.6538,261.3372 265.9494,262.9666 267.2451,264.5956 268.5408,266.224 269.8364,267.8518 271.1321,269.4791 272.4278,271.1059 273.7234,272.7321 275.0191,274.3577 276.3148,275.9828 277.6104,277.6073 278.9061,279.2313 280.2018,280.8547 281.4974,282.4775 282.7931,284.0997 284.0888,285.7213 285.3844,287.3423 286.6801,288.9628 287.9758,290.5827 289.2714,292.2019 290.5671,293.8206 291.8628,295.4386 293.1585,297.056 294.4541,298.6729 295.7498,300.289 297.0455,301.9046 298.3411,303.5196 299.6368,305.1339 300.9325,306.7475 302.2281,308.3606 303.5238,309.9729 304.8195,311.5847 306.1151,313.1957 307.4108,314.8061 308.7065,316.4159 310.0021,318.025 311.2978,319.6334 312.5935,321.2411 313.8891,322.8481 315.1848,324.4545 316.4805,326.0601 317.7761,327.6651 319.0718,329.2693 320.3675,330.8728 321.6631,332.4757 322.9588,334.0778 324.2545,335.6791 325.5501,337.2798 326.8458,338.8797 328.1415,340.4789 329.4371,342.0773 330.7328,343.6749 332.0285,345.2719 333.3241,346.868 334.6198,348.4634 335.9155,350.058 337.2111,351.6518 338.5068,353.2448 339.8025,354.837 341.0981,356.4285 342.3938,358.0191 343.6895,359.6089 344.9851,361.1979 346.2808,362.7861 347.5765,364.3734 348.8721,365.9599 350.1678,367.5456 351.4635,369.1304 352.7591,370.7143 354.0548,372.2974 355.3505,373.8796 356.6461,375.4609 357.9418,377.0413 359.2375,378.6209 360.5331,380.1995 361.8288,381.7773 363.1245,383.3541 364.4201,384.93 365.7158,386.5049 367.0115,388.0789 368.3071,389.652 369.6028,391.2241 370.8985,392.7953 372.1941,394.3655 373.4898,395.9347 374.7855,397.5029 376.0811,399.0701 377.3768,400.6363 378.6725,402.2015 379.9681,403.7657 381.2638,405.3288 382.5595,406.8909 383.8551,408.452 385.1508,410.012 386.4465,411.5709 387.7421,413.1287 389.0378,414.6855 390.3335,416.2411 391.6291,417.7957 392.9248,419.3491 394.2205,420.9014 395.5161,422.4526 396.8118,424.0026 398.1075,425.5514 399.4031,427.0991 400.6988,428.6456 401.9945,430.1909 403.2901,431.735 404.5858,433.2779 405.8815,434.8196 407.1771,436.36 408.4728,437.8992 409.7685,439.4371 411.0641,440.9738 412.3598,442.5091 413.6555,444.0432 414.9511,445.5759 416.2468,447.1073 417.5425,448.6374 418.8381,450.1661 420.1338,451.6935 421.4295,453.2195 422.7251,454.7441 424.0797,456.3365 425.4343,457.9273 426.7888,459.5166 428.1434,461.1043 429.4979,462.6903 430.8525,464.2748 432.2071,465.8576 433.5616,467.4387 434.9162,469.0182 436.2707,470.596 437.6253,472.1721 438.9799,473.7464 440.3344,475.319 441.689,476.8898 443.0435,478.4588 444.3981,480.026 445.7527,481.5914 447.1072,483.1549 448.4618,484.7166 449.8163,486.2763 451.1709,487.8341 452.5255,489.39 453.88,490.9439 455.2346,492.4959 456.5892,494.0458 457.9437,495.5936 459.2983,497.1394 460.6528,498.6832 462.0074,500.2248 463.362,501.7642 464.7165,503.3015 466.0711,504.8367 467.4256,506.3695 468.7802,507.9002 470.1348,509.4285 471.4893,510.9546 472.8439,512.4783 474.1984,513.9997 475.553,515.5186 476.9076,517.0351 478.2621,518.5492 479.6167,520.0608 480.9712,521.5698 482.3258,523.0763 483.6804,524.5802 485.0349,526.0814 486.3895,527.58 487.744,529.0759 489.0986,530.569 490.4532,532.0594 491.8077,533.5469 493.1623,535.0316 494.5169,536.5134 495.8714,537.9922 497.226,539.4681 498.5805,540.9409 499.994,542.4745 501.4074,544.0048 502.8209,545.5315 504.2344,547.0548 505.6478,548.5745 507.0613,550.0906 508.4747,551.6031 509.8882,553.1118 511.3016,554.6167 512.7151,556.1178 514.1285,557.615 515.542,559.1082 516.9554,560.5974 518.3689,562.0825 519.7824,563.5634 521.1958,565.04 522.6093,566.5124 524.0227,567.9804 525.4362,569.4439 526.8496,570.9028 528.2631,572.3572 529.6765,573.8068 531.09,575.2517 532.5034,576.6917 533.9169,578.1267 535.3304,579.5567 536.7438,580.9815 538.1573,582.4012 539.6296,583.8743 541.102,585.3415 542.5743,586.8027 544.0467,588.2578 545.519,589.7066 546.9914,591.1491 548.4637,592.5851 549.9361,594.0144 551.4084,595.437 552.8808,596.8526 554.3531,598.2612 555.8254,599.6626 557.2978,601.0567 558.7701,602.4433 560.2425,603.8222 561.7148,605.1932 563.1872,606.5563 564.6595,607.9112 566.1908,609.3114 567.722,610.7024 569.2533,612.0839 570.7845,613.4557 572.3158,614.8176 573.847,616.1694 575.3782,617.5108 576.9095,618.8415 578.4407,620.1614 579.972,621.4701 581.5032,622.7673 583.0933,624.1021 584.6835,625.4239 586.2736,626.7323 587.8638,628.0271 589.4539,629.3079 591.044,630.5744 592.6342,631.826 594.2243,633.0625 595.8144,634.2835 597.4635,635.5327 599.1125,636.7643 600.7615,637.9777 602.4106,639.1724 604.0596,640.348 605.7086,641.5037 607.3577,642.6391 609.0656,643.793 610.7735,644.9239 612.4814,646.031 614.1894,647.1136 615.8973,648.1711 617.6641,649.2378 619.4309,650.2759 621.1977,651.2847 622.9645,652.2632 624.7314,653.2106 626.5571,654.156 628.3828,655.0662 630.2085,655.9402 632.0342,656.7771 633.9188,657.6009 635.8034,658.383 637.688,659.1222 639.5726,659.8174 641.5161,660.4872 643.4596,661.1081 645.4031,661.6789 647.3466,662.1985 649.349,662.6795 651.3514,663.1043 653.3538,663.4719 655.3562,663.7816 657.3586,664.0326 659.361,664.2246 661.3634,664.3569 663.3658,664.4293 665.3682,664.4417 667.3706,664.394 669.373,664.2863 671.3754,664.1189 673.3778,663.8921 675.3802,663.6064 677.3826,663.2626 679.3849,662.8613 681.3873,662.4033 683.3308,661.9056 685.2743,661.3564 687.2178,660.7567 689.1613,660.1075 691.0459,659.4318 692.9306,658.7117 694.8152,657.9483 696.6998,657.1426 698.5255,656.3229 700.3512,655.4655 702.1769,654.5715 704.0026,653.6419 705.8283,652.6776 707.5951,651.7125 709.362,650.7167 711.1288,649.6912 712.8956,648.6368 714.6035,647.5908 716.3115,646.5194 718.0194,645.4232 719.7273,644.3029 721.4352,643.1592 723.1432,641.9928 724.7922,640.8457 726.4412,639.6786 728.0902,638.4921 729.7393,637.2866 731.3883,636.0627 733.0373,634.821 734.6275,633.6071 736.2176,632.3775 737.8077,631.1325 739.3979,629.8726 740.988,628.5981 742.5782,627.3095 744.1683,626.0071 745.7584,624.6912 747.3486,623.3621 748.8798,622.0703 750.411,620.7668 751.9423,619.4521 753.4735,618.1263 755.0048,616.7898 756.536,615.4428 758.0673,614.0855 759.5985,612.7182 761.1297,611.3412 762.661,609.9545 764.1922,608.5586 765.7235,607.1535 767.1958,605.794 768.6682,604.4264 770.1405,603.0509 771.6129,601.6677 773.0852,600.2769 774.5576,598.8787 776.0299,597.4733 777.5023,596.0607 778.9746,594.6412 780.447,593.2148 781.9193,591.7817 783.3917,590.3421 784.864,588.8961 786.3364,587.4437 787.8087,585.9852 789.2811,584.5206 790.7534,583.0501 792.1669,581.6329 793.5803,580.2104 794.9938,578.7827 796.4072,577.35 797.8207,575.9123 799.2341,574.4696 800.6476,573.0222 802.061,571.57 803.4745,570.1131 804.8879,568.6517 806.3014,567.1858 807.7149,565.7154 809.1283,564.2407 810.5418,562.7617 811.9552,561.2786 813.3687,559.7913 814.7821,558.2999 816.1956,556.8045 817.609,555.3052 819.0225,553.802 820.4359,552.295 821.8494,550.7843 823.2629,549.2698 824.6763,547.7518 826.0898,546.2301 827.5032,544.705 828.9167,543.1763 830.3301,541.6443 831.7436,540.1088 833.0981,538.6343 834.4527,537.1567 835.8073,535.6762 837.1618,534.1928 838.5164,532.7065 839.871,531.2173 841.2255,529.7254 842.5801,528.2307 843.9346,526.7333 845.2892,525.2332 846.6438,523.7305 847.9983,522.2251 849.3529,520.7172 850.7074,519.2067 852.062,517.6937 853.4166,516.1783 854.7711,514.6604 856.1257,513.1401 857.4802,511.6174 858.8348,510.0923 860.1894,508.565 861.5439,507.0353 862.8985,505.5034 864.253,503.9693 865.6076,502.4329 866.9622,500.8944 868.3167,499.3537 869.6713,497.8109 871.0258,496.266 872.3804,494.719 873.735,493.17 875.0895,491.6189 876.4441,490.0659 877.7987,488.5108 879.1532,486.9539 880.5078,485.3949 881.8623,483.8341 883.2169,482.2714 884.5715,480.7069 885.926,479.1404 887.2806,477.5722 888.6351,476.0022 889.9897,474.4304 891.3443,472.8568 892.6988,471.2815 894.0534,469.7044 895.4079,468.1257 896.7625,466.5452 898.1171,464.9632 899.4716,463.3794 900.8262,461.794 902.1807,460.2071 903.5353,458.6185 904.8899,457.0283 906.2444,455.4366 907.5401,453.9127 908.8358,452.3873 910.1314,450.8606 911.4271,449.3325 912.7228,447.803 914.0184,446.2722 915.3141,444.74 916.6098,443.2066 917.9054,441.6718 919.2011,440.1358 920.4968,438.5984 921.7924,437.0598 923.0881,435.52 924.3838,433.9789 925.6794,432.4365 926.9751,430.893 928.2708,429.3482 929.5664,427.8022 930.8621,426.2551 932.1578,424.7068 933.4534,423.1573 934.7491,421.6066 936.0448,420.0548 937.3404,418.5019 938.6361,416.9479 939.9318,415.3927 941.2274,413.8365 942.5231,412.2791 943.8188,410.7207 945.1144,409.1612 946.4101,407.6006 947.7058,406.039 949.0014,404.4763 950.2971,402.9126 951.5928,401.3479 952.8884,399.7821 954.1841,398.2154 955.4798,396.6476 956.7754,395.0789 958.0711,393.5091 959.3668,391.9384 960.6624,390.3667 961.9581,388.7941 963.2538,387.2205 964.5494,385.646 965.8451,384.0705 967.1408,382.4941 968.4364,380.9168 969.7321,379.3386 971.0278,377.7594 972.3234,376.1794 973.6191,374.5985 974.9148,373.0167 976.2104,371.434 977.5061,369.8504 978.8018,368.266 980.0974,366.6808 981.3931,365.0947 982.6888,363.5077 983.9844,361.9199 985.2801,360.3313 986.5758,358.7418 987.8714,357.1516 989.1671,355.5605 990.4628,353.9686 991.7584,352.376 993.0541,350.7825 994.3498,349.1883 995.6454,347.5933 996.9411,345.9975 998.2368,344.4009 999.5324,342.8036 1000.8281,341.2055 1002.1238,339.6067 1003.4194,338.0071 1004.7151,336.4068 1006.0108,334.8058 1007.3064,333.204 1008.6021,331.6015 1009.8978,329.9983 1011.1934,328.3943 1012.4891,326.7897 1013.7848,325.1844 1015.0804,323.5784 1016.3761,321.9716 1017.6718,320.3642 1018.9674,318.7561 1020.2631,317.1474 1021.5588,315.5379 1022.8544,313.9278 1024.1501,312.317 1025.4458,310.7056 1026.7414,309.0935 1028.0371,307.4808 1029.3328,305.8674 1030.6284,304.2534 1031.9241,302.6388 1033.2198,301.0235 1034.5154,299.4076 1035.8111,297.791 1037.1068,296.1739 1038.4024,294.5561 1039.6981,292.9377 1040.9938,291.3188 1042.2894,289.6992 1043.5851,288.079 1044.8808,286.4582 1046.1764,284.8368 1047.4721,283.2149 1048.7678,281.5924 1050.0634,279.9692 1051.3591,278.3456 1052.6548,276.7213 1053.9504,275.0965 1055.2461,273.4711 1056.5418,271.8451 1057.8374,270.2186 1059.1331,268.5916 1060.4288,266.964 1061.7244,265.3358 1063.0201,263.7071 1064.3158,262.0779 1065.6114,260.4481 1066.9071,258.8178 1068.2028,257.187 1069.4984,255.5556 1070.7941,253.9238 1072.0898,252.2914 1073.3854,250.6585 1074.6811,249.025 1075.9768,247.3911 1077.2724,245.7567 1078.5681,244.1217 1079.8638,242.4863 1081.1594,240.8504 1082.4551,239.2139 1083.7508,237.577 1085.0464,235.9396 1086.3421,234.3017 1087.6378,232.6633 1088.9334,231.0245 1090.2291,229.3851 1091.5248,227.7453 1092.8205,226.1051 1094.1161,224.4643 1095.4118,222.8231 1096.7075,221.1815 1098.0031,219.5393 1099.2988,217.8968 1100.5945,216.2537 1101.8901,214.6102 1103.1858,212.9663 1104.4815,211.3219 1105.7771,209.6771 1107.0728,208.0318 1108.3685,206.3861 1109.6641,204.74 1110.9598,203.0934 1112.1966,201.5213 1113.4333,199.9487 1114.6701,198.3758 1115.9069,196.8025 1117.1436,195.2288 1118.3804,193.6548 1119.6172,192.0803 1120.854,190.5055 1122.0907,188.9303 1123.3275,187.3547 1124.5643,185.7788 1125.8011,184.2025 1127.0378,182.6258 1128.2746,181.0487 1129.5114,179.4713 1130.7482,177.8935 1131.9849,176.3154 1133.2217,174.7369 1134.4585,173.1581 1135.6952,171.5788 1136.932,169.9993 1138.1688,168.4194 1139.4056,166.8391 1140.6423,165.2585 1141.8791,163.6775 1143.1159,162.0962 1144.3527,160.5146 1145.5894,158.9326 1146.8262,157.3503 1148.063,155.7676 1149.2997,154.1846 1150.5365,152.6013 1151.7733,151.0176 1153.0101,149.4337 1154.2468,147.8493 1155.4836,146.2647 1156.7204,144.6797 1157.9572,143.0944 1159.1939,141.5088 1160.4307,139.9229 1161.6675,138.3366 1162.9042,136.75 1164.141,135.1631 1165.3778,133.5759 1166.6146,131.9884 1167.8513,130.4006 1169.0881,128.8124 1170.3249,127.224 1171.5617,125.6352 1172.7984,124.0461 1174.0352,122.4568 1175.272,120.8671 1176.5087,119.2771 1177.7455,117.6869 1178.9823,116.0963 1180.2191,114.5054 1181.4558,112.9143 1182.6926,111.3228 1183.9294,109.7311 1185.1662,108.139 1186.4029,106.5467 1187.6397,104.9541 1188.8765,103.3612 1190.1132,101.768 1191.35,100.1745 1192.5868,98.5807 1193.8236,96.9867 1195.0603,95.3924 1196.2971,93.7978 1197.5339,92.2029 1198.7707,90.6077 1200.0074,89.0123 1201.2442,87.4166 1202.481,85.8206 1203.7178,84.2244 1204.9545,82.6278 1206.1913,81.031 1207.4281,79.434 1208.6648,77.8366 1209.9016,76.2391 1211.1384,74.6412 1212.3752,73.0431 1213.6119,71.4447 1214.8487,69.846 1216.0855,68.2471 1217.3223,66.648 1218.559,65.0486 1219.7958,63.4489 1221.0326,61.849 1222.2693,60.2488 1223.5061,58.6483 1224.7429,57.0476 1225.9797,55.4467 1227.2164,53.8455 1228.4532,52.2441 1229.69,50.6424 1230.9268,49.0404 1232.1635,47.4383 1233.4003,45.8358 1234.6371,44.2332 1235.8738,42.6302 1237.1106,41.0271 1238.3474,39.4237 1239.5842,37.8201 1240.8209,36.2162 1242.0577,34.6121 1243.2945,33.0078 1244.5313,31.4032 1245.768,29.7984 1247.0048,28.1933 1248.2416,26.588 1249.4783,24.9825 1250.7151,23.3768 1251.9519,21.7708 1253.1887,20.1646 1253.7187,19.4762" style="fill:none;stroke:rgb(78,154,6);stroke-width:2;stroke-linejoin:bevel" />
  </g>
  <defs>
    <clipPath id="clipPath3">
      <rect x="0" y="0" width="1280" height="720" />
    </clipPath>
  </defs>
  <g clip-path="url(#clipPath3)">
    <rect x="54.061" y="13.0265" width="1211.4365" height="657.8675" style="fill:none;stroke:black;stroke-width:1" shape-rendering="crispEdges" />
  </g>
</svg>