<?xml version="1.0" encoding="utf-8" standalone="no"?>
<!DOCTYPE svg PUBLIC "-//W3C//DTD SVG 1.1//EN" "http://www.w3.org/Graphics/SVG/1.1/DTD/svg11.dtd">
<svg width="1280" height="720" version="1.1" xmlns:xlink="http://www.w3.org/1999/xlink" xmlns="http://www.w3.org/2000/svg">
  <defs>
    <clipPath id="clipPath1">
      <rect x="0" y="0" width="1280" height="720" />
    </clipPath>
  </defs>
  <g clip-path="url(#clipPath1)">
    <polyline points="107.6942,670.894 107.6942,674.894" style="fill:none;stroke:black;stroke-width:1" shape-rendering="crispEdges" />
    <polyline points="137.0801,670.894 137.0801,674.894" style="fill:none;stroke:black;stroke-width:1" shape-rendering="crispEdges" />
    <polyline points="166.466,670.894 166.466,674.894" style="fill:none;stroke:black;stroke-width:1" shape-rendering="crispEdges" />
    <polyline points="225.2377,670.894 225.2377,674.894" style="fill:none;stroke:black;stroke-width:1" shape-rendering="crispEdges" />
    <polyline points="254.6236,670.894 254.6236,674.894" style="fill:none;stroke:black;stroke-width:1" shape-rendering="crispEdges" />
    <polyline points="284.0094,670.894 284.0094,674.894" style="fill:none;stroke:black;stroke-width:1" shape-rendering="crispEdges" />
    <polyline points="342.7812,670.894 342.7812,674.894" style="fill:none;stroke:black;stroke-width:1" shape-rendering="crispEdges" />
    <polyline points="372.167,670.894 372.167,674.894" style="fill:none;stroke:black;stroke-width:1" shape-rendering="crispEdges" />
    <polyline points="401.5529,670.894 401.5529,674.894" style="fill:none;stroke:black;stroke-width:1" shape-rendering="crispEdges" />
    <polyline points="460.3247,670.894 460.3247,674.894" style="fill:none;stroke:black;stroke-width:1" shape-rendering="crispEdges" />
    <polyline points="489.7105,670.894 489.7105,674.894" style="fill:none;stroke:black;stroke-width:1" shape-rendering="crispEdges" />
    <polyline points="519.0964,670.894 519.0964,674.894" style="fill:none;stroke:black;stroke-width:1" shape-rendering="crispEdges" />
    <polyline points="577.8681,670.894 577.8681,674.894" style="fill:none;stroke:black;stroke-width:1" shape-rendering="crispEdges" />
    <polyline points="607.254,670.894 607.254,674.894" style="fill:none;stroke:black;stroke-width:1" shape-rendering="crispEdges" />
    <polyline points="636.6399,670.894 636.6399,674.894" style="fill:none;stroke:black;stroke-width:1" shape-rendering="crispEdges" />
    <polyline points="695.4116,670.894 695.4116,674.894" style="fill:none;stroke:black;stroke-width:1" shape-rendering="crispEdges" />
    <polyline points="724.7975,670.894 724.7975,674.894" style="fill:none;stroke:black;stroke-width:1" shape-rendering="crispEdges" />
    <polyline points="754.1834,670.894 754.1834,674.894" style="fill:none;stroke:black;stroke-width:1" shape-rendering="crispEdges" />
    <polyline points="812.9551,670.894 812.9551,674.894" style="fill:none;stroke:black;stroke-width:1" shape-rendering="crispEdges" />
    <polyline points="842.341,670.894 842.341,674.894" style="fill:none;stroke:black;stroke-width:1" shape-rendering="crispEdges" />
    <polyline points="871.7268,670.894 871.7268,674.894" style="fill:none;stroke:black;stroke-width:1" shape-rendering="crispEdges" />
    <polyline points="930.4986,670.894 930.4986,674.894" style="fill:none;stroke:black;stroke-width:1" shape-rendering="crispEdges" />
    <polyline points="959.8845,670.894 959.8845,674.894" style="fill:none;stroke:black;stroke-width:1" shape-rendering="crispEdges" />
    <polyline points="989.2703,670.894 989.2703,674.894" style="fill:none;stroke:black;stroke-width:1" shape-rendering="crispEdges" />
    <polyline points="1048.0421,670.894 1048.0421,674.894" style="fill:none;stroke:black;stroke-width:1" shape-rendering="crispEdges" />
    <polyline points="1077.4279,670.894 1077.4279,674.894" style="fill:none;stroke:black;stroke-width:1" shape-rendering="crispEdges" />
    <polyline points="1106.8138,670.894 1106.8138,674.894" style="fill:none;stroke:black;stroke-width:1" shape-rendering="crispEdges" />
    <polyline points="1165.5855,670.894 1165.5855,674.894" style="fill:none;stroke:black;stroke-width:1" shape-rendering="crispEdges" />
    <polyline points="1194.9714,670.894 1194.9714,674.894" style="fill:none;stroke:black;stroke-width:1" shape-rendering="crispEdges" />
    <polyline points="1224.3573,670.894 1224.3573,674.894" style="fill:none;stroke:black;stroke-width:1" shape-rendering="crispEdges" />
    <polyline points="56.554,657.8656 52.554,657.8656" style="fill:none;stroke:black;stroke-width:1" shape-rendering="crispEdges" />
    <polyline points="56.554,644.8373 52.554,644.8373" style="fill:none;stroke:black;stroke-width:1" shape-rendering="crispEdges" />
    <polyline points="56.554,631.8089 52.554,631.8089" style="fill:none;stroke:black;stroke-width:1" shape-rendering="crispEdges" />
    <polyline points="56.554,618.7806 52.554,618.7806" style="fill:none;stroke:black;stroke-width:1" shape-rendering="crispEdges" />
    <polyline points="56.554,592.7239 52.554,592.7239" style="fill:none;stroke:black;stroke-width:1" shape-rendering="crispEdges" />
    <polyline points="56.554,579.6955 52.554,579.6955" style="fill:none;stroke:black;stroke-width:1" shape-rendering="crispEdges" />
    <polyline points="56.554,566.6671 52.554,566.6671" style="fill:none;stroke:black;stroke-width:1" shape-rendering="crispEdges" />
    <polyline points="56.554,553.6388 52.554,553.6388" style="fill:none;stroke:black;stroke-width:1" shape-rendering="crispEdges" />
    <polyline points="56.554,527.5821 52.554,527.5821" style="fill:none;stroke:black;stroke-width:1" shape-rendering="crispEdges" />
    <polyline points="56.554,514.5537 52.554,514.5537" style="fill:none;stroke:black;stroke-width:1" shape-rendering="crispEdges" />
    <polyline points="56.554,501.5254 52.554,501.5254" style="fill:none;stroke:black;stroke-width:1" shape-rendering="crispEdges" />
    <polyline points="56.554,488.497 52.554,488.497" style="fill:none;stroke:black;stroke-width:1" shape-rendering="crispEdges" />
    <polyline points="56.554,462.4403 52.554,462.4403" style="fill:none;stroke:black;stroke-width:1" shape-rendering="crispEdges" />
    <polyline points="56.554,449.4119 52.554,449.4119" style="fill:none;stroke:black;stroke-width:1" shape-rendering="crispEdges" />
    <polyline points="56.554,436.3836 52.554,436.3836" style="fill:none;stroke:black;stroke-width:1" shape-rendering="crispEdges" />
    <polyline points="56.554,423.3552 52.554,423.3552" style="fill:none;stroke:black;stroke-width:1" shape-rendering="crispEdges" />
    <polyline points="56.554,397.2985 52.554,397.2985" style="fill:none;stroke:black;stroke-width:1" shape-rendering="crispEdges" />
    <polyline points="56.554,384.2702 52.554,384.2702" style="fill:none;stroke:black;stroke-width:1" shape-rendering="crispEdges" />
    <polyline points="56.554,371.2418 52.554,371.2418" style="fill:none;stroke:black;stroke-width:1" shape-rendering="crispEdges" />
    <polyline points="56.554,358.2134 52.554,358.2134" style="fill:none;stroke:black;stroke-width:1" shape-rendering="crispEdges" />
    <polyline points="56.554,332.1567 52.554,332.1567" style="fill:none;stroke:black;stroke-width:1" shape-rendering="crispEdges" />
    <polyline points="56.554,319.1284 52.554,319.1284" style="fill:none;stroke:black;stroke-width:1" shape-rendering="crispEdges" />
    <polyline points="56.554,306.1 52.554,306.1" style="fill:none;stroke:black;stroke-width:1" shape-rendering="crispEdges" />
    <polyline points="56.554,293.0717 52.554,293.0717" style="fill:none;stroke:black;stroke-width:1" shape-rendering="crispEdges" />
    <polyline points="56.554,267.015 52.554,267.015" style="fill:none;stroke:black;stroke-width:1" shape-rendering="crispEdges" />
    <polyline points="56.554,253.9866 52.554,253.9866" style="fill:none;stroke:black;stroke-width:1" shape-rendering="crispEdges" />
    <polyline points="56.554,240.9582 52.554,240.9582" style="fill:none;stroke:black;stroke-width:1" shape-rendering="crispEdges" />
    <polyline points="56.554,227.9299 52.554,227.9299" style="fill:none;stroke:black;stroke-width:1" shape-rendering="crispEdges" />
    <polyline points="56.554,201.8732 52.554,201.8732" style="fill:none;stroke:black;stroke-width:1" shape-rendering="crispEdges" />
    <polyline points="56.554,188.8448 52.554,188.8448" style="fill:none;stroke:black;stroke-width:1" shape-rendering="crispEdges" />
    <polyline points="56.554,175.8165 52.554,175.8165" style="fill:none;stroke:black;stroke-width:1" shape-rendering="crispEdges" />
    <polyline points="56.554,162.7881 52.554,162.7881" style="fill:none;stroke:black;stroke-width:1" shape-rendering="crispEdges" />
    <polyline points="56.554,136.7314 52.554,136.7314" style="fill:none;stroke:black;stroke-width:1" shape-rendering="crispEdges" />
    <polyline points="56.554,123.703 52.554,123.703" style="fill:none;stroke:black;stroke-width:1" shape-rendering="crispEdges" />
    <polyline points="56.554,110.6747 52.554,110.6747" style="fill:none;stroke:black;stroke-width:1" shape-rendering="crispEdges" />
    <polyline points="56.554,97.6463 52.554,97.6463" style="fill:none;stroke:black;stroke-width:1" shape-rendering="crispEdges" />
    <polyline points="56.554,71.5896 52.554,71.5896" style="fill:none;stroke:black;stroke-width:1" shape-rendering="crispEdges" />
    <polyline points="56.554,58.5613 52.554,58.5613" style="fill:none;stroke:black;stroke-width:1" shape-rendering="crispEdges" />
    <polyline points="56.554,45.5329 52.554,45.5329" style="fill:none;stroke:black;stroke-width:1" shape-rendering="crispEdges" />
    <polyline points="56.554,32.5045 52.554,32.5045" style="fill:none;stroke:black;stroke-width:1" shape-rendering="crispEdges" />
    <text dominant-baseline="hanging" text-anchor="middle" transform="translate(78.3083,681.894)" font-family="Segoe UI" font-size="12" font-weight="400" fill="black">-10</text>
    <text dominant-baseline="hanging" text-anchor="middle" transform="translate(195.8518,681.894)" font-family="Segoe UI" font-size="12" font-weight="400" fill="black">-8</text>
    <text dominant-baseline="hanging" text-anchor="middle" transform="translate(313.3953,681.894)" font-family="Segoe UI" font-size="12" font-weight="400" fill="black">-6</text>
    <text dominant-baseline="hanging" text-anchor="middle" transform="translate(430.9388,681.894)" font-family="Segoe UI" font-size="12" font-weight="400" fill="black">-4</text>
    <text dominant-baseline="hanging" text-anchor="middle" transform="translate(548.4823,681.894)" font-family="Segoe UI" font-size="12" font-weight="400" fill="black">-2</text>
    <text dominant-baseline="hanging" text-anchor="middle" transform="translate(666.0258,681.894)" font-family="Segoe UI" font-size="12" font-weight="400" fill="black">0</text>
    <text dominant-baseline="hanging" text-anchor="middle" transform="translate(783.5692,681.894)" font-family="Segoe UI" font-size="12" font-weight="400" fill="black">2</text>
    <text dominant-baseline="hanging" text-anchor="middle" transform="translate(901.1127,681.894)" font-family="Segoe UI" font-size="12" font-weight="400" fill="black">4</text>
    <text dominant-baseline="hanging" text-anchor="middle" transform="translate(1018.6562,681.894)" font-family="Segoe UI" font-size="12" font-weight="400" fill="black">6</text>
    <text dominant-baseline="hanging" text-anchor="middle" transform="translate(1136.1997,681.894)" font-family="Segoe UI" font-size="12" font-weight="400" fill="black">8</text>
    <text dominant-baseline="hanging" text-anchor="middle" transform="translate(1253.7432,681.894)" font-family="Segoe UI" font-size="12" font-weight="400" fill="black">10</text>
    <polyline points="78.3083,670.894 78.3083,677.894" style="fill:none;stroke:black;stroke-width:1" shape-rendering="crispEdges" />
    <polyline points="195.8518,670.894 195.8518,677.894" style="fill:none;stroke:black;stroke-width:1" shape-rendering="crispEdges" />
    <polyline points="313.3953,670.894 313.3953,677.894" style="fill:none;stroke:black;stroke-width:1" shape-rendering="crispEdges" />
    <polyline points="430.9388,670.894 430.9388,677.894" style="fill:none;stroke:black;stroke-width:1" shape-rendering="crispEdges" />
    <polyline points="548.4823,670.894 548.4823,677.894" style="fill:none;stroke:black;stroke-width:1" shape-rendering="crispEdges" />
    <polyline points="666.0258,670.894 666.0258,677.894" style="fill:none;stroke:black;stroke-width:1" shape-rendering="crispEdges" />
    <polyline points="783.5692,670.894 783.5692,677.894" style="fill:none;stroke:black;stroke-width:1" shape-rendering="crispEdges" />
    <polyline points="901.1127,670.894 901.1127,677.894" style="fill:none;stroke:black;stroke-width:1" shape-rendering="crispEdges" />
    <polyline points="1018.6562,670.894 1018.6562,677.894" style="fill:none;stroke:black;stroke-width:1" shape-rendering="crispEdges" />
    <polyline points="1136.1997,670.894 1136.1997,677.894" style="fill:none;stroke:black;stroke-width:1" shape-rendering="crispEdges" />
    <polyline points="1253.7432,670.894 1253.7432,677.894" style="fill:none;stroke:black;stroke-width:1" shape-rendering="crispEdges" />
    <text dominant-baseline="baseline" text-anchor="middle" transform="translate(661.0258,708)" font-family="Segoe UI" font-size="12" font-weight="400" fill="black">x</text>
    <text dominant-baseline="middle" text-anchor="end" transform="translate(45.554,670.894)" font-family="Segoe UI" font-size="12" font-weight="400" fill="black">0</text>
    <text dominant-baseline="middle" text-anchor="end" transform="translate(45.554,605.7522)" font-family="Segoe UI" font-size="12" font-weight="400" fill="black">0,1</text>
    <text dominant-baseline="middle" text-anchor="end" transform="translate(45.554,540.6104)" font-family="Segoe UI" font-size="12" font-weight="400" fill="black">0,2</text>
    <text dominant-baseline="middle" text-anchor="end" transform="translate(45.554,475.4687)" font-family="Segoe UI" font-size="12" font-weight="400" fill="black">0,3</text>
    <text dominant-baseline="middle" text-anchor="end" transform="translate(45.554,410.3269)" font-family="Segoe UI" font-size="12" font-weight="400" fill="black">0,4</text>
    <text dominant-baseline="middle" text-anchor="end" transform="translate(45.554,345.1851)" font-family="Segoe UI" font-size="12" font-weight="400" fill="black">0,5</text>
    <text dominant-baseline="middle" text-anchor="end" transform="translate(45.554,280.0433)" font-family="Segoe UI" font-size="12" font-weight="400" fill="black">0,6</text>
    <text dominant-baseline="middle" text-anchor="end" transform="translate(45.554,214.9015)" font-family="Segoe UI" font-size="12" font-weight="400" fill="black">0,7</text>
    <text dominant-baseline="middle" text-anchor="end" transform="translate(45.554,149.7597)" font-family="Segoe UI" font-size="12" font-weight="400" fill="black">0,8</text>
    <text dominant-baseline="middle" text-anchor="end" transform="translate(45.554,84.618)" font-family="Segoe UI" font-size="12" font-weight="400" fill="black">0,9</text>
    <text dominant-baseline="middle" text-anchor="end" transform="translate(45.554,19.4762)" font-family="Segoe UI" font-size="12" font-weight="400" fill="black">1</text>
    <polyline points="56.554,670.894 49.554,670.894" style="fill:none;stroke:black;stroke-width:1" shape-rendering="crispEdges" />
    <polyline points="56.554,605.7522 49.554,605.7522" style="fill:none;stroke:black;stroke-width:1" shape-rendering="crispEdges" />
    <polyline points="56.554,540.6104 49.554,540.6104" style="fill:none;stroke:black;stroke-width:1" shape-rendering="crispEdges" />
    <polyline points="56.554,475.4687 49.554,475.4687" style="fill:none;stroke:black;stroke-width:1" shape-rendering="crispEdges" />
    <polyline points="56.554,410.3269 49.554,410.3269" style="fill:none;stroke:black;stroke-width:1" shape-rendering="crispEdges" />
    <polyline points="56.554,345.1851 49.554,345.1851" style="fill:none;stroke:black;stroke-width:1" shape-rendering="crispEdges" />
    <polyline points="56.554,280.0433 49.554,280.0433" style="fill:none;stroke:black;stroke-width:1" shape-rendering="crispEdges" />
    <polyline points="56.554,214.9015 49.554,214.9015" style="fill:none;stroke:black;stroke-width:1" shape-rendering="crispEdges" />
    <polyline points="56.554,149.7597 49.554,149.7597" style="fill:none;stroke:black;stroke-width:1" shape-rendering="crispEdges" />
    <polyline points="56.554,84.618 49.554,84.618" style="fill:none;stroke:black;stroke-width:1" shape-rendering="crispEdges" />
    <polyline points="56.554,19.4762 49.554,19.4762" style="fill:none;stroke:black;stroke-width:1" shape-rendering="crispEdges" />
    <text dominant-baseline="hanging" text-anchor="middle" transform="translate(12,341.9603) rotate(-90)" font-family="Segoe UI" font-size="12" font-weight="400" fill="black">f(x)</text>
  </g>
  <defs>
    <clipPath id="clipPath2">
      <rect x="56.554" y="13.0265" width="1208.9435" height="657.8675" />
    </clipPath>
  </defs>
  <g clip-path="url(#clipPath2)">
    <polyline points="78.3083,664.4443 80.3654,664.3994 82.4224,664.354 84.4794,664.3081 86.5364,664.2617 88.5934,664.2149 90.6504,664.1675 92.7074,664.1197 94.7644,664.0713 96.8214,664.0224 98.8785,663.973 100.9355,663.9231 102.9925,663.8726 105.0495,663.8216 107.1065,663.77 109.1635,663.7179 111.2205,663.6651 113.2775,663.6118 115.3345,663.558 117.3916,663.5035 119.4486,663.4484 121.5056,663.3927 123.5626,663.3363 125.6196,663.2794 127.6766,663.2217 129.7336,663.1635 131.7906,663.1045 133.8476,663.0449 135.9047,662.9846 137.9617,662.9237 140.0187,662.862 142.0757,662.7996 144.1327,662.7364 146.1897,662.6726 148.2467,662.6079 150.3037,662.5426 152.3607,662.4764 154.4178,662.4095 156.4748,662.3417 158.5318,662.2732 160.5888,662.2038 162.6458,662.1336 164.7028,662.0625 166.7598,661.9906 168.8168,661.9178 170.8738,661.8441 172.9308,661.7695 174.9879,661.694 177.0449,661.6175 179.1019,661.5401 181.1589,661.4617 183.2159,661.3823 185.2729,661.302 187.3299,661.2206 189.3869,661.1382 191.4439,661.0547 193.501,660.9701 195.558,660.8845 197.5562,660.8003 199.5544,660.715 201.5527,660.6286 203.5509,660.5411 205.5492,660.4525 207.5474,660.3627 209.5456,660.2718 211.5439,660.1798 213.5421,660.0865 215.5404,659.992 217.5386,659.8963 219.5368,659.7993 221.5351,659.7011 223.5333,659.6015 225.5316,659.5006 227.5298,659.3984 229.528,659.2947 231.5263,659.1897 233.5245,659.0833 235.5228,658.9754 237.521,658.8661 239.5192,658.7552 241.5175,658.6428 243.5157,658.5288 245.5139,658.4133 247.5122,658.2961 249.5104,658.1773 251.5087,658.0569 253.5069,657.9347 255.5051,657.8108 257.5034,657.6851 259.5016,657.5575 261.4999,657.4282 263.4981,657.297 265.4963,657.1638 267.4946,657.0287 269.4928,656.8916 271.4911,656.7525 273.4893,656.6114 275.4875,656.4681 277.4858,656.3226 279.484,656.175 281.4823,656.0251 283.4805,655.873 285.4787,655.7185 287.477,655.5616 289.4752,655.4024 291.4734,655.2406 293.4717,655.0763 295.4699,654.9095 297.4682,654.74 299.4664,654.5678 301.4646,654.3929 303.4629,654.2152 305.4611,654.0346 307.4594,653.8511 309.4576,653.6646 311.4558,653.4751 313.4541,653.2824 315.4523,653.0866 317.4506,652.8875 319.4488,652.6851 321.447,652.4792 323.4453,652.27 325.4435,652.0571 327.4418,651.8406 329.44,651.6204 331.4382,651.3965 333.4365,651.1686 335.4347,650.9367 337.433,650.7008 339.4312,650.4607 341.4294,650.2164 343.4277,649.9677 345.4259,649.7145 347.4241,649.4568 349.4224,649.1944 351.4206,648.9272 353.4189,648.6551 355.4171,648.3779 357.4153,648.0956 359.4136,647.8081 361.4118,647.5151 363.4101,647.2166 365.4083,646.9124 367.4065,646.6024 369.4048,646.2864 371.403,645.9643 373.4013,645.6359 375.3995,645.3011 377.3977,644.9596 379.396,644.6114 381.3942,644.2562 383.3925,643.8939 385.3907,643.5242 387.3889,643.147 389.3872,642.7621 391.3854,642.3692 393.3836,641.9682 395.3819,641.5588 397.3801,641.1408 399.3784,640.7139 401.3766,640.278 403.3748,639.8326 405.3731,639.3777 407.3713,638.9128 409.3696,638.4378 411.3678,637.9523 413.366,637.4561 415.3055,636.9638 417.245,636.4608 419.1844,635.9467 421.1239,635.4212 423.0634,634.8841 425.0028,634.3349 426.9423,633.7733 428.8818,633.1989 430.8212,632.6113 432.7607,632.0103 434.7002,631.3952 436.6396,630.7658 438.5791,630.1215 440.5186,629.462 442.4581,628.7867 444.3975,628.0951 446.2782,627.4085 448.1589,626.7057 450.0396,625.9861 451.9203,625.2492 453.801,624.4945 455.6817,623.7214 457.5624,622.9294 459.4431,622.1177 461.3238,621.2859 463.1457,620.4602 464.9676,619.6143 466.7896,618.7476 468.6115,617.8594 470.4334,616.949 472.2553,616.0156 474.0772,615.0586 475.8404,614.1092 477.6036,613.1362 479.3667,612.1388 481.1299,611.1162 482.893,610.0676 484.6562,608.9921 486.3605,607.9262 488.0649,606.8335 489.7693,605.7131 491.4737,604.5643 493.1193,603.4271 494.7649,602.2615 496.4105,601.0668 498.0561,599.8418 499.7017,598.5857 501.2886,597.3441 502.8754,596.0715 504.4622,594.7671 506.0491,593.4299 507.5771,592.1101 509.1052,590.758 510.6333,589.3724 512.1026,588.0076 513.5719,586.6099 515.0411,585.1784 516.5104,583.7121 517.921,582.2705 519.3315,580.7949 520.742,579.2842 522.0938,577.8024 523.4455,576.2865 524.7973,574.7354 526.149,573.1481 527.442,571.595 528.735,570.0069 530.0279,568.3827 531.2621,566.7979 532.4964,565.1784 533.7306,563.5234 534.9648,561.8318 536.1402,560.1859 537.3156,558.505 538.4911,556.7883 539.6077,555.1235 540.7244,553.4246 541.8411,551.6908 542.9577,549.9214 544.0156,548.2113 545.0735,546.4675 546.1314,544.6894 547.1893,542.8759 548.1884,541.1301 549.1875,539.3514 550.1867,537.539 551.1858,535.6922 552.1261,533.9219 553.0665,532.1198 554.0068,530.2851 554.9472,528.4173 555.8875,526.5155 556.7691,524.7012 557.6507,522.8558 558.5322,520.9788 559.4138,519.0694 560.2954,517.1272 561.1182,515.2842 561.941,513.4113 562.7638,511.5081 563.5866,509.5741 564.4094,507.6085 565.1734,505.7547 565.9375,503.8727 566.7015,501.9622 567.4655,500.0226 568.2296,498.0535 568.9936,496.0543 569.6989,494.1818 570.4041,492.2829 571.1094,490.3571 571.8147,488.404 572.5199,486.4233 573.2252,484.4145 573.9304,482.3772 574.5769,480.4842 575.2234,478.5666 575.8699,476.6239 576.5164,474.656 577.1629,472.6623 577.8094,470.6427 578.4559,468.5966 579.1023,466.5238 579.7488,464.424 580.3366,462.4912 580.9243,460.5356 581.512,458.5567 582.0997,456.5543 582.6874,454.5282 583.2751,452.478 583.8629,450.4036 584.4506,448.3046 585.0383,446.1807 585.5672,444.2477 586.0962,442.2943 586.6251,440.32 587.1541,438.3248 587.683,436.3085 588.212,434.2709 588.7409,432.2117 589.2699,430.1307 589.7988,428.0278 590.3277,425.9028 590.8567,423.7555 591.3856,421.5856 591.8558,419.6378 592.326,417.6719 592.7962,415.6878 593.2663,413.6854 593.7365,411.6645 594.2067,409.625 594.6769,407.5668 595.147,405.4897 595.6172,403.3937 596.0874,401.2786 596.5576,399.1443 597.0277,396.9906 597.4979,394.8176 597.9681,392.625 598.4382,390.4127 598.9084,388.1807 599.3198,386.2114 599.7312,384.2269 600.1426,382.227 600.554,380.2117 600.9654,378.181 601.3768,376.1348 601.7882,374.073 602.1996,371.9957 602.611,369.9027 603.0224,367.7939 603.4338,365.6695 603.8452,363.5292 604.2567,361.3732 604.6681,359.2013 605.0795,357.0135 605.4909,354.8099 605.9023,352.5903 606.3137,350.3547 606.7251,348.1033 607.1365,345.8359 607.5479,343.5525 607.9005,341.5826 608.2531,339.601 608.6058,337.6077 608.9584,335.6026 609.311,333.5859 609.6637,331.5575 610.0163,329.5174 610.3689,327.4657 610.7215,325.4024 611.0742,323.3275 611.4268,321.241 611.7794,319.143 612.1321,317.0335 612.4847,314.9126 612.8373,312.7803 613.19,310.6366 613.5426,308.4816 613.8952,306.3154 614.2478,304.1379 614.6005,301.9494 614.9531,299.7498 615.3057,297.5392 615.6584,295.3178 616.011,293.0855 616.3636,290.8425 616.7163,288.5888 617.0689,286.3246 617.4215,284.05 617.7742,281.765 618.1268,279.4699 618.4794,277.1646 618.832,274.8493 619.1847,272.5242 619.5373,270.1894 619.8899,267.845 620.2426,265.4912 620.5952,263.1281 620.9478,260.7559 621.2417,258.7722 621.5355,256.7824 621.8294,254.7866 622.1233,252.7849 622.4171,250.7773 622.711,248.7641 623.0048,246.7453 623.2987,244.721 623.5926,242.6914 623.8864,240.6565 624.1803,238.6166 624.4741,236.5717 624.768,234.522 625.0618,232.4676 625.3557,230.4087 625.6496,228.3454 625.9434,226.2778 626.2373,224.2062 626.5311,222.1306 626.825,220.0512 627.1189,217.9682 627.4127,215.8818 627.7066,213.792 628.0004,211.6992 628.2943,209.6035 628.5882,207.5051 628.882,205.404 629.1759,203.3007 629.4697,201.1952 629.7636,199.0877 630.0574,196.9784 630.3513,194.8676 630.6452,192.7555 630.939,190.6422 631.2329,188.5281 631.5267,186.4132 631.8206,184.2979 632.1145,182.1824 632.4083,180.0669 632.7022,177.9517 632.996,175.837 633.2899,173.723 633.5837,171.61 633.8776,169.4983 634.1715,167.3881 634.4653,165.2797 634.7592,163.1733 635.053,161.0693 635.3469,158.9679 635.6408,156.8693 635.9346,154.774 636.2285,152.682 636.5223,150.5939 636.8162,148.5098 637.1101,146.43 637.4039,144.3549 637.6978,142.2848 637.9916,140.2199 638.2855,138.1606 638.5793,136.1073 638.8732,134.0601 639.1671,132.0196 639.4609,129.9859 639.7548,127.9594 640.0486,125.9405 640.3425,123.9295 640.6364,121.9267 640.9302,119.9324 641.2241,117.9472 641.5767,115.5771 641.9293,113.221 642.282,110.8795 642.6346,108.5532 642.9872,106.2428 643.3399,103.9488 643.6925,101.6719 644.0451,99.4127 644.3977,97.1719 644.7504,94.9502 645.103,92.7481 645.4556,90.5663 645.8083,88.4055 646.1609,86.2664 646.5135,84.1495 646.8662,82.0556 647.2188,79.9852 647.5714,77.9392 647.9241,75.918 648.2767,73.9224 648.6293,71.953 649.0407,69.6894 649.4521,67.4634 649.8635,65.276 650.2749,63.1283 650.6863,61.0213 651.0977,58.956 651.5091,56.9333 651.9205,54.9543 652.3907,52.7473 652.8609,50.6001 653.3311,48.5139 653.8012,46.4904 654.2714,44.5307 654.8003,42.4041 655.3293,40.3619 655.8582,38.4059 656.446,36.3358 657.0337,34.3764 657.6802,32.3517 658.3854,30.3022 659.0907,28.422 659.9135,26.4465 660.7951,24.5955 661.7942,22.8357 663.0284,21.1661 664.6152,19.8512 666.6135,19.5413 668.3766,20.5168 669.7284,22.0514 670.845,23.8271 671.7854,25.6729 672.6082,27.5463 673.3722,29.498 674.0775,31.4774 674.724,33.439 675.3705,35.5386 675.9582,37.5647 676.5459,39.7003 677.0748,41.7139 677.6038,43.8126 678.1327,45.9944 678.6029,48.0021 679.0731,50.0727 679.5433,52.2048 680.0134,54.397 680.4248,56.3634 680.8362,58.3737 681.2476,60.4269 681.659,62.5221 682.0704,64.6583 682.4818,66.8345 682.8932,69.0495 683.3046,71.3025 683.716,73.5923 684.0687,75.5836 684.4213,77.6005 684.7739,79.6425 685.1266,81.7089 685.4792,83.7989 685.8318,85.912 686.1845,88.0475 686.5371,90.2047 686.8897,92.383 687.2423,94.5818 687.595,96.8003 687.9476,99.0379 688.3002,101.2941 688.6529,103.5681 689.0055,105.8593 689.3581,108.167 689.7108,110.4907 690.0634,112.8297 690.416,115.1834 690.7687,117.5512 691.0625,119.5347 691.3564,121.5271 691.6502,123.5282 691.9441,125.5376 692.2379,127.555 692.5318,129.58 692.8257,131.6123 693.1195,133.6515 693.4134,135.6973 693.7072,137.7495 694.0011,139.8076 694.295,141.8714 694.5888,143.9405 694.8827,146.0146 695.1765,148.0935 695.4704,150.1767 695.7643,152.2641 696.0581,154.3553 696.352,156.45 696.6458,158.5479 696.9397,160.6488 697.2335,162.7523 697.5274,164.8582 697.8213,166.9663 698.1151,169.0761 698.409,171.1876 698.7028,173.3003 698.9967,175.4141 699.2906,177.5287 699.5844,179.6439 699.8783,181.7593 700.1721,183.8749 700.466,185.9902 700.7598,188.1052 701.0537,190.2195 701.3476,192.3329 701.6414,194.4453 701.9353,196.5564 702.2291,198.6659 702.523,200.7738 702.8169,202.8797 703.1107,204.9836 703.4046,207.085 703.6984,209.184 703.9923,211.2803 704.2862,213.3737 704.58,215.4641 704.8739,217.5512 705.1677,219.6349 705.4616,221.715 705.7554,223.7914 706.0493,225.8638 706.3432,227.9322 706.637,229.9964 706.9309,232.0562 707.2247,234.1115 707.5186,236.1622 707.8125,238.208 708.1063,240.249 708.4002,242.2848 708.694,244.3155 708.9879,246.3408 709.2818,248.3608 709.5756,250.3751 709.8695,252.3838 710.1633,254.3867 710.4572,256.3837 710.751,258.3747 711.0449,260.3597 711.3388,262.3384 711.6914,264.7045 712.044,267.0615 712.3967,269.409 712.7493,271.747 713.1019,274.0754 713.4545,276.3939 713.8072,278.7026 714.1598,281.0011 714.5124,283.2895 714.8651,285.5676 715.2177,287.8353 715.5703,290.0924 715.923,292.339 716.2756,294.5749 716.6282,296.8 716.9808,299.0142 717.3335,301.2174 717.6861,303.4097 718.0387,305.5908 718.3914,307.7608 718.744,309.9195 719.0966,312.067 719.4493,314.2031 719.8019,316.3278 720.1545,318.4411 720.5072,320.543 720.8598,322.6333 721.2124,324.7121 721.565,326.7793 721.9177,328.8348 722.2703,330.8788 722.6229,332.9111 722.9756,334.9317 723.3282,336.9406 723.6808,338.9378 724.0335,340.9234 724.3861,342.8971 724.7975,345.1851 725.2089,347.4571 725.6203,349.7131 726.0317,351.9532 726.4431,354.1773 726.8545,356.3855 727.2659,358.5778 727.6773,360.7543 728.0887,362.9148 728.5001,365.0596 728.9115,367.1886 729.3229,369.3018 729.7343,371.3993 730.1457,373.4811 730.5571,375.5473 730.9685,377.598 731.3799,379.6331 731.7913,381.6528 732.2027,383.657 732.6141,385.646 733.0255,387.6196 733.4369,389.578 733.9071,391.7977 734.3773,393.9976 734.8475,396.178 735.3176,398.3389 735.7878,400.4805 736.258,402.6028 736.7282,404.7059 737.1983,406.7901 737.6685,408.8554 738.1387,410.9019 738.6088,412.9297 739.079,414.9391 739.5492,416.93 740.0194,418.9027 740.4895,420.8573 741.0185,423.0347 741.5474,425.1895 742.0764,427.322 742.6053,429.4322 743.1343,431.5204 743.6632,433.5869 744.1922,435.6317 744.7211,437.6551 745.2501,439.6573 745.779,441.6385 746.3079,443.5989 746.8369,445.5386 747.4246,447.67 748.0123,449.7765 748.6,451.8582 749.1878,453.9157 749.7755,455.949 750.3632,457.9584 750.9509,459.9443 751.5386,461.907 752.1263,463.8466 752.7141,465.7634 753.3606,467.846 754.007,469.9017 754.6535,471.9309 755.3,473.934 755.9465,475.9113 756.593,477.8631 757.2395,479.7898 757.886,481.6917 758.5912,483.7386 759.2965,485.7569 760.0018,487.7469 760.707,489.7091 761.4123,491.6439 762.1175,493.5518 762.8228,495.4331 763.5868,497.4416 764.3509,499.4199 765.1149,501.3685 765.8789,503.288 766.643,505.1786 767.407,507.0411 768.2298,509.0157 769.0526,510.9587 769.8754,512.8707 770.6982,514.7521 771.521,516.6036 772.4026,518.5548 773.2842,520.4728 774.1658,522.3584 775.0473,524.2121 775.9289,526.0347 776.8693,527.945 777.8096,529.8213 778.7499,531.6642 779.6903,533.4744 780.6306,535.2526 781.6298,537.1076 782.6289,538.928 783.628,540.7146 784.6271,542.4681 785.685,544.2895 786.7429,546.0754 787.8008,547.8267 788.8587,549.5442 789.9754,551.3213 791.092,553.0625 792.2087,554.7686 793.3253,556.4406 794.5008,558.1646 795.6762,559.8525 796.8516,561.5053 798.0271,563.1239 799.2613,564.7876 800.4955,566.4155 801.7297,568.0085 803.0227,569.6409 804.3157,571.2372 805.6086,572.7981 806.9016,574.3248 808.2534,575.8853 809.6051,577.4103 810.9569,578.9009 812.3674,580.4206 813.7779,581.9049 815.1884,583.3548 816.6577,584.8297 818.127,586.2695 819.5963,587.6752 821.0656,589.0478 822.5937,590.4412 824.1217,591.801 825.6498,593.1281 827.1779,594.4236 828.7647,595.7364 830.3515,597.0171 831.9384,598.2667 833.5252,599.4862 835.1708,600.7199 836.8164,601.9232 838.462,603.097 840.1076,604.2422 841.812,605.3991 843.5164,606.5272 845.2208,607.6274 846.9252,608.7007 848.6295,609.7478 850.3927,610.8044 852.1559,611.8347 853.919,612.8396 855.6822,613.8198 857.4453,614.7762 859.2672,615.7403 861.0892,616.6804 862.9111,617.5974 864.733,618.492 866.5549,619.3649 868.3769,620.2168 870.1988,621.0483 872.0795,621.8859 873.9602,622.7031 875.8409,623.5006 877.7216,624.2789 879.6023,625.0387 881.4829,625.7806 883.3636,626.505 885.2443,627.2125 887.125,627.9036 889.0645,628.5997 891.004,629.2794 892.9434,629.9432 894.8829,630.5916 896.8224,631.225 898.7618,631.8439 900.7013,632.4488 902.6408,633.04 904.5802,633.6179 906.5197,634.183 908.4592,634.7355 910.3986,635.2759 912.3381,635.8045 914.2776,636.3217 916.217,636.8277 918.1565,637.3229 920.1548,637.822 922.153,638.3103 924.1512,638.7881 926.1495,639.2556 928.1477,639.7132 930.146,640.161 932.1442,640.5994 934.1424,641.0287 936.1407,641.449 938.1389,641.8607 940.1371,642.2639 942.1354,642.6589 944.1336,643.0459 946.1319,643.4251 948.1301,643.7968 950.1283,644.161 952.1266,644.5181 954.1248,644.8681 956.1231,645.2113 958.1213,645.5479 960.1195,645.878 962.1178,646.2017 964.116,646.5193 966.1143,646.8309 968.1125,647.1366 970.1107,647.4366 972.109,647.731 974.1072,648.02 976.1055,648.3037 978.1037,648.5822 980.1019,648.8556 982.1002,649.1241 984.0984,649.3878 986.0966,649.6467 988.0949,649.9011 990.0931,650.151 992.0914,650.3965 994.0896,650.6377 996.0878,650.8747 998.0861,651.1076 1000.0843,651.3365 1002.0826,651.5615 1004.0808,651.7827 1006.079,652.0002 1008.0773,652.214 1010.0755,652.4242 1012.0738,652.6309 1014.072,652.8342 1016.0702,653.0342 1018.0685,653.2309 1020.0667,653.4244 1022.065,653.6147 1024.0632,653.802 1026.0614,653.9863 1028.0597,654.1676 1030.0579,654.3461 1032.0561,654.5218 1034.0544,654.6947 1036.0526,654.8649 1038.0509,655.0324 1040.0491,655.1974 1042.0473,655.3598 1044.0456,655.5197 1046.0438,655.6772 1048.0421,655.8323 1050.0403,655.9851 1052.0385,656.1355 1054.0368,656.2838 1056.035,656.4298 1058.0333,656.5736 1060.0315,656.7154 1062.0297,656.855 1064.028,656.9926 1066.0262,657.1282 1068.0245,657.2619 1070.0227,657.3936 1072.0209,657.5235 1074.0192,657.6515 1076.0174,657.7777 1078.0156,657.902 1080.0139,658.0247 1082.0121,658.1456 1084.0104,658.2649 1086.0086,658.3824 1088.0068,658.4984 1090.0051,658.6128 1092.0033,658.7256 1094.0016,658.8369 1095.9998,658.9466 1097.998,659.0549 1099.9963,659.1617 1101.9945,659.2671 1103.9928,659.3711 1105.991,659.4737 1107.9892,659.5749 1109.9875,659.6748 1111.9857,659.7734 1113.984,659.8707 1115.9822,659.9668 1117.9804,660.0616 1119.9787,660.1552 1121.9769,660.2476 1123.9751,660.3388 1125.9734,660.4288 1127.9716,660.5177 1129.9699,660.6055 1131.9681,660.6922 1133.9663,660.7778 1135.9646,660.8623 1138.0216,660.9482 1140.0786,661.0331 1142.1356,661.1168 1144.1926,661.1995 1146.2496,661.2811 1148.3067,661.3618 1150.3637,661.4414 1152.4207,661.52 1154.4777,661.5977 1156.5347,661.6744 1158.5917,661.7502 1160.6487,661.825 1162.7057,661.8989 1164.7627,661.972 1166.8197,662.0441 1168.8768,662.1154 1170.9338,662.1858 1172.9908,662.2554 1175.0478,662.3242 1177.1048,662.3921 1179.1618,662.4593 1181.2188,662.5256 1183.2758,662.5912 1185.3328,662.656 1187.3899,662.7201 1189.4469,662.7834 1191.5039,662.846 1193.5609,662.9079 1195.6179,662.969 1197.6749,663.0295 1199.7319,663.0893 1201.7889,663.1484 1203.8459,663.2068 1205.903,663.2646 1207.96,663.3217 1210.017,663.3782 1212.074,663.4341 1214.131,663.4894 1216.188,663.544 1218.245,663.598 1220.302,663.6515 1222.359,663.7044 1224.4161,663.7567 1226.4731,663.8084 1228.5301,663.8596 1230.5871,663.9102 1232.6441,663.9603 1234.7011,664.0098 1236.7581,664.0588 1238.8151,664.1073 1240.8721,664.1553 1242.9292,664.2028 1244.9862,664.2497 1247.0432,664.2962 1249.1002,664.3422 1251.1572,664.3878 1253.2142,664.4328 1253.7432,664.4443" style="fill:none;stroke:rgb(78,154,6);stroke-width:2;stroke-linejoin:bevel" />
  </g>
  <defs>
    <clipPath id="clipPath3">
      <rect x="0" y="0" width="1280" height="720" />
    </clipPath>
  </defs>
  <g clip-path="url(#clipPath3)">
    <rect x="56.554" y="13.0265" width="1208.9435" height="657.8675" style="fill:none;stroke:black;stroke-width:1" shape-rendering="crispEdges" />
  </g>
</svg>