<?xml version="1.0" encoding="utf-8" standalone="no"?>
<!DOCTYPE svg PUBLIC "-//W3C//DTD SVG 1.1//EN" "http://www.w3.org/Graphics/SVG/1.1/DTD/svg11.dtd">
<svg width="1280" height="720" version="1.1" xmlns:xlink="http://www.w3.org/1999/xlink" xmlns="http://www.w3.org/2000/svg">
  <defs>
    <clipPath id="clipPath1">
      <rect x="0" y="0" width="1280" height="720" />
    </clipPath>
  </defs>
  <g clip-path="url(#clipPath1)">
    <polyline points="110.5884,670.894 110.5884,674.894" style="fill:none;stroke:black;stroke-width:1" shape-rendering="crispEdges" />
    <polyline points="139.9008,670.894 139.9008,674.894" style="fill:none;stroke:black;stroke-width:1" shape-rendering="crispEdges" />
    <polyline points="169.2132,670.894 169.2132,674.894" style="fill:none;stroke:black;stroke-width:1" shape-rendering="crispEdges" />
    <polyline points="227.838,670.894 227.838,674.894" style="fill:none;stroke:black;stroke-width:1" shape-rendering="crispEdges" />
    <polyline points="257.1505,670.894 257.1505,674.894" style="fill:none;stroke:black;stroke-width:1" shape-rendering="crispEdges" />
    <polyline points="286.4629,670.894 286.4629,674.894" style="fill:none;stroke:black;stroke-width:1" shape-rendering="crispEdges" />
    <polyline points="345.0877,670.894 345.0877,674.894" style="fill:none;stroke:black;stroke-width:1" shape-rendering="crispEdges" />
    <polyline points="374.4001,670.894 374.4001,674.894" style="fill:none;stroke:black;stroke-width:1" shape-rendering="crispEdges" />
    <polyline points="403.7125,670.894 403.7125,674.894" style="fill:none;stroke:black;stroke-width:1" shape-rendering="crispEdges" />
    <polyline points="462.3374,670.894 462.3374,674.894" style="fill:none;stroke:black;stroke-width:1" shape-rendering="crispEdges" />
    <polyline points="491.6498,670.894 491.6498,674.894" style="fill:none;stroke:black;stroke-width:1" shape-rendering="crispEdges" />
    <polyline points="520.9622,670.894 520.9622,674.894" style="fill:none;stroke:black;stroke-width:1" shape-rendering="crispEdges" />
    <polyline points="579.587,670.894 579.587,674.894" style="fill:none;stroke:black;stroke-width:1" shape-rendering="crispEdges" />
    <polyline points="608.8994,670.894 608.8994,674.894" style="fill:none;stroke:black;stroke-width:1" shape-rendering="crispEdges" />
    <polyline points="638.2118,670.894 638.2118,674.894" style="fill:none;stroke:black;stroke-width:1" shape-rendering="crispEdges" />
    <polyline points="696.8367,670.894 696.8367,674.894" style="fill:none;stroke:black;stroke-width:1" shape-rendering="crispEdges" />
    <polyline points="726.1491,670.894 726.1491,674.894" style="fill:none;stroke:black;stroke-width:1" shape-rendering="crispEdges" />
    <polyline points="755.4615,670.894 755.4615,674.894" style="fill:none;stroke:black;stroke-width:1" shape-rendering="crispEdges" />
    <polyline points="814.0863,670.894 814.0863,674.894" style="fill:none;stroke:black;stroke-width:1" shape-rendering="crispEdges" />
    <polyline points="843.3987,670.894 843.3987,674.894" style="fill:none;stroke:black;stroke-width:1" shape-rendering="crispEdges" />
    <polyline points="872.7111,670.894 872.7111,674.894" style="fill:none;stroke:black;stroke-width:1" shape-rendering="crispEdges" />
    <polyline points="931.336,670.894 931.336,674.894" style="fill:none;stroke:black;stroke-width:1" shape-rendering="crispEdges" />
    <polyline points="960.6484,670.894 960.6484,674.894" style="fill:none;stroke:black;stroke-width:1" shape-rendering="crispEdges" />
    <polyline points="989.9608,670.894 989.9608,674.894" style="fill:none;stroke:black;stroke-width:1" shape-rendering="crispEdges" />
    <polyline points="1048.5856,670.894 1048.5856,674.894" style="fill:none;stroke:black;stroke-width:1" shape-rendering="crispEdges" />
    <polyline points="1077.898,670.894 1077.898,674.894" style="fill:none;stroke:black;stroke-width:1" shape-rendering="crispEdges" />
    <polyline points="1107.2105,670.894 1107.2105,674.894" style="fill:none;stroke:black;stroke-width:1" shape-rendering="crispEdges" />
    <polyline points="1165.8353,670.894 1165.8353,674.894" style="fill:none;stroke:black;stroke-width:1" shape-rendering="crispEdges" />
    <polyline points="1195.1477,670.894 1195.1477,674.894" style="fill:none;stroke:black;stroke-width:1" shape-rendering="crispEdges" />
    <polyline points="1224.4601,670.894 1224.4601,674.894" style="fill:none;stroke:black;stroke-width:1" shape-rendering="crispEdges" />
    <polyline points="59.551,648.8525 55.551,648.8525" style="fill:none;stroke:black;stroke-width:1" shape-rendering="crispEdges" />
    <polyline points="59.551,626.9316 55.551,626.9316" style="fill:none;stroke:black;stroke-width:1" shape-rendering="crispEdges" />
    <polyline points="59.551,605.0108 55.551,605.0108" style="fill:none;stroke:black;stroke-width:1" shape-rendering="crispEdges" />
    <polyline points="59.551,583.0899 55.551,583.0899" style="fill:none;stroke:black;stroke-width:1" shape-rendering="crispEdges" />
    <polyline points="59.551,539.2481 55.551,539.2481" style="fill:none;stroke:black;stroke-width:1" shape-rendering="crispEdges" />
    <polyline points="59.551,517.3273 55.551,517.3273" style="fill:none;stroke:black;stroke-width:1" shape-rendering="crispEdges" />
    <polyline points="59.551,495.4064 55.551,495.4064" style="fill:none;stroke:black;stroke-width:1" shape-rendering="crispEdges" />
    <polyline points="59.551,473.4855 55.551,473.4855" style="fill:none;stroke:black;stroke-width:1" shape-rendering="crispEdges" />
    <polyline points="59.551,429.6438 55.551,429.6438" style="fill:none;stroke:black;stroke-width:1" shape-rendering="crispEdges" />
    <polyline points="59.551,407.7229 55.551,407.7229" style="fill:none;stroke:black;stroke-width:1" shape-rendering="crispEdges" />
    <polyline points="59.551,385.802 55.551,385.802" style="fill:none;stroke:black;stroke-width:1" shape-rendering="crispEdges" />
    <polyline points="59.551,363.8811 55.551,363.8811" style="fill:none;stroke:black;stroke-width:1" shape-rendering="crispEdges" />
    <polyline points="59.551,320.0394 55.551,320.0394" style="fill:none;stroke:black;stroke-width:1" shape-rendering="crispEdges" />
    <polyline points="59.551,298.1185 55.551,298.1185" style="fill:none;stroke:black;stroke-width:1" shape-rendering="crispEdges" />
    <polyline points="59.551,276.1976 55.551,276.1976" style="fill:none;stroke:black;stroke-width:1" shape-rendering="crispEdges" />
    <polyline points="59.551,254.2767 55.551,254.2767" style="fill:none;stroke:black;stroke-width:1" shape-rendering="crispEdges" />
    <polyline points="59.551,210.435 55.551,210.435" style="fill:none;stroke:black;stroke-width:1" shape-rendering="crispEdges" />
    <polyline points="59.551,188.5141 55.551,188.5141" style="fill:none;stroke:black;stroke-width:1" shape-rendering="crispEdges" />
    <polyline points="59.551,166.5932 55.551,166.5932" style="fill:none;stroke:black;stroke-width:1" shape-rendering="crispEdges" />
    <polyline points="59.551,144.6724 55.551,144.6724" style="fill:none;stroke:black;stroke-width:1" shape-rendering="crispEdges" />
    <polyline points="59.551,100.8306 55.551,100.8306" style="fill:none;stroke:black;stroke-width:1" shape-rendering="crispEdges" />
    <polyline points="59.551,78.9097 55.551,78.9097" style="fill:none;stroke:black;stroke-width:1" shape-rendering="crispEdges" />
    <polyline points="59.551,56.9889 55.551,56.9889" style="fill:none;stroke:black;stroke-width:1" shape-rendering="crispEdges" />
    <polyline points="59.551,35.068 55.551,35.068" style="fill:none;stroke:black;stroke-width:1" shape-rendering="crispEdges" />
    <text dominant-baseline="hanging" text-anchor="middle" transform="translate(81.276,681.894)" font-family="Segoe UI" font-size="12" font-weight="400" fill="black">-10</text>
    <text dominant-baseline="hanging" text-anchor="middle" transform="translate(198.5256,681.894)" font-family="Segoe UI" font-size="12" font-weight="400" fill="black">-8</text>
    <text dominant-baseline="hanging" text-anchor="middle" transform="translate(315.7753,681.894)" font-family="Segoe UI" font-size="12" font-weight="400" fill="black">-6</text>
    <text dominant-baseline="hanging" text-anchor="middle" transform="translate(433.0249,681.894)" font-family="Segoe UI" font-size="12" font-weight="400" fill="black">-4</text>
    <text dominant-baseline="hanging" text-anchor="middle" transform="translate(550.2746,681.894)" font-family="Segoe UI" font-size="12" font-weight="400" fill="black">-2</text>
    <text dominant-baseline="hanging" text-anchor="middle" transform="translate(667.5243,681.894)" font-family="Segoe UI" font-size="12" font-weight="400" fill="black">0</text>
    <text dominant-baseline="hanging" text-anchor="middle" transform="translate(784.7739,681.894)" font-family="Segoe UI" font-size="12" font-weight="400" fill="black">2</text>
    <text dominant-baseline="hanging" text-anchor="middle" transform="translate(902.0236,681.894)" font-family="Segoe UI" font-size="12" font-weight="400" fill="black">4</text>
    <text dominant-baseline="hanging" text-anchor="middle" transform="translate(1019.2732,681.894)" font-family="Segoe UI" font-size="12" font-weight="400" fill="black">6</text>
    <text dominant-baseline="hanging" text-anchor="middle" transform="translate(1136.5229,681.894)" font-family="Segoe UI" font-size="12" font-weight="400" fill="black">8</text>
    <text dominant-baseline="hanging" text-anchor="middle" transform="translate(1253.7725,681.894)" font-family="Segoe UI" font-size="12" font-weight="400" fill="black">10</text>
    <polyline points="81.276,670.894 81.276,677.894" style="fill:none;stroke:black;stroke-width:1" shape-rendering="crispEdges" />
    <polyline points="198.5256,670.894 198.5256,677.894" style="fill:none;stroke:black;stroke-width:1" shape-rendering="crispEdges" />
    <polyline points="315.7753,670.894 315.7753,677.894" style="fill:none;stroke:black;stroke-width:1" shape-rendering="crispEdges" />
    <polyline points="433.0249,670.894 433.0249,677.894" style="fill:none;stroke:black;stroke-width:1" shape-rendering="crispEdges" />
    <polyline points="550.2746,670.894 550.2746,677.894" style="fill:none;stroke:black;stroke-width:1" shape-rendering="crispEdges" />
    <polyline points="667.5243,670.894 667.5243,677.894" style="fill:none;stroke:black;stroke-width:1" shape-rendering="crispEdges" />
    <polyline points="784.7739,670.894 784.7739,677.894" style="fill:none;stroke:black;stroke-width:1" shape-rendering="crispEdges" />
    <polyline points="902.0236,670.894 902.0236,677.894" style="fill:none;stroke:black;stroke-width:1" shape-rendering="crispEdges" />
    <polyline points="1019.2732,670.894 1019.2732,677.894" style="fill:none;stroke:black;stroke-width:1" shape-rendering="crispEdges" />
    <polyline points="1136.5229,670.894 1136.5229,677.894" style="fill:none;stroke:black;stroke-width:1" shape-rendering="crispEdges" />
    <polyline points="1253.7725,670.894 1253.7725,677.894" style="fill:none;stroke:black;stroke-width:1" shape-rendering="crispEdges" />
    <text dominant-baseline="baseline" text-anchor="middle" transform="translate(662.5243,708)" font-family="Segoe UI" font-size="12" font-weight="400" fill="black">x</text>
    <text dominant-baseline="middle" text-anchor="end" transform="translate(48.551,670.894)" font-family="Segoe UI" font-size="12" font-weight="400" fill="black">-1,5</text>
    <text dominant-baseline="middle" text-anchor="end" transform="translate(48.551,561.169)" font-family="Segoe UI" font-size="12" font-weight="400" fill="black">-1</text>
    <text dominant-baseline="middle" text-anchor="end" transform="translate(48.551,451.5646)" font-family="Segoe UI" font-size="12" font-weight="400" fill="black">-0,5</text>
    <text dominant-baseline="middle" text-anchor="end" transform="translate(48.551,341.9603)" font-family="Segoe UI" font-size="12" font-weight="400" fill="black">0</text>
    <text dominant-baseline="middle" text-anchor="end" transform="translate(48.551,232.3559)" font-family="Segoe UI" font-size="12" font-weight="400" fill="black">0,5</text>
    <text dominant-baseline="middle" text-anchor="end" transform="translate(48.551,122.7515)" font-family="Segoe UI" font-size="12" font-weight="400" fill="black">1</text>
    <text dominant-baseline="middle" text-anchor="end" transform="translate(48.551,13.0265)" font-family="Segoe UI" font-size="12" font-weight="400" fill="black">1,5</text>
    <polyline points="59.551,670.894 52.551,670.894" style="fill:none;stroke:black;stroke-width:1" shape-rendering="crispEdges" />
    <polyline points="59.551,561.169 52.551,561.169" style="fill:none;stroke:black;stroke-width:1" shape-rendering="crispEdges" />
    <polyline points="59.551,451.5646 52.551,451.5646" style="fill:none;stroke:black;stroke-width:1" shape-rendering="crispEdges" />
    <polyline points="59.551,341.9603 52.551,341.9603" style="fill:none;stroke:black;stroke-width:1" shape-rendering="crispEdges" />
    <polyline points="59.551,232.3559 52.551,232.3559" style="fill:none;stroke:black;stroke-width:1" shape-rendering="crispEdges" />
    <polyline points="59.551,122.7515 52.551,122.7515" style="fill:none;stroke:black;stroke-width:1" shape-rendering="crispEdges" />
    <polyline points="59.551,13.0265 52.551,13.0265" style="fill:none;stroke:black;stroke-width:1" shape-rendering="crispEdges" />
    <text dominant-baseline="hanging" text-anchor="middle" transform="translate(12,341.9603) rotate(-90)" font-family="Segoe UI" font-size="12" font-weight="400" fill="black">f(x)</text>
  </g>
  <defs>
    <clipPath id="clipPath2">
      <rect x="59.551" y="13.0265" width="1205.9465" height="657.8675" />
    </clipPath>
  </defs>
  <g clip-path="url(#clipPath2)">
    <polyline points="81.276,664.4443 83.3278,664.3681 85.3797,664.2913 87.4316,664.214 89.4834,664.1362 91.5353,664.0578 93.5872,663.9789 95.639,663.8994 97.6909,663.8193 99.7428,663.7386 101.7947,663.6574 103.8465,663.5756 105.8984,663.4932 107.9503,663.4102 110.0021,663.3266 112.054,663.2424 114.1059,663.1576 116.1577,663.0721 118.2096,662.986 120.2615,662.8993 122.3133,662.8119 124.3652,662.7239 126.4171,662.6352 128.469,662.5459 130.5208,662.4559 132.5727,662.3652 134.6246,662.2738 136.6764,662.1817 138.7283,662.0889 140.7802,661.9954 142.832,661.9011 144.8839,661.8062 146.9358,661.7105 148.9876,661.614 151.0395,661.5168 153.0914,661.4188 155.1432,661.3201 157.1951,661.2205 159.247,661.1202 161.2989,661.0191 163.3507,660.9171 165.4026,660.8144 167.4545,660.7108 169.5063,660.6063 171.5582,660.501 173.6101,660.3949 175.6619,660.2879 177.7138,660.1799 179.7657,660.0711 181.8175,659.9614 183.8694,659.8508 185.9213,659.7392 187.9732,659.6267 190.025,659.5133 192.0769,659.3989 194.1288,659.2835 196.1806,659.1671 198.2325,659.0497 200.2844,658.9313 202.3362,658.8119 204.3881,658.6914 206.44,658.5699 208.4918,658.4473 210.5437,658.3236 212.5956,658.1988 214.6475,658.073 216.6993,657.9459 218.7512,657.8178 220.8031,657.6885 222.8549,657.558 224.9068,657.4263 226.9587,657.2934 229.0105,657.1593 231.0624,657.024 233.1143,656.8874 235.1661,656.7495 237.218,656.6104 239.2699,656.4699 241.3217,656.3281 243.3736,656.1849 245.4255,656.0404 247.4774,655.8945 249.5292,655.7472 251.5811,655.5985 253.633,655.4483 255.6848,655.2967 257.7367,655.1436 259.7886,654.9889 261.8404,654.8328 263.8923,654.6751 265.9442,654.5158 267.996,654.3548 270.0479,654.1923 272.0998,654.0281 274.1517,653.8623 276.2035,653.6947 278.1968,653.5303 280.19,653.3642 282.1833,653.1965 284.1765,653.027 286.1697,652.8558 288.163,652.6829 290.1562,652.5081 292.1495,652.3316 294.1427,652.1532 296.136,651.9729 298.1292,651.7908 300.1225,651.6067 302.1157,651.4207 304.1089,651.2326 306.1022,651.0426 308.0954,650.8505 310.0887,650.6563 312.0819,650.46 314.0752,650.2615 316.0684,650.0609 318.0616,649.858 320.0549,649.6529 322.0481,649.4454 324.0414,649.2356 326.0346,649.0235 328.0279,648.8089 330.0211,648.5918 332.0144,648.3723 334.0076,648.1502 336.0008,647.9255 337.9941,647.6982 339.9873,647.4682 341.9806,647.2354 343.9738,646.9999 345.9671,646.7616 347.9603,646.5204 349.9536,646.2762 351.9468,646.0291 353.94,645.779 355.9333,645.5257 357.9265,645.2693 359.9198,645.0097 361.913,644.7468 363.9063,644.4806 365.8995,644.2111 367.8928,643.938 369.886,643.6614 371.8792,643.3813 373.8725,643.0975 375.8657,642.8099 377.859,642.5186 379.8522,642.2234 381.8455,641.9242 383.8387,641.621 385.8319,641.3136 387.8252,641.0021 389.8184,640.6863 391.8117,640.3661 393.8049,640.0415 395.7982,639.7123 397.7914,639.3785 399.7847,639.0399 401.7779,638.6965 403.7711,638.3481 405.7644,637.9947 407.7576,637.6361 409.7509,637.2722 411.7441,636.903 413.7374,636.5282 415.7306,636.1478 417.7239,635.7616 419.7171,635.3696 421.7103,634.9716 423.7036,634.5673 425.6968,634.1568 427.6901,633.7399 429.6833,633.3164 431.6766,632.8861 433.6698,632.4489 435.6631,632.0046 437.6563,631.5531 439.6495,631.0942 441.6428,630.6277 443.636,630.1534 445.6293,629.6712 447.6225,629.1808 449.6158,628.682 451.609,628.1746 453.6023,627.6585 455.5369,627.1488 457.4715,626.6305 459.4061,626.1033 461.3407,625.5668 463.2753,625.021 465.21,624.4656 467.1446,623.9002 469.0792,623.3247 471.0138,622.7388 472.9484,622.1422 474.8831,621.5347 476.8177,620.9158 478.7523,620.2854 480.6869,619.6431 482.6215,618.9885 484.5562,618.3214 486.4908,617.6414 488.4254,616.9481 490.36,616.2411 492.236,615.5422 494.112,614.8296 495.988,614.1031 497.864,613.3622 499.74,612.6065 501.616,611.8356 503.492,611.0491 505.368,610.2464 507.244,609.4272 509.12,608.5908 510.996,607.7369 512.8133,606.8923 514.6307,606.0302 516.4481,605.1501 518.2654,604.2513 520.0828,603.3334 521.9002,602.3958 523.7175,601.4378 525.5349,600.4588 527.2937,599.4907 529.0524,598.5018 530.8112,597.4914 532.5699,596.4587 534.3286,595.4032 536.0874,594.324 537.7875,593.2577 539.4876,592.1679 541.1877,591.0539 542.8879,589.9149 544.588,588.7503 546.2295,587.6006 547.871,586.4254 549.5125,585.2239 551.154,583.9954 552.7955,582.7388 554.3783,581.4998 555.9612,580.2332 557.5441,578.9381 559.1269,577.6137 560.6512,576.3097 562.1754,574.9768 563.6997,573.6142 565.2239,572.2208 566.6895,570.8513 568.1552,569.4516 569.6208,568.021 571.0864,566.5585 572.4934,565.1237 573.9004,563.6577 575.3074,562.1598 576.7144,560.6289 578.0628,559.1301 579.4111,557.5993 580.7595,556.0357 582.1079,554.4384 583.3976,552.8781 584.6874,551.2853 585.9771,549.6591 587.2082,548.0748 588.4394,546.4586 589.6705,544.8095 590.9016,543.1268 592.0741,541.4923 593.2466,539.8257 594.4191,538.1264 595.5916,536.3936 596.7055,534.7157 597.8193,533.0062 598.9332,531.2644 600.0471,529.4896 601.1023,527.7772 602.1576,526.0338 603.2128,524.259 604.2681,522.4521 605.2647,520.7156 606.2613,518.9493 607.2579,517.1528 608.2545,515.3254 609.2512,513.4668 610.1892,511.6884 611.1272,509.8813 612.0652,508.0451 613.0032,506.1793 613.9412,504.2835 614.8205,502.4786 615.6999,500.6465 616.5793,498.7869 617.4586,496.8996 618.338,494.984 619.2174,493.04 620.0381,491.1995 620.8589,489.3337 621.6796,487.4422 622.5004,485.5249 623.3211,483.5814 624.1419,481.6116 624.904,479.7588 625.6661,477.8829 626.4282,475.9838 627.1904,474.0613 627.9525,472.1154 628.7146,470.1458 629.4767,468.1526 630.2389,466.1355 630.9424,464.2524 631.6459,462.3489 632.3494,460.4249 633.0529,458.4805 633.7563,456.5156 634.4598,454.5301 635.1633,452.5242 635.8668,450.4978 636.5703,448.451 637.2152,446.5568 637.8601,444.6455 638.505,442.7173 639.1498,440.7721 639.7947,438.81 640.4396,436.8312 641.0845,434.8358 641.7293,432.8238 642.3742,430.7954 643.0191,428.7508 643.6639,426.6902 644.3088,424.6136 644.9537,422.5214 645.5399,420.6059 646.1262,418.6778 646.7124,416.7372 647.2987,414.7844 647.8849,412.8194 648.4712,410.8426 649.0574,408.8542 649.6437,406.8543 650.2299,404.8432 650.8162,402.8212 651.4024,400.7885 651.9887,398.7453 652.5749,396.6921 653.1612,394.6289 653.7474,392.5563 654.3337,390.4743 654.9199,388.3834 655.5062,386.284 656.0924,384.1762 656.6787,382.0605 657.2649,379.9372 657.8512,377.8067 658.4374,375.6694 658.965,373.7402 659.4926,371.806 660.0203,369.8672 660.5479,367.924 661.0755,365.9767 661.6031,364.0255 662.1308,362.0708 662.6584,360.113 663.186,358.1522 663.7136,356.1888 664.2413,354.2231 664.7689,352.2555 665.2965,350.2862 665.8241,348.3155 666.3518,346.3438 666.8794,344.3714 667.407,342.3987 667.9346,340.4258 668.4622,338.4532 668.9899,336.4812 669.5175,334.51 670.0451,332.5401 670.5727,330.5717 671.1004,328.6051 671.628,326.6406 672.1556,324.6787 672.6832,322.7194 673.2109,320.7633 673.7385,318.8106 674.2661,316.8615 674.7937,314.9164 675.3214,312.9756 675.849,311.0393 676.3766,309.1079 676.9628,306.9679 677.5491,304.8346 678.1353,302.7084 678.7216,300.5897 679.3078,298.4787 679.8941,296.3758 680.4803,294.2815 681.0666,292.1959 681.6528,290.1195 682.2391,288.0525 682.8253,285.9953 683.4116,283.948 683.9978,281.9111 684.5841,279.8848 685.1703,277.8693 685.7566,275.8649 686.3428,273.8719 686.9291,271.8904 687.5153,269.9207 688.1016,267.963 688.6878,266.0174 689.2741,264.0843 689.8603,262.1638 690.5052,260.0659 691.1501,257.9836 691.7949,255.9171 692.4398,253.8667 693.0847,251.8324 693.7295,249.8145 694.3744,247.813 695.0193,245.8281 695.6642,243.86 696.309,241.9086 696.9539,239.9742 697.5988,238.0567 698.2437,236.1563 698.9472,234.1027 699.6507,232.0695 700.3542,230.0567 701.0577,228.0645 701.7611,226.0927 702.4646,224.1414 703.1681,222.2106 703.8716,220.3003 704.5751,218.4104 705.3373,216.386 706.0994,214.3854 706.8615,212.4086 707.6236,210.4554 708.3858,208.5258 709.1479,206.6195 709.91,204.7364 710.6721,202.8765 711.4929,200.8992 712.3136,198.9482 713.1344,197.0235 713.9551,195.1246 714.7759,193.2515 715.5966,191.4038 716.476,189.4521 717.3554,187.529 718.2347,185.6341 719.1141,183.7672 719.9935,181.9278 720.8728,180.1157 721.8108,178.2123 722.7488,176.3391 723.6868,174.4955 724.6248,172.6812 725.5628,170.8956 726.5595,169.0295 727.5561,167.1949 728.5527,165.3912 729.5493,163.6178 730.5459,161.8743 731.6012,160.0602 732.6564,158.2783 733.7117,156.5281 734.7669,154.8088 735.8808,153.0269 736.9947,151.2782 738.1085,149.562 739.2224,147.8775 740.3949,146.1379 741.5674,144.432 742.7399,142.759 743.9124,141.118 745.1435,139.4289 746.3746,137.7735 747.6058,136.151 748.8369,134.5607 750.1266,132.9284 751.4164,131.3295 752.7061,129.7634 753.9959,128.2291 755.3442,126.6583 756.6926,125.1204 758.041,123.6147 759.448,122.0769 760.855,120.5722 762.262,119.0996 763.669,117.6584 765.1346,116.1894 766.6002,114.7525 768.0658,113.3467 769.5315,111.9712 771.0557,110.5719 772.5799,109.2034 774.1042,107.8648 775.6284,106.5554 777.2113,105.2254 778.7942,103.9249 780.377,102.6531 781.9599,101.4091 783.6014,100.1475 785.2429,98.9139 786.8844,97.7077 788.5259,96.5279 790.1674,95.3737 791.8675,94.2045 793.5676,93.0612 795.2678,91.943 796.9679,90.849 798.668,89.7787 800.4267,88.6955 802.1855,87.6361 803.9442,86.5997 805.703,85.5856 807.4617,84.5931 809.2205,83.6217 811.0378,82.6392 812.8552,81.6778 814.6726,80.737 816.4899,79.8159 818.3073,78.9141 820.1247,78.031 821.942,77.166 823.7594,76.3187 825.6354,75.4619 827.5114,74.6229 829.3874,73.801 831.2634,72.9958 833.1394,72.2067 835.0154,71.4334 836.8914,70.6754 838.7674,69.9322 840.6434,69.2035 842.5194,68.4888 844.3954,67.7877 846.33,67.0786 848.2646,66.3833 850.1992,65.7013 852.1338,65.0322 854.0685,64.3758 856.0031,63.7317 857.9377,63.0995 859.8723,62.4789 861.8069,61.8696 863.7416,61.2714 865.6762,60.6839 867.6108,60.1068 869.5454,59.54 871.48,58.983 873.4146,58.4358 875.3493,57.8979 877.2839,57.3693 879.2185,56.8496 881.1531,56.3387 883.1464,55.8212 885.1396,55.3126 887.1329,54.8125 889.1261,54.3209 891.1193,53.8375 893.1126,53.362 895.1058,52.8944 897.0991,52.4344 899.0923,51.9818 901.0856,51.5365 903.0788,51.0983 905.0721,50.667 907.0653,50.2425 909.0585,49.8246 911.0518,49.4131 913.045,49.008 915.0383,48.609 917.0315,48.2161 919.0248,47.8291 921.018,47.4479 923.0113,47.0723 925.0045,46.7023 926.9977,46.3376 928.991,45.9782 930.9842,45.6241 932.9775,45.275 934.9707,44.9308 936.964,44.5915 938.9572,44.257 940.9504,43.9271 942.9437,43.6018 944.9369,43.281 946.9302,42.9646 948.9234,42.6524 950.9167,42.3445 952.9099,42.0407 954.9032,41.7409 956.8964,41.4451 958.8896,41.1532 960.8829,40.8651 962.8761,40.5807 964.8694,40.3 966.8626,40.0229 968.8559,39.7494 970.8491,39.4793 972.8424,39.2126 974.8356,38.9492 976.8288,38.6891 978.8221,38.4323 980.8153,38.1786 982.8086,37.928 984.8018,37.6804 986.7951,37.4358 988.7883,37.1942 990.7816,36.9554 992.7748,36.7195 994.768,36.4864 996.7613,36.256 998.7545,36.0283 1000.7478,35.8032 1002.741,35.5807 1004.7343,35.3608 1006.7275,35.1434 1008.7208,34.9285 1010.714,34.7159 1012.7072,34.5058 1014.7005,34.298 1016.6937,34.0925 1018.687,33.8893 1020.6802,33.6883 1022.6735,33.4896 1024.6667,33.2929 1026.6599,33.0984 1028.6532,32.906 1030.6464,32.7157 1032.6397,32.5274 1034.6329,32.341 1036.6262,32.1567 1038.6194,31.9742 1040.6127,31.7937 1042.6059,31.615 1044.5991,31.4382 1046.5924,31.2632 1048.5856,31.09 1050.5789,30.9186 1052.5721,30.7488 1054.5654,30.5808 1056.5586,30.4145 1058.5519,30.2498 1060.6037,30.082 1062.6556,29.916 1064.7075,29.7515 1066.7593,29.5888 1068.8112,29.4276 1070.8631,29.2681 1072.9149,29.1102 1074.9668,28.9538 1077.0187,28.7989 1079.0705,28.6456 1081.1224,28.4937 1083.1743,28.3434 1085.2262,28.1944 1087.278,28.0469 1089.3299,27.9008 1091.3818,27.7561 1093.4336,27.6128 1095.4855,27.4708 1097.5374,27.3301 1099.5892,27.1908 1101.6411,27.0527 1103.693,26.916 1105.7448,26.7804 1107.7967,26.6462 1109.8486,26.5131 1111.9004,26.3813 1113.9523,26.2506 1116.0042,26.1211 1118.0561,25.9928 1120.1079,25.8656 1122.1598,25.7396 1124.2117,25.6146 1126.2635,25.4908 1128.3154,25.3681 1130.3673,25.2464 1132.4191,25.1258 1134.471,25.0062 1136.5229,24.8876 1138.5747,24.7701 1140.6266,24.6536 1142.6785,24.5381 1144.7304,24.4235 1146.7822,24.3099 1148.8341,24.1973 1150.886,24.0856 1152.9378,23.9748 1154.9897,23.865 1157.0416,23.756 1159.0934,23.648 1161.1453,23.5409 1163.1972,23.4346 1165.249,23.3292 1167.3009,23.2246 1169.3528,23.1209 1171.4047,23.018 1173.4565,22.9159 1175.5084,22.8147 1177.5603,22.7143 1179.6121,22.6146 1181.664,22.5157 1183.7159,22.4177 1185.7677,22.3203 1187.8196,22.2238 1189.8715,22.128 1191.9233,22.0329 1193.9752,21.9386 1196.0271,21.8449 1198.0789,21.752 1200.1308,21.6598 1202.1827,21.5683 1204.2346,21.4775 1206.2864,21.3874 1208.3383,21.298 1210.3902,21.2092 1212.442,21.1211 1214.4939,21.0336 1216.5458,20.9468 1218.5976,20.8606 1220.6495,20.7751 1222.7014,20.6902 1224.7532,20.6059 1226.8051,20.5222 1228.857,20.4391 1230.9089,20.3566 1232.9607,20.2747 1235.0126,20.1934 1237.0645,20.1127 1239.1163,20.0325 1241.1682,19.953 1243.2201,19.8739 1245.2719,19.7955 1247.3238,19.7176 1249.3757,19.6402 1251.4275,19.5633 1253.4794,19.487 1253.7725,19.4762" style="fill:none;stroke:rgb(78,154,6);stroke-width:2;stroke-linejoin:bevel" />
  </g>
  <defs>
    <clipPath id="clipPath3">
      <rect x="0" y="0" width="1280" height="720" />
    </clipPath>
  </defs>
  <g clip-path="url(#clipPath3)">
    <rect x="59.551" y="13.0265" width="1205.9465" height="657.8675" style="fill:none;stroke:black;stroke-width:1" shape-rendering="crispEdges" />
  </g>
</svg>