<?xml version="1.0" encoding="utf-8" standalone="no"?>
<!DOCTYPE svg PUBLIC "-//W3C//DTD SVG 1.1//EN" "http://www.w3.org/Graphics/SVG/1.1/DTD/svg11.dtd">
<svg width="1280" height="720" version="1.1" xmlns:xlink="http://www.w3.org/1999/xlink" xmlns="http://www.w3.org/2000/svg">
  <defs>
    <clipPath id="clipPath1">
      <rect x="0" y="0" width="1280" height="720" />
    </clipPath>
  </defs>
  <g clip-path="url(#clipPath1)">
    <polyline points="61.1194,670.894 61.1194,674.894" style="fill:none;stroke:black;stroke-width:1" shape-rendering="crispEdges" />
    <polyline points="90.5358,670.894 90.5358,674.894" style="fill:none;stroke:black;stroke-width:1" shape-rendering="crispEdges" />
    <polyline points="105.244,670.894 105.244,674.894" style="fill:none;stroke:black;stroke-width:1" shape-rendering="crispEdges" />
    <polyline points="119.9522,670.894 119.9522,674.894" style="fill:none;stroke:black;stroke-width:1" shape-rendering="crispEdges" />
    <polyline points="134.6604,670.894 134.6604,674.894" style="fill:none;stroke:black;stroke-width:1" shape-rendering="crispEdges" />
    <polyline points="164.0768,670.894 164.0768,674.894" style="fill:none;stroke:black;stroke-width:1" shape-rendering="crispEdges" />
    <polyline points="178.785,670.894 178.785,674.894" style="fill:none;stroke:black;stroke-width:1" shape-rendering="crispEdges" />
    <polyline points="193.4933,670.894 193.4933,674.894" style="fill:none;stroke:black;stroke-width:1" shape-rendering="crispEdges" />
    <polyline points="208.2015,670.894 208.2015,674.894" style="fill:none;stroke:black;stroke-width:1" shape-rendering="crispEdges" />
    <polyline points="237.6179,670.894 237.6179,674.894" style="fill:none;stroke:black;stroke-width:1" shape-rendering="crispEdges" />
    <polyline points="252.3261,670.894 252.3261,674.894" style="fill:none;stroke:black;stroke-width:1" shape-rendering="crispEdges" />
    <polyline points="267.0343,670.894 267.0343,674.894" style="fill:none;stroke:black;stroke-width:1" shape-rendering="crispEdges" />
    <polyline points="281.7425,670.894 281.7425,674.894" style="fill:none;stroke:black;stroke-width:1" shape-rendering="crispEdges" />
    <polyline points="311.1589,670.894 311.1589,674.894" style="fill:none;stroke:black;stroke-width:1" shape-rendering="crispEdges" />
    <polyline points="325.8672,670.894 325.8672,674.894" style="fill:none;stroke:black;stroke-width:1" shape-rendering="crispEdges" />
    <polyline points="340.5754,670.894 340.5754,674.894" style="fill:none;stroke:black;stroke-width:1" shape-rendering="crispEdges" />
    <polyline points="355.2836,670.894 355.2836,674.894" style="fill:none;stroke:black;stroke-width:1" shape-rendering="crispEdges" />
    <polyline points="384.7,670.894 384.7,674.894" style="fill:none;stroke:black;stroke-width:1" shape-rendering="crispEdges" />
    <polyline points="399.4082,670.894 399.4082,674.894" style="fill:none;stroke:black;stroke-width:1" shape-rendering="crispEdges" />
    <polyline points="414.1164,670.894 414.1164,674.894" style="fill:none;stroke:black;stroke-width:1" shape-rendering="crispEdges" />
    <polyline points="428.8246,670.894 428.8246,674.894" style="fill:none;stroke:black;stroke-width:1" shape-rendering="crispEdges" />
    <polyline points="458.241,670.894 458.241,674.894" style="fill:none;stroke:black;stroke-width:1" shape-rendering="crispEdges" />
    <polyline points="472.9493,670.894 472.9493,674.894" style="fill:none;stroke:black;stroke-width:1" shape-rendering="crispEdges" />
    <polyline points="487.6575,670.894 487.6575,674.894" style="fill:none;stroke:black;stroke-width:1" shape-rendering="crispEdges" />
    <polyline points="502.3657,670.894 502.3657,674.894" style="fill:none;stroke:black;stroke-width:1" shape-rendering="crispEdges" />
    <polyline points="531.7821,670.894 531.7821,674.894" style="fill:none;stroke:black;stroke-width:1" shape-rendering="crispEdges" />
    <polyline points="546.4903,670.894 546.4903,674.894" style="fill:none;stroke:black;stroke-width:1" shape-rendering="crispEdges" />
    <polyline points="561.1985,670.894 561.1985,674.894" style="fill:none;stroke:black;stroke-width:1" shape-rendering="crispEdges" />
    <polyline points="575.9067,670.894 575.9067,674.894" style="fill:none;stroke:black;stroke-width:1" shape-rendering="crispEdges" />
    <polyline points="605.3232,670.894 605.3232,674.894" style="fill:none;stroke:black;stroke-width:1" shape-rendering="crispEdges" />
    <polyline points="620.0314,670.894 620.0314,674.894" style="fill:none;stroke:black;stroke-width:1" shape-rendering="crispEdges" />
    <polyline points="634.7396,670.894 634.7396,674.894" style="fill:none;stroke:black;stroke-width:1" shape-rendering="crispEdges" />
    <polyline points="649.4478,670.894 649.4478,674.894" style="fill:none;stroke:black;stroke-width:1" shape-rendering="crispEdges" />
    <polyline points="678.8642,670.894 678.8642,674.894" style="fill:none;stroke:black;stroke-width:1" shape-rendering="crispEdges" />
    <polyline points="693.5724,670.894 693.5724,674.894" style="fill:none;stroke:black;stroke-width:1" shape-rendering="crispEdges" />
    <polyline points="708.2806,670.894 708.2806,674.894" style="fill:none;stroke:black;stroke-width:1" shape-rendering="crispEdges" />
    <polyline points="722.9888,670.894 722.9888,674.894" style="fill:none;stroke:black;stroke-width:1" shape-rendering="crispEdges" />
    <polyline points="752.4053,670.894 752.4053,674.894" style="fill:none;stroke:black;stroke-width:1" shape-rendering="crispEdges" />
    <polyline points="767.1135,670.894 767.1135,674.894" style="fill:none;stroke:black;stroke-width:1" shape-rendering="crispEdges" />
    <polyline points="781.8217,670.894 781.8217,674.894" style="fill:none;stroke:black;stroke-width:1" shape-rendering="crispEdges" />
    <polyline points="796.5299,670.894 796.5299,674.894" style="fill:none;stroke:black;stroke-width:1" shape-rendering="crispEdges" />
    <polyline points="825.9463,670.894 825.9463,674.894" style="fill:none;stroke:black;stroke-width:1" shape-rendering="crispEdges" />
    <polyline points="840.6545,670.894 840.6545,674.894" style="fill:none;stroke:black;stroke-width:1" shape-rendering="crispEdges" />
    <polyline points="855.3627,670.894 855.3627,674.894" style="fill:none;stroke:black;stroke-width:1" shape-rendering="crispEdges" />
    <polyline points="870.071,670.894 870.071,674.894" style="fill:none;stroke:black;stroke-width:1" shape-rendering="crispEdges" />
    <polyline points="899.4874,670.894 899.4874,674.894" style="fill:none;stroke:black;stroke-width:1" shape-rendering="crispEdges" />
    <polyline points="914.1956,670.894 914.1956,674.894" style="fill:none;stroke:black;stroke-width:1" shape-rendering="crispEdges" />
    <polyline points="928.9038,670.894 928.9038,674.894" style="fill:none;stroke:black;stroke-width:1" shape-rendering="crispEdges" />
    <polyline points="943.612,670.894 943.612,674.894" style="fill:none;stroke:black;stroke-width:1" shape-rendering="crispEdges" />
    <polyline points="973.0284,670.894 973.0284,674.894" style="fill:none;stroke:black;stroke-width:1" shape-rendering="crispEdges" />
    <polyline points="987.7366,670.894 987.7366,674.894" style="fill:none;stroke:black;stroke-width:1" shape-rendering="crispEdges" />
    <polyline points="1002.4448,670.894 1002.4448,674.894" style="fill:none;stroke:black;stroke-width:1" shape-rendering="crispEdges" />
    <polyline points="1017.1531,670.894 1017.1531,674.894" style="fill:none;stroke:black;stroke-width:1" shape-rendering="crispEdges" />
    <polyline points="1046.5695,670.894 1046.5695,674.894" style="fill:none;stroke:black;stroke-width:1" shape-rendering="crispEdges" />
    <polyline points="1061.2777,670.894 1061.2777,674.894" style="fill:none;stroke:black;stroke-width:1" shape-rendering="crispEdges" />
    <polyline points="1075.9859,670.894 1075.9859,674.894" style="fill:none;stroke:black;stroke-width:1" shape-rendering="crispEdges" />
    <polyline points="1090.6941,670.894 1090.6941,674.894" style="fill:none;stroke:black;stroke-width:1" shape-rendering="crispEdges" />
    <polyline points="1120.1105,670.894 1120.1105,674.894" style="fill:none;stroke:black;stroke-width:1" shape-rendering="crispEdges" />
    <polyline points="1134.8187,670.894 1134.8187,674.894" style="fill:none;stroke:black;stroke-width:1" shape-rendering="crispEdges" />
    <polyline points="1149.527,670.894 1149.527,674.894" style="fill:none;stroke:black;stroke-width:1" shape-rendering="crispEdges" />
    <polyline points="1164.2352,670.894 1164.2352,674.894" style="fill:none;stroke:black;stroke-width:1" shape-rendering="crispEdges" />
    <polyline points="1193.6516,670.894 1193.6516,674.894" style="fill:none;stroke:black;stroke-width:1" shape-rendering="crispEdges" />
    <polyline points="1208.3598,670.894 1208.3598,674.894" style="fill:none;stroke:black;stroke-width:1" shape-rendering="crispEdges" />
    <polyline points="1223.068,670.894 1223.068,674.894" style="fill:none;stroke:black;stroke-width:1" shape-rendering="crispEdges" />
    <polyline points="1237.7762,670.894 1237.7762,674.894" style="fill:none;stroke:black;stroke-width:1" shape-rendering="crispEdges" />
    <polyline points="54.061,657.2225 50.061,657.2225" style="fill:none;stroke:black;stroke-width:1" shape-rendering="crispEdges" />
    <polyline points="54.061,617.4152 50.061,617.4152" style="fill:none;stroke:black;stroke-width:1" shape-rendering="crispEdges" />
    <polyline points="54.061,597.5115 50.061,597.5115" style="fill:none;stroke:black;stroke-width:1" shape-rendering="crispEdges" />
    <polyline points="54.061,577.6078 50.061,577.6078" style="fill:none;stroke:black;stroke-width:1" shape-rendering="crispEdges" />
    <polyline points="54.061,557.7042 50.061,557.7042" style="fill:none;stroke:black;stroke-width:1" shape-rendering="crispEdges" />
    <polyline points="54.061,517.8969 50.061,517.8969" style="fill:none;stroke:black;stroke-width:1" shape-rendering="crispEdges" />
    <polyline points="54.061,497.9932 50.061,497.9932" style="fill:none;stroke:black;stroke-width:1" shape-rendering="crispEdges" />
    <polyline points="54.061,478.0896 50.061,478.0896" style="fill:none;stroke:black;stroke-width:1" shape-rendering="crispEdges" />
    <polyline points="54.061,458.1859 50.061,458.1859" style="fill:none;stroke:black;stroke-width:1" shape-rendering="crispEdges" />
    <polyline points="54.061,418.3786 50.061,418.3786" style="fill:none;stroke:black;stroke-width:1" shape-rendering="crispEdges" />
    <polyline points="54.061,398.4749 50.061,398.4749" style="fill:none;stroke:black;stroke-width:1" shape-rendering="crispEdges" />
    <polyline points="54.061,378.5713 50.061,378.5713" style="fill:none;stroke:black;stroke-width:1" shape-rendering="crispEdges" />
    <polyline points="54.061,358.6676 50.061,358.6676" style="fill:none;stroke:black;stroke-width:1" shape-rendering="crispEdges" />
    <polyline points="54.061,318.8603 50.061,318.8603" style="fill:none;stroke:black;stroke-width:1" shape-rendering="crispEdges" />
    <polyline points="54.061,298.9567 50.061,298.9567" style="fill:none;stroke:black;stroke-width:1" shape-rendering="crispEdges" />
    <polyline points="54.061,279.053 50.061,279.053" style="fill:none;stroke:black;stroke-width:1" shape-rendering="crispEdges" />
    <polyline points="54.061,259.1494 50.061,259.1494" style="fill:none;stroke:black;stroke-width:1" shape-rendering="crispEdges" />
    <polyline points="54.061,219.3421 50.061,219.3421" style="fill:none;stroke:black;stroke-width:1" shape-rendering="crispEdges" />
    <polyline points="54.061,199.4384 50.061,199.4384" style="fill:none;stroke:black;stroke-width:1" shape-rendering="crispEdges" />
    <polyline points="54.061,179.5347 50.061,179.5347" style="fill:none;stroke:black;stroke-width:1" shape-rendering="crispEdges" />
    <polyline points="54.061,159.6311 50.061,159.6311" style="fill:none;stroke:black;stroke-width:1" shape-rendering="crispEdges" />
    <polyline points="54.061,119.8238 50.061,119.8238" style="fill:none;stroke:black;stroke-width:1" shape-rendering="crispEdges" />
    <polyline points="54.061,99.9201 50.061,99.9201" style="fill:none;stroke:black;stroke-width:1" shape-rendering="crispEdges" />
    <polyline points="54.061,80.0165 50.061,80.0165" style="fill:none;stroke:black;stroke-width:1" shape-rendering="crispEdges" />
    <polyline points="54.061,60.1128 50.061,60.1128" style="fill:none;stroke:black;stroke-width:1" shape-rendering="crispEdges" />
    <polyline points="54.061,20.3055 50.061,20.3055" style="fill:none;stroke:black;stroke-width:1" shape-rendering="crispEdges" />
    <text dominant-baseline="hanging" text-anchor="middle" transform="translate(75.8276,681.894)" font-family="Segoe UI" font-size="12" font-weight="400" fill="black">-3</text>
    <text dominant-baseline="hanging" text-anchor="middle" transform="translate(149.3686,681.894)" font-family="Segoe UI" font-size="12" font-weight="400" fill="black">-2,5</text>
    <text dominant-baseline="hanging" text-anchor="middle" transform="translate(222.9097,681.894)" font-family="Segoe UI" font-size="12" font-weight="400" fill="black">-2</text>
    <text dominant-baseline="hanging" text-anchor="middle" transform="translate(296.4507,681.894)" font-family="Segoe UI" font-size="12" font-weight="400" fill="black">-1,5</text>
    <text dominant-baseline="hanging" text-anchor="middle" transform="translate(369.9918,681.894)" font-family="Segoe UI" font-size="12" font-weight="400" fill="black">-1</text>
    <text dominant-baseline="hanging" text-anchor="middle" transform="translate(443.5328,681.894)" font-family="Segoe UI" font-size="12" font-weight="400" fill="black">-0,5</text>
    <text dominant-baseline="hanging" text-anchor="middle" transform="translate(517.0739,681.894)" font-family="Segoe UI" font-size="12" font-weight="400" fill="black">0</text>
    <text dominant-baseline="hanging" text-anchor="middle" transform="translate(590.6149,681.894)" font-family="Segoe UI" font-size="12" font-weight="400" fill="black">0,5</text>
    <text dominant-baseline="hanging" text-anchor="middle" transform="translate(664.156,681.894)" font-family="Segoe UI" font-size="12" font-weight="400" fill="black">1</text>
    <text dominant-baseline="hanging" text-anchor="middle" transform="translate(737.6971,681.894)" font-family="Segoe UI" font-size="12" font-weight="400" fill="black">1,5</text>
    <text dominant-baseline="hanging" text-anchor="middle" transform="translate(811.2381,681.894)" font-family="Segoe UI" font-size="12" font-weight="400" fill="black">2</text>
    <text dominant-baseline="hanging" text-anchor="middle" transform="translate(884.7792,681.894)" font-family="Segoe UI" font-size="12" font-weight="400" fill="black">2,5</text>
    <text dominant-baseline="hanging" text-anchor="middle" transform="translate(958.3202,681.894)" font-family="Segoe UI" font-size="12" font-weight="400" fill="black">3</text>
    <text dominant-baseline="hanging" text-anchor="middle" transform="translate(1031.8613,681.894)" font-family="Segoe UI" font-size="12" font-weight="400" fill="black">3,5</text>
    <text dominant-baseline="hanging" text-anchor="middle" transform="translate(1105.4023,681.894)" font-family="Segoe UI" font-size="12" font-weight="400" fill="black">4</text>
    <text dominant-baseline="hanging" text-anchor="middle" transform="translate(1178.9434,681.894)" font-family="Segoe UI" font-size="12" font-weight="400" fill="black">4,5</text>
    <text dominant-baseline="hanging" text-anchor="middle" transform="translate(1252.4844,681.894)" font-family="Segoe UI" font-size="12" font-weight="400" fill="black">5</text>
    <polyline points="75.8276,670.894 75.8276,677.894" style="fill:none;stroke:black;stroke-width:1" shape-rendering="crispEdges" />
    <polyline points="149.3686,670.894 149.3686,677.894" style="fill:none;stroke:black;stroke-width:1" shape-rendering="crispEdges" />
    <polyline points="222.9097,670.894 222.9097,677.894" style="fill:none;stroke:black;stroke-width:1" shape-rendering="crispEdges" />
    <polyline points="296.4507,670.894 296.4507,677.894" style="fill:none;stroke:black;stroke-width:1" shape-rendering="crispEdges" />
    <polyline points="369.9918,670.894 369.9918,677.894" style="fill:none;stroke:black;stroke-width:1" shape-rendering="crispEdges" />
    <polyline points="443.5328,670.894 443.5328,677.894" style="fill:none;stroke:black;stroke-width:1" shape-rendering="crispEdges" />
    <polyline points="517.0739,670.894 517.0739,677.894" style="fill:none;stroke:black;stroke-width:1" shape-rendering="crispEdges" />
    <polyline points="590.6149,670.894 590.6149,677.894" style="fill:none;stroke:black;stroke-width:1" shape-rendering="crispEdges" />
    <polyline points="664.156,670.894 664.156,677.894" style="fill:none;stroke:black;stroke-width:1" shape-rendering="crispEdges" />
    <polyline points="737.6971,670.894 737.6971,677.894" style="fill:none;stroke:black;stroke-width:1" shape-rendering="crispEdges" />
    <polyline points="811.2381,670.894 811.2381,677.894" style="fill:none;stroke:black;stroke-width:1" shape-rendering="crispEdges" />
    <polyline points="884.7792,670.894 884.7792,677.894" style="fill:none;stroke:black;stroke-width:1" shape-rendering="crispEdges" />
    <polyline points="958.3202,670.894 958.3202,677.894" style="fill:none;stroke:black;stroke-width:1" shape-rendering="crispEdges" />
    <polyline points="1031.8613,670.894 1031.8613,677.894" style="fill:none;stroke:black;stroke-width:1" shape-rendering="crispEdges" />
    <polyline points="1105.4023,670.894 1105.4023,677.894" style="fill:none;stroke:black;stroke-width:1" shape-rendering="crispEdges" />
    <polyline points="1178.9434,670.894 1178.9434,677.894" style="fill:none;stroke:black;stroke-width:1" shape-rendering="crispEdges" />
    <polyline points="1252.4844,670.894 1252.4844,677.894" style="fill:none;stroke:black;stroke-width:1" shape-rendering="crispEdges" />
    <text dominant-baseline="baseline" text-anchor="middle" transform="translate(659.156,708)" font-family="Segoe UI" font-size="12" font-weight="400" fill="black">x</text>
    <text dominant-baseline="middle" text-anchor="end" transform="translate(43.061,637.3188)" font-family="Segoe UI" font-size="12" font-weight="400" fill="black">0</text>
    <text dominant-baseline="middle" text-anchor="end" transform="translate(43.061,537.8005)" font-family="Segoe UI" font-size="12" font-weight="400" fill="black">5</text>
    <text dominant-baseline="middle" text-anchor="end" transform="translate(43.061,438.2823)" font-family="Segoe UI" font-size="12" font-weight="400" fill="black">10</text>
    <text dominant-baseline="middle" text-anchor="end" transform="translate(43.061,338.764)" font-family="Segoe UI" font-size="12" font-weight="400" fill="black">15</text>
    <text dominant-baseline="middle" text-anchor="end" transform="translate(43.061,239.2457)" font-family="Segoe UI" font-size="12" font-weight="400" fill="black">20</text>
    <text dominant-baseline="middle" text-anchor="end" transform="translate(43.061,139.7274)" font-family="Segoe UI" font-size="12" font-weight="400" fill="black">25</text>
    <text dominant-baseline="middle" text-anchor="end" transform="translate(43.061,40.2092)" font-family="Segoe UI" font-size="12" font-weight="400" fill="black">30</text>
    <polyline points="54.061,637.3188 47.061,637.3188" style="fill:none;stroke:black;stroke-width:1" shape-rendering="crispEdges" />
    <polyline points="54.061,537.8005 47.061,537.8005" style="fill:none;stroke:black;stroke-width:1" shape-rendering="crispEdges" />
    <polyline points="54.061,438.2823 47.061,438.2823" style="fill:none;stroke:black;stroke-width:1" shape-rendering="crispEdges" />
    <polyline points="54.061,338.764 47.061,338.764" style="fill:none;stroke:black;stroke-width:1" shape-rendering="crispEdges" />
    <polyline points="54.061,239.2457 47.061,239.2457" style="fill:none;stroke:black;stroke-width:1" shape-rendering="crispEdges" />
    <polyline points="54.061,139.7274 47.061,139.7274" style="fill:none;stroke:black;stroke-width:1" shape-rendering="crispEdges" />
    <polyline points="54.061,40.2092 47.061,40.2092" style="fill:none;stroke:black;stroke-width:1" shape-rendering="crispEdges" />
    <text dominant-baseline="hanging" text-anchor="middle" transform="translate(12,341.9603) rotate(-90)" font-family="Segoe UI" font-size="12" font-weight="400" fill="black">f(x)</text>
  </g>
  <defs>
    <clipPath id="clipPath2">
      <rect x="54.061" y="13.0265" width="1210.19" height="657.8675" />
    </clipPath>
  </defs>
  <g clip-path="url(#clipPath2)">
    <polyline points="75.8276,629.8549 77.7396,630.753 79.6517,631.6361 81.5638,632.5043 83.4758,633.3577 85.3879,634.1965 87.3,635.0209 89.212,635.8308 91.1241,636.6266 93.0362,637.4082 94.9482,638.1759 96.8603,638.9297 98.7724,639.6698 100.6844,640.3963 102.5965,641.1093 104.5086,641.8089 106.4206,642.4953 108.3327,643.1686 110.2448,643.8289 112.1568,644.4764 114.0689,645.111 115.981,645.7331 117.8931,646.3427 119.8051,646.9398 121.8643,647.5692 123.9234,648.1845 125.9826,648.7859 128.0417,649.3735 130.1009,649.9474 132.16,650.5079 134.2192,651.0549 136.2783,651.5888 138.3375,652.1096 140.3966,652.6174 142.4558,653.1125 144.5149,653.5949 146.5741,654.0647 148.6332,654.5223 150.6924,654.9675 152.7515,655.4007 154.8107,655.8219 156.8698,656.2313 158.929,656.6289 160.9881,657.015 163.0473,657.3897 165.1064,657.7531 167.1656,658.1052 169.2247,658.4464 171.2839,658.7767 173.343,659.0961 175.4022,659.4049 177.4613,659.7032 179.5205,659.9911 181.5796,660.2687 183.6388,660.5362 185.6979,660.7936 187.7571,661.0412 189.8162,661.2789 191.8754,661.507 193.9345,661.7256 195.9937,661.9348 198.0528,662.1346 200.1119,662.3253 202.1711,662.5069 204.2302,662.6796 206.2894,662.8435 208.3485,662.9986 210.4077,663.1452 212.4668,663.2832 214.526,663.4129 216.5851,663.5344 218.6443,663.6477 220.7034,663.753 222.7626,663.8504 224.8217,663.9399 226.8809,664.0218 228.94,664.096 230.9992,664.1628 233.0583,664.2222 235.1175,664.2743 237.1766,664.3193 239.2358,664.3572 241.2949,664.3881 243.3541,664.4122 245.4132,664.4295 247.4724,664.4402 249.5315,664.4443 251.5907,664.4419 253.6498,664.4332 255.709,664.4183 257.7681,664.3971 259.8273,664.37 261.8864,664.3368 263.9456,664.2978 266.0047,664.253 268.0639,664.2025 270.123,664.1465 272.1822,664.0849 274.2413,664.0179 276.3005,663.9456 278.3596,663.8681 280.4188,663.7854 282.4779,663.6977 284.5371,663.6051 286.5962,663.5075 288.6554,663.4052 290.7145,663.2981 292.7737,663.1865 294.8328,663.0703 296.892,662.9496 298.9511,662.8246 301.0103,662.6953 303.0694,662.5618 305.1286,662.4241 307.1877,662.2824 309.2469,662.1368 311.306,661.9872 313.3652,661.8338 315.4243,661.6767 317.4835,661.5159 319.5426,661.3515 321.6018,661.1836 323.6609,661.0123 325.7201,660.8376 327.7792,660.6595 329.8384,660.4783 331.8975,660.2939 333.9567,660.1064 336.0158,659.9158 338.075,659.7223 340.1341,659.526 342.1933,659.3268 344.2524,659.1248 346.3116,658.9202 348.3707,658.7129 350.4299,658.5031 352.489,658.2907 354.5482,658.0759 356.6073,657.8587 358.6665,657.6393 360.7256,657.4175 362.7848,657.1935 364.8439,656.9674 366.9031,656.7392 368.9622,656.509 371.0214,656.2768 373.0805,656.0427 375.1397,655.8067 377.1988,655.5689 379.258,655.3293 381.3171,655.088 383.3763,654.845 385.4354,654.6005 387.4946,654.3543 389.5537,654.1067 391.6129,653.8576 393.672,653.607 395.7312,653.3551 397.7903,653.1019 399.8495,652.8474 401.9086,652.5917 403.9678,652.3347 406.0269,652.0766 408.0861,651.8174 410.1452,651.5571 412.2043,651.2958 414.2635,651.0335 416.3226,650.7702 418.3818,650.506 420.4409,650.241 422.5001,649.9751 424.5592,649.7084 426.6184,649.4409 428.6775,649.1727 430.7367,648.9038 432.7958,648.6342 434.855,648.364 436.9141,648.0931 438.9733,647.8217 441.0324,647.5498 443.0916,647.2773 445.1507,647.0043 447.2099,646.7308 449.269,646.4569 451.3282,646.1826 453.3873,645.9079 455.4465,645.6329 457.5056,645.3575 459.5648,645.0818 461.6239,644.8057 463.6831,644.5294 465.7422,644.2529 467.8014,643.9761 469.8605,643.6991 471.9197,643.4219 473.9788,643.1445 476.038,642.8669 478.0971,642.5892 480.1563,642.3113 482.2154,642.0334 484.2746,641.7553 486.3337,641.4771 488.3929,641.1988 490.452,640.9205 492.5112,640.6421 494.5703,640.3636 496.6295,640.0851 498.6886,639.8066 500.7478,639.528 502.8069,639.2494 504.8661,638.9708 506.9252,638.6921 508.9844,638.4135 511.0435,638.1349 513.1027,637.8562 515.1618,637.5776 517.221,637.2989 519.2801,637.0203 521.3393,636.7416 523.3984,636.463 525.4576,636.1843 527.5167,635.9056 529.5759,635.627 531.635,635.3483 533.6942,635.0696 535.7533,634.7908 537.8125,634.5121 539.8716,634.2333 541.9308,633.9544 543.9899,633.6755 546.0491,633.3965 548.1082,633.1175 550.1674,632.8384 552.2265,632.5591 554.2857,632.2798 556.3448,632.0003 558.404,631.7207 560.4631,631.441 562.5223,631.161 564.5814,630.8809 566.6406,630.6006 568.6997,630.32 570.7589,630.0393 572.818,629.7582 574.8772,629.4769 576.9363,629.1953 578.9955,628.9133 581.0546,628.631 583.1138,628.3484 585.1729,628.0653 587.2321,627.7818 589.2912,627.4979 591.3504,627.2135 593.4095,626.9286 595.4687,626.6432 597.5278,626.3573 599.587,626.0707 601.6461,625.7836 603.7053,625.4957 605.7644,625.2073 607.8236,624.9181 609.8827,624.6281 611.9419,624.3374 614.001,624.0459 616.0602,623.7535 618.1193,623.4603 620.1784,623.1661 622.2376,622.871 624.2967,622.5748 626.3559,622.2777 628.415,621.9794 630.4742,621.68 632.5333,621.3795 634.5925,621.0778 636.6516,620.7748 638.7108,620.4706 640.7699,620.165 642.8291,619.858 644.8882,619.5496 646.9474,619.2397 649.0065,618.9283 651.0657,618.6154 653.1248,618.3008 655.184,617.9845 657.2431,617.6666 659.3023,617.3468 661.3614,617.0253 663.4206,616.7018 665.4797,616.3764 667.5389,616.0491 669.598,615.7197 671.6572,615.3882 673.7163,615.0545 675.7755,614.7187 677.8346,614.3805 679.8938,614.0401 681.9529,613.6972 684.0121,613.3519 686.0712,613.0041 688.1304,612.6537 690.1895,612.3006 692.2487,611.9449 694.3078,611.5864 696.367,611.2251 698.4261,610.8608 700.4853,610.4936 702.5444,610.1234 704.6036,609.75 706.6627,609.3735 708.7219,608.9938 710.781,608.6107 712.8402,608.2243 714.8993,607.8344 716.9585,607.441 719.0176,607.0439 721.0768,606.6432 723.1359,606.2388 725.1951,605.8305 727.2542,605.4183 729.3134,605.0021 731.3725,604.5819 733.4317,604.1575 735.4908,603.7289 737.55,603.296 739.6091,602.8587 741.6683,602.417 743.7274,601.9707 745.7866,601.5197 747.8457,601.0641 749.9049,600.6036 751.964,600.1383 754.0232,599.668 756.0823,599.1926 758.1415,598.7121 760.2006,598.2263 762.2598,597.7352 764.3189,597.2387 766.3781,596.7367 768.4372,596.2291 770.4964,595.7157 772.5555,595.1966 774.6147,594.6716 776.6738,594.1406 778.733,593.6036 780.7921,593.0603 782.8513,592.5108 784.9104,591.955 786.9696,591.3926 789.0287,590.8237 791.0879,590.2481 793.147,589.6658 795.2062,589.0766 797.2653,588.4804 799.3245,587.8771 801.3836,587.2666 803.4428,586.6489 805.5019,586.0237 807.414,585.4365 809.326,584.8428 811.2381,584.2424 813.1502,583.6353 815.0622,583.0213 816.9743,582.4005 818.8864,581.7727 820.7984,581.1377 822.7105,580.4957 824.6226,579.8463 826.5346,579.1896 828.4467,578.5255 830.3588,577.8538 832.2708,577.1745 834.1829,576.4874 836.095,575.7926 838.0071,575.0898 839.9191,574.379 841.8312,573.6601 843.7433,572.933 845.6553,572.1977 847.5674,571.4539 849.4795,570.7016 851.3915,569.9408 853.3036,569.1712 855.2157,568.3929 857.1277,567.6057 859.0398,566.8095 860.9519,566.0042 862.8639,565.1897 864.776,564.3659 866.6881,563.5327 868.6001,562.69 870.5122,561.8377 872.4243,560.9757 874.3363,560.1038 876.2484,559.2221 878.1605,558.3303 880.0725,557.4284 881.9846,556.5162 883.8967,555.5937 885.8087,554.6607 887.7208,553.7172 889.6329,552.7629 891.5449,551.7979 893.457,550.822 895.3691,549.8351 897.2811,548.837 899.1932,547.8277 900.9582,546.886 902.7232,545.9345 904.4882,544.9731 906.2531,544.0018 908.0181,543.0205 909.7831,542.0291 911.5481,541.0274 913.3131,540.0154 915.0781,538.993 916.8431,537.9602 918.608,536.9167 920.373,535.8626 922.138,534.7977 923.903,533.7219 925.668,532.6351 927.433,531.5373 929.198,530.4284 930.9629,529.3082 932.7279,528.1766 934.4929,527.0336 936.2579,525.8791 938.0229,524.7129 939.7879,523.535 941.5529,522.3452 943.3178,521.1435 945.0828,519.9298 946.8478,518.7039 948.6128,517.4658 950.3778,516.2154 952.1428,514.9525 953.9078,513.6771 955.5257,512.4968 957.1436,511.3059 958.7615,510.1042 960.3794,508.8916 961.9973,507.6681 963.6152,506.4336 965.2331,505.188 966.851,503.9311 968.4689,502.6631 970.0868,501.3837 971.7047,500.0928 973.3226,498.7905 974.9405,497.4766 976.5584,496.151 978.1763,494.8136 979.7942,493.4644 981.4121,492.1033 983.03,490.7302 984.6479,489.345 986.2658,487.9477 987.8837,486.5381 989.5016,485.1161 991.1195,483.6817 992.7374,482.2349 994.3553,480.7754 995.9732,479.3032 997.5911,477.8183 999.062,476.4572 1000.5328,475.0855 1002.0036,473.7029 1003.4744,472.3096 1004.9452,470.9054 1006.4161,469.4902 1007.8869,468.064 1009.3577,466.6268 1010.8285,465.1783 1012.2993,463.7187 1013.7702,462.2478 1015.241,460.7655 1016.7118,459.2718 1018.1826,457.7667 1019.6535,456.25 1021.1243,454.7216 1022.5951,453.1816 1024.0659,451.6298 1025.5367,450.0662 1027.0076,448.4907 1028.4784,446.9033 1029.9492,445.3038 1031.42,443.6922 1032.8908,442.0684 1034.3617,440.4324 1035.8325,438.7841 1037.3033,437.1234 1038.627,435.6182 1039.9508,434.1028 1041.2745,432.5772 1042.5983,431.0413 1043.922,429.4952 1045.2457,427.9388 1046.5695,426.3719 1047.8932,424.7946 1049.217,423.2068 1050.5407,421.6085 1051.8644,419.9995 1053.1882,418.3799 1054.5119,416.7496 1055.8357,415.1085 1057.1594,413.4566 1058.4831,411.7938 1059.8069,410.1201 1061.1306,408.4354 1062.4543,406.7397 1063.7781,405.0329 1065.1018,403.315 1066.4256,401.5859 1067.7493,399.8456 1069.073,398.0939 1070.3968,396.3309 1071.7205,394.5565 1073.0443,392.7706 1074.368,390.9732 1075.6917,389.1642 1076.8684,387.5465 1078.0451,385.9195 1079.2217,384.2833 1080.3984,382.6378 1081.575,380.9829 1082.7517,379.3186 1083.9283,377.6449 1085.105,375.9618 1086.2816,374.2692 1087.4583,372.567 1088.635,370.8552 1089.8116,369.1339 1090.9883,367.4028 1092.1649,365.6621 1093.3416,363.9116 1094.5182,362.1514 1095.6949,360.3813 1096.8716,358.6014 1098.0482,356.8116 1099.2249,355.0119 1100.4015,353.2021 1101.5782,351.3824 1102.7548,349.5526 1103.9315,347.7127 1105.1082,345.8626 1106.2848,344.0024 1107.4615,342.132 1108.6381,340.2513 1109.8148,338.3602 1110.9914,336.4589 1112.1681,334.5471 1113.3448,332.625 1114.5214,330.6923 1115.6981,328.7492 1116.8747,326.7955 1117.9043,325.0773 1118.9339,323.351 1119.9635,321.6166 1120.993,319.8739 1122.0226,318.123 1123.0522,316.3639 1124.0818,314.5965 1125.1113,312.8207 1126.1409,311.0367 1127.1705,309.2443 1128.2001,307.4435 1129.2296,305.6342 1130.2592,303.8166 1131.2888,301.9904 1132.3183,300.1558 1133.3479,298.3126 1134.3775,296.4608 1135.4071,294.6005 1136.4366,292.7316 1137.4662,290.854 1138.4958,288.9677 1139.5254,287.0727 1140.5549,285.169 1141.5845,283.2565 1142.6141,281.3352 1143.6437,279.4052 1144.6732,277.4662 1145.7028,275.5184 1146.7324,273.5617 1147.762,271.596 1148.7915,269.6214 1149.8211,267.6378 1150.8507,265.6451 1151.8803,263.6434 1152.9098,261.6326 1153.9394,259.6127 1154.969,257.5837 1155.9986,255.5455 1157.0281,253.4981 1158.0577,251.4414 1159.0873,249.3755 1160.1169,247.3003 1161.1464,245.2158 1162.176,243.1219 1163.0585,241.3197 1163.941,239.5106 1164.8235,237.6945 1165.706,235.8715 1166.5885,234.0416 1167.471,232.2046 1168.3535,230.3607 1169.236,228.5097 1170.1185,226.6516 1171.0009,224.7866 1171.8834,222.9144 1172.7659,221.0351 1173.6484,219.1487 1174.5309,217.2552 1175.4134,215.3545 1176.2959,213.4466 1177.1784,211.5316 1178.0609,209.6093 1178.9434,207.6798 1179.8259,205.743 1180.7084,203.7989 1181.5909,201.8476 1182.4733,199.8889 1183.3558,197.923 1184.2383,195.9496 1185.1208,193.9689 1186.0033,191.9808 1186.8858,189.9853 1187.7683,187.9824 1188.6508,185.972 1189.5333,183.9541 1190.4158,181.9287 1191.2983,179.8959 1192.1808,177.8555 1193.0633,175.8076 1193.9458,173.7521 1194.8282,171.689 1195.7107,169.6183 1196.5932,167.54 1197.4757,165.454 1198.3582,163.3604 1199.2407,161.259 1200.1232,159.15 1201.0057,157.0332 1201.8882,154.9087 1202.7707,152.7765 1203.6532,150.6364 1204.5357,148.4885 1205.4182,146.3329 1206.3006,144.1693 1207.1831,141.9979 1208.0656,139.8186 1208.9481,137.6314 1209.8306,135.4363 1210.7131,133.2332 1211.5956,131.0222 1212.4781,128.8031 1213.3606,126.5761 1214.096,124.7141 1214.8314,122.8465 1215.5668,120.9733 1216.3022,119.0945 1217.0376,117.2101 1217.7731,115.3201 1218.5085,113.4244 1219.2439,111.523 1219.9793,109.616 1220.7147,107.7033 1221.4501,105.7849 1222.1855,103.8607 1222.9209,101.9309 1223.6563,99.9954 1224.3917,98.0541 1225.1272,96.107 1225.8626,94.1542 1226.598,92.1956 1227.3334,90.2312 1228.0688,88.261 1228.8042,86.285 1229.5396,84.3032 1230.275,82.3155 1231.0104,80.322 1231.7459,78.3226 1232.4813,76.3173 1233.2167,74.3062 1233.9521,72.2892 1234.6875,70.2662 1235.4229,68.2373 1236.1583,66.2025 1236.8937,64.1618 1237.6291,62.1151 1238.3645,60.0624 1239.1,58.0037 1239.8354,55.9391 1240.5708,53.8684 1241.3062,51.7917 1242.0416,49.709 1242.777,47.6202 1243.5124,45.5254 1244.2478,43.4245 1244.9832,41.3175 1245.7187,39.2045 1246.4541,37.0853 1247.1895,34.96 1247.9249,32.8286 1248.6603,30.691 1249.3957,28.5473 1250.1311,26.3974 1250.8665,24.2413 1251.6019,22.0791 1252.3373,19.9106 1252.4844,19.4762" style="fill:none;stroke:rgb(78,154,6);stroke-width:2;stroke-linejoin:bevel" />
  </g>
  <defs>
    <clipPath id="clipPath3">
      <rect x="0" y="0" width="1280" height="720" />
    </clipPath>
  </defs>
  <g clip-path="url(#clipPath3)">
    <rect x="54.061" y="13.0265" width="1210.19" height="657.8675" style="fill:none;stroke:black;stroke-width:1" shape-rendering="crispEdges" />
  </g>
</svg>