<?xml version="1.0" encoding="utf-8" standalone="no"?>
<!DOCTYPE svg PUBLIC "-//W3C//DTD SVG 1.1//EN" "http://www.w3.org/Graphics/SVG/1.1/DTD/svg11.dtd">
<svg width="1280" height="720" version="1.1" xmlns:xlink="http://www.w3.org/1999/xlink" xmlns="http://www.w3.org/2000/svg">
  <defs>
    <clipPath id="clipPath1">
      <rect x="0" y="0" width="1280" height="720" />
    </clipPath>
  </defs>
  <g clip-path="url(#clipPath1)">
    <polyline points="101.7804,670.894 101.7804,674.894" style="fill:none;stroke:black;stroke-width:1" shape-rendering="crispEdges" />
    <polyline points="125.2646,670.894 125.2646,674.894" style="fill:none;stroke:black;stroke-width:1" shape-rendering="crispEdges" />
    <polyline points="148.7489,670.894 148.7489,674.894" style="fill:none;stroke:black;stroke-width:1" shape-rendering="crispEdges" />
    <polyline points="172.2331,670.894 172.2331,674.894" style="fill:none;stroke:black;stroke-width:1" shape-rendering="crispEdges" />
    <polyline points="219.2017,670.894 219.2017,674.894" style="fill:none;stroke:black;stroke-width:1" shape-rendering="crispEdges" />
    <polyline points="242.6859,670.894 242.6859,674.894" style="fill:none;stroke:black;stroke-width:1" shape-rendering="crispEdges" />
    <polyline points="266.1702,670.894 266.1702,674.894" style="fill:none;stroke:black;stroke-width:1" shape-rendering="crispEdges" />
    <polyline points="289.6544,670.894 289.6544,674.894" style="fill:none;stroke:black;stroke-width:1" shape-rendering="crispEdges" />
    <polyline points="336.6229,670.894 336.6229,674.894" style="fill:none;stroke:black;stroke-width:1" shape-rendering="crispEdges" />
    <polyline points="360.1072,670.894 360.1072,674.894" style="fill:none;stroke:black;stroke-width:1" shape-rendering="crispEdges" />
    <polyline points="383.5914,670.894 383.5914,674.894" style="fill:none;stroke:black;stroke-width:1" shape-rendering="crispEdges" />
    <polyline points="407.0757,670.894 407.0757,674.894" style="fill:none;stroke:black;stroke-width:1" shape-rendering="crispEdges" />
    <polyline points="454.0442,670.894 454.0442,674.894" style="fill:none;stroke:black;stroke-width:1" shape-rendering="crispEdges" />
    <polyline points="477.5285,670.894 477.5285,674.894" style="fill:none;stroke:black;stroke-width:1" shape-rendering="crispEdges" />
    <polyline points="501.0127,670.894 501.0127,674.894" style="fill:none;stroke:black;stroke-width:1" shape-rendering="crispEdges" />
    <polyline points="524.497,670.894 524.497,674.894" style="fill:none;stroke:black;stroke-width:1" shape-rendering="crispEdges" />
    <polyline points="571.4655,670.894 571.4655,674.894" style="fill:none;stroke:black;stroke-width:1" shape-rendering="crispEdges" />
    <polyline points="594.9497,670.894 594.9497,674.894" style="fill:none;stroke:black;stroke-width:1" shape-rendering="crispEdges" />
    <polyline points="618.434,670.894 618.434,674.894" style="fill:none;stroke:black;stroke-width:1" shape-rendering="crispEdges" />
    <polyline points="641.9182,670.894 641.9182,674.894" style="fill:none;stroke:black;stroke-width:1" shape-rendering="crispEdges" />
    <polyline points="688.8868,670.894 688.8868,674.894" style="fill:none;stroke:black;stroke-width:1" shape-rendering="crispEdges" />
    <polyline points="712.371,670.894 712.371,674.894" style="fill:none;stroke:black;stroke-width:1" shape-rendering="crispEdges" />
    <polyline points="735.8553,670.894 735.8553,674.894" style="fill:none;stroke:black;stroke-width:1" shape-rendering="crispEdges" />
    <polyline points="759.3395,670.894 759.3395,674.894" style="fill:none;stroke:black;stroke-width:1" shape-rendering="crispEdges" />
    <polyline points="806.308,670.894 806.308,674.894" style="fill:none;stroke:black;stroke-width:1" shape-rendering="crispEdges" />
    <polyline points="829.7923,670.894 829.7923,674.894" style="fill:none;stroke:black;stroke-width:1" shape-rendering="crispEdges" />
    <polyline points="853.2765,670.894 853.2765,674.894" style="fill:none;stroke:black;stroke-width:1" shape-rendering="crispEdges" />
    <polyline points="876.7608,670.894 876.7608,674.894" style="fill:none;stroke:black;stroke-width:1" shape-rendering="crispEdges" />
    <polyline points="923.7293,670.894 923.7293,674.894" style="fill:none;stroke:black;stroke-width:1" shape-rendering="crispEdges" />
    <polyline points="947.2136,670.894 947.2136,674.894" style="fill:none;stroke:black;stroke-width:1" shape-rendering="crispEdges" />
    <polyline points="970.6978,670.894 970.6978,674.894" style="fill:none;stroke:black;stroke-width:1" shape-rendering="crispEdges" />
    <polyline points="994.1821,670.894 994.1821,674.894" style="fill:none;stroke:black;stroke-width:1" shape-rendering="crispEdges" />
    <polyline points="1041.1506,670.894 1041.1506,674.894" style="fill:none;stroke:black;stroke-width:1" shape-rendering="crispEdges" />
    <polyline points="1064.6348,670.894 1064.6348,674.894" style="fill:none;stroke:black;stroke-width:1" shape-rendering="crispEdges" />
    <polyline points="1088.1191,670.894 1088.1191,674.894" style="fill:none;stroke:black;stroke-width:1" shape-rendering="crispEdges" />
    <polyline points="1111.6033,670.894 1111.6033,674.894" style="fill:none;stroke:black;stroke-width:1" shape-rendering="crispEdges" />
    <polyline points="1158.5719,670.894 1158.5719,674.894" style="fill:none;stroke:black;stroke-width:1" shape-rendering="crispEdges" />
    <polyline points="1182.0561,670.894 1182.0561,674.894" style="fill:none;stroke:black;stroke-width:1" shape-rendering="crispEdges" />
    <polyline points="1205.5404,670.894 1205.5404,674.894" style="fill:none;stroke:black;stroke-width:1" shape-rendering="crispEdges" />
    <polyline points="1229.0246,670.894 1229.0246,674.894" style="fill:none;stroke:black;stroke-width:1" shape-rendering="crispEdges" />
    <polyline points="56.554,630.038 52.554,630.038" style="fill:none;stroke:black;stroke-width:1" shape-rendering="crispEdges" />
    <polyline points="56.554,603.4918 52.554,603.4918" style="fill:none;stroke:black;stroke-width:1" shape-rendering="crispEdges" />
    <polyline points="56.554,576.9456 52.554,576.9456" style="fill:none;stroke:black;stroke-width:1" shape-rendering="crispEdges" />
    <polyline points="56.554,523.8533 52.554,523.8533" style="fill:none;stroke:black;stroke-width:1" shape-rendering="crispEdges" />
    <polyline points="56.554,497.3071 52.554,497.3071" style="fill:none;stroke:black;stroke-width:1" shape-rendering="crispEdges" />
    <polyline points="56.554,470.761 52.554,470.761" style="fill:none;stroke:black;stroke-width:1" shape-rendering="crispEdges" />
    <polyline points="56.554,417.6687 52.554,417.6687" style="fill:none;stroke:black;stroke-width:1" shape-rendering="crispEdges" />
    <polyline points="56.554,391.1225 52.554,391.1225" style="fill:none;stroke:black;stroke-width:1" shape-rendering="crispEdges" />
    <polyline points="56.554,364.5763 52.554,364.5763" style="fill:none;stroke:black;stroke-width:1" shape-rendering="crispEdges" />
    <polyline points="56.554,311.484 52.554,311.484" style="fill:none;stroke:black;stroke-width:1" shape-rendering="crispEdges" />
    <polyline points="56.554,284.9378 52.554,284.9378" style="fill:none;stroke:black;stroke-width:1" shape-rendering="crispEdges" />
    <polyline points="56.554,258.3917 52.554,258.3917" style="fill:none;stroke:black;stroke-width:1" shape-rendering="crispEdges" />
    <polyline points="56.554,205.2993 52.554,205.2993" style="fill:none;stroke:black;stroke-width:1" shape-rendering="crispEdges" />
    <polyline points="56.554,178.7532 52.554,178.7532" style="fill:none;stroke:black;stroke-width:1" shape-rendering="crispEdges" />
    <polyline points="56.554,152.207 52.554,152.207" style="fill:none;stroke:black;stroke-width:1" shape-rendering="crispEdges" />
    <polyline points="56.554,99.1147 52.554,99.1147" style="fill:none;stroke:black;stroke-width:1" shape-rendering="crispEdges" />
    <polyline points="56.554,72.5685 52.554,72.5685" style="fill:none;stroke:black;stroke-width:1" shape-rendering="crispEdges" />
    <polyline points="56.554,46.0223 52.554,46.0223" style="fill:none;stroke:black;stroke-width:1" shape-rendering="crispEdges" />
    <text dominant-baseline="hanging" text-anchor="middle" transform="translate(78.2961,681.894)" font-family="Segoe UI" font-size="12" font-weight="400" fill="black">-1</text>
    <text dominant-baseline="hanging" text-anchor="middle" transform="translate(195.7174,681.894)" font-family="Segoe UI" font-size="12" font-weight="400" fill="black">-0,9</text>
    <text dominant-baseline="hanging" text-anchor="middle" transform="translate(313.1387,681.894)" font-family="Segoe UI" font-size="12" font-weight="400" fill="black">-0,8</text>
    <text dominant-baseline="hanging" text-anchor="middle" transform="translate(430.56,681.894)" font-family="Segoe UI" font-size="12" font-weight="400" fill="black">-0,7</text>
    <text dominant-baseline="hanging" text-anchor="middle" transform="translate(547.9812,681.894)" font-family="Segoe UI" font-size="12" font-weight="400" fill="black">-0,6</text>
    <text dominant-baseline="hanging" text-anchor="middle" transform="translate(665.4025,681.894)" font-family="Segoe UI" font-size="12" font-weight="400" fill="black">-0,5</text>
    <text dominant-baseline="hanging" text-anchor="middle" transform="translate(782.8238,681.894)" font-family="Segoe UI" font-size="12" font-weight="400" fill="black">-0,4</text>
    <text dominant-baseline="hanging" text-anchor="middle" transform="translate(900.245,681.894)" font-family="Segoe UI" font-size="12" font-weight="400" fill="black">-0,3</text>
    <text dominant-baseline="hanging" text-anchor="middle" transform="translate(1017.6663,681.894)" font-family="Segoe UI" font-size="12" font-weight="400" fill="black">-0,2</text>
    <text dominant-baseline="hanging" text-anchor="middle" transform="translate(1135.0876,681.894)" font-family="Segoe UI" font-size="12" font-weight="400" fill="black">-0,1</text>
    <text dominant-baseline="hanging" text-anchor="middle" transform="translate(1252.5089,681.894)" font-family="Segoe UI" font-size="12" font-weight="400" fill="black">0</text>
    <polyline points="78.2961,670.894 78.2961,677.894" style="fill:none;stroke:black;stroke-width:1" shape-rendering="crispEdges" />
    <polyline points="195.7174,670.894 195.7174,677.894" style="fill:none;stroke:black;stroke-width:1" shape-rendering="crispEdges" />
    <polyline points="313.1387,670.894 313.1387,677.894" style="fill:none;stroke:black;stroke-width:1" shape-rendering="crispEdges" />
    <polyline points="430.56,670.894 430.56,677.894" style="fill:none;stroke:black;stroke-width:1" shape-rendering="crispEdges" />
    <polyline points="547.9812,670.894 547.9812,677.894" style="fill:none;stroke:black;stroke-width:1" shape-rendering="crispEdges" />
    <polyline points="665.4025,670.894 665.4025,677.894" style="fill:none;stroke:black;stroke-width:1" shape-rendering="crispEdges" />
    <polyline points="782.8238,670.894 782.8238,677.894" style="fill:none;stroke:black;stroke-width:1" shape-rendering="crispEdges" />
    <polyline points="900.245,670.894 900.245,677.894" style="fill:none;stroke:black;stroke-width:1" shape-rendering="crispEdges" />
    <polyline points="1017.6663,670.894 1017.6663,677.894" style="fill:none;stroke:black;stroke-width:1" shape-rendering="crispEdges" />
    <polyline points="1135.0876,670.894 1135.0876,677.894" style="fill:none;stroke:black;stroke-width:1" shape-rendering="crispEdges" />
    <polyline points="1252.5089,670.894 1252.5089,677.894" style="fill:none;stroke:black;stroke-width:1" shape-rendering="crispEdges" />
    <text dominant-baseline="baseline" text-anchor="middle" transform="translate(660.4025,708)" font-family="Segoe UI" font-size="12" font-weight="400" fill="black">x</text>
    <text dominant-baseline="middle" text-anchor="end" transform="translate(45.554,656.5841)" font-family="Segoe UI" font-size="12" font-weight="400" fill="black">0,8</text>
    <text dominant-baseline="middle" text-anchor="end" transform="translate(45.554,550.3995)" font-family="Segoe UI" font-size="12" font-weight="400" fill="black">1</text>
    <text dominant-baseline="middle" text-anchor="end" transform="translate(45.554,444.2148)" font-family="Segoe UI" font-size="12" font-weight="400" fill="black">1,2</text>
    <text dominant-baseline="middle" text-anchor="end" transform="translate(45.554,338.0302)" font-family="Segoe UI" font-size="12" font-weight="400" fill="black">1,4</text>
    <text dominant-baseline="middle" text-anchor="end" transform="translate(45.554,231.8455)" font-family="Segoe UI" font-size="12" font-weight="400" fill="black">1,6</text>
    <text dominant-baseline="middle" text-anchor="end" transform="translate(45.554,125.6608)" font-family="Segoe UI" font-size="12" font-weight="400" fill="black">1,8</text>
    <text dominant-baseline="middle" text-anchor="end" transform="translate(45.554,19.4762)" font-family="Segoe UI" font-size="12" font-weight="400" fill="black">2</text>
    <polyline points="56.554,656.5841 49.554,656.5841" style="fill:none;stroke:black;stroke-width:1" shape-rendering="crispEdges" />
    <polyline points="56.554,550.3995 49.554,550.3995" style="fill:none;stroke:black;stroke-width:1" shape-rendering="crispEdges" />
    <polyline points="56.554,444.2148 49.554,444.2148" style="fill:none;stroke:black;stroke-width:1" shape-rendering="crispEdges" />
    <polyline points="56.554,338.0302 49.554,338.0302" style="fill:none;stroke:black;stroke-width:1" shape-rendering="crispEdges" />
    <polyline points="56.554,231.8455 49.554,231.8455" style="fill:none;stroke:black;stroke-width:1" shape-rendering="crispEdges" />
    <polyline points="56.554,125.6608 49.554,125.6608" style="fill:none;stroke:black;stroke-width:1" shape-rendering="crispEdges" />
    <polyline points="56.554,19.4762 49.554,19.4762" style="fill:none;stroke:black;stroke-width:1" shape-rendering="crispEdges" />
    <text dominant-baseline="hanging" text-anchor="middle" transform="translate(12,341.9603) rotate(-90)" font-family="Segoe UI" font-size="12" font-weight="400" fill="black">f(x)</text>
  </g>
  <defs>
    <clipPath id="clipPath2">
      <rect x="56.554" y="13.0265" width="1207.697" height="657.8675" />
    </clipPath>
  </defs>
  <g clip-path="url(#clipPath2)">
    <polyline points="78.2961,19.4762 79.4703,22.1271 80.6446,24.7706 81.8188,27.4066 82.993,30.0353 84.1672,32.6566 85.3414,35.2705 86.5156,37.8771 87.6898,40.4763 88.864,43.0682 90.0383,45.6528 91.2125,48.2301 92.3867,50.8001 93.5609,53.3628 94.7351,55.9182 95.9093,58.4664 97.0835,61.0073 98.2577,63.541 99.432,66.0675 100.6062,68.5867 101.7804,71.0988 102.9546,73.6037 104.1288,76.1015 105.303,78.592 106.4772,81.0755 107.6514,83.5518 108.8257,86.021 109.9999,88.483 111.1741,90.938 112.3483,93.3859 113.5225,95.8268 114.6967,98.2605 115.8709,100.6873 117.0451,103.107 118.2194,105.5197 119.3936,107.9253 120.5678,110.324 121.742,112.7157 122.9162,115.1005 124.0904,117.4782 125.2646,119.8491 126.4389,122.2129 127.6131,124.5699 128.7873,126.92 129.9615,129.2631 131.1357,131.5994 132.3099,133.9288 133.4841,136.2514 134.6583,138.5671 135.8326,140.876 137.0068,143.178 138.181,145.4732 139.3552,147.7616 140.5294,150.0433 141.7036,152.3182 142.8778,154.5863 144.052,156.8476 145.2263,159.1022 146.4005,161.3501 147.5747,163.5913 148.7489,165.8257 149.9231,168.0535 151.0973,170.2746 152.2715,172.489 153.4457,174.6968 154.62,176.8979 155.7942,179.0924 156.9684,181.2803 158.1426,183.4616 159.3168,185.6363 160.491,187.8043 161.6652,189.9659 162.8394,192.1208 164.0137,194.2692 165.1879,196.4111 166.3621,198.5464 167.5363,200.6753 168.7105,202.7976 169.8847,204.9135 171.0589,207.0228 172.2331,209.1257 173.4074,211.2222 174.5816,213.3122 175.7558,215.3957 176.93,217.4729 178.1042,219.5436 179.2784,221.608 180.4526,223.6659 181.6268,225.7175 182.8011,227.7628 183.9753,229.8017 185.1495,231.8342 186.3237,233.8604 187.4979,235.8803 188.6721,237.8939 189.8463,239.9012 191.0206,241.9023 192.1948,243.897 193.369,245.8855 194.5432,247.8678 195.7174,249.8438 196.8916,251.8136 198.0658,253.7772 199.24,255.7346 200.4143,257.6858 201.5885,259.6308 202.7627,261.5697 203.9369,263.5024 205.1111,265.4289 206.2853,267.3494 207.4595,269.2637 208.6337,271.1719 209.808,273.074 210.9822,274.97 212.1564,276.86 213.3306,278.7439 214.5048,280.6217 215.679,282.4935 216.8532,284.3593 218.0274,286.219 219.2017,288.0727 220.3759,289.9205 221.5501,291.7622 222.7243,293.598 223.8985,295.4279 225.0727,297.2517 226.2469,299.0697 227.4211,300.8817 228.5954,302.6877 229.7696,304.4879 230.9438,306.2822 232.118,308.0706 233.2922,309.8531 234.4664,311.6298 235.6406,313.4006 236.8148,315.1656 237.9891,316.9247 239.1633,318.6781 240.3375,320.4256 241.5117,322.1673 242.6859,323.9033 243.8601,325.6334 245.0343,327.3578 246.2086,329.0765 247.3828,330.7894 248.557,332.4966 249.7312,334.198 250.9054,335.8938 252.0796,337.5839 253.2538,339.2682 254.428,340.9469 255.6023,342.6199 256.7765,344.2873 257.9507,345.9491 259.1249,347.6052 260.2991,349.2556 261.4733,350.9005 262.6475,352.5398 263.8217,354.1734 264.996,355.8015 266.1702,357.4241 268.5186,360.6525 270.867,363.8587 273.2154,367.0429 275.5639,370.2051 277.9123,373.3455 280.2607,376.464 282.6091,379.5608 284.9576,382.636 287.306,385.6896 289.6544,388.7218 292.0028,391.7326 294.3513,394.722 296.6997,397.6903 299.0481,400.6374 301.3965,403.5635 303.745,406.4686 306.0934,409.3528 308.4418,412.2163 310.7903,415.059 313.1387,417.881 315.4871,420.6825 317.8355,423.4636 320.184,426.2242 322.5324,428.9645 324.8808,431.6846 327.2292,434.3845 329.5777,437.0644 331.9261,439.7243 334.2745,442.3642 336.6229,444.9844 338.9714,447.5847 341.3198,450.1654 343.6682,452.7265 346.0166,455.2681 348.3651,457.7903 350.7135,460.2931 353.0619,462.7766 355.4103,465.241 357.7588,467.6862 360.1072,470.1123 362.4556,472.5195 364.804,474.9078 367.1525,477.2773 369.5009,479.6281 371.8493,481.9601 374.1977,484.2737 376.5462,486.5687 378.8946,488.8452 381.243,491.1035 383.5914,493.3434 385.9399,495.5651 388.2883,497.7688 390.6367,499.9543 392.9851,502.1219 395.3336,504.2716 397.682,506.4034 400.0304,508.5175 402.3788,510.614 404.7273,512.6928 407.0757,514.754 409.4241,516.7979 411.7725,518.8243 414.121,520.8334 416.4694,522.8253 418.8178,524.8 421.1662,526.7577 423.5147,528.6983 425.8631,530.6219 428.2115,532.5287 430.56,534.4187 432.9084,536.2919 435.2568,538.1485 437.6052,539.9885 439.9537,541.8119 442.3021,543.6189 444.6505,545.4096 446.9989,547.1839 449.3474,548.942 451.6958,550.6839 454.0442,552.4097 456.3926,554.1195 458.7411,555.8133 461.0895,557.4912 463.4379,559.1533 465.7863,560.7996 468.1348,562.4303 470.4832,564.0453 472.8316,565.6448 475.18,567.2288 477.5285,568.7974 479.8769,570.3506 482.2253,571.8886 484.5737,573.4113 486.9222,574.9189 489.2706,576.4114 491.619,577.8889 493.9674,579.3514 496.3159,580.7991 498.6643,582.232 501.0127,583.6501 503.3611,585.0535 505.7096,586.4423 508.058,587.8165 510.4064,589.1762 512.7548,590.5216 515.1033,591.8525 517.4517,593.1692 519.8001,594.4716 522.1485,595.7598 524.497,597.034 526.8454,598.2941 529.1938,599.5402 531.5422,600.7724 533.8907,601.9908 536.2391,603.1953 538.5875,604.3862 540.9359,605.5633 543.2844,606.7269 545.6328,607.8769 547.9812,609.0134 550.3297,610.1365 552.6781,611.2463 555.0265,612.3427 557.3749,613.4259 559.7234,614.4959 562.0718,615.5528 564.4202,616.5967 566.7686,617.6275 569.1171,618.6454 571.4655,619.6505 573.8139,620.6427 576.1623,621.6221 578.5108,622.5889 580.8592,623.543 583.2076,624.4845 585.556,625.4135 587.9045,626.33 590.2529,627.2341 592.6013,628.1259 594.9497,629.0053 597.2982,629.8726 599.6466,630.7276 601.995,631.5705 604.3434,632.4014 606.6919,633.2202 609.0403,634.0271 611.3887,634.822 613.7371,635.6052 616.0856,636.3765 618.434,637.1361 620.7824,637.884 623.1308,638.6203 625.4793,639.3451 627.8277,640.0583 630.1761,640.7601 632.5245,641.4504 634.873,642.1294 637.2214,642.7971 639.5698,643.4536 641.9182,644.0989 644.2667,644.733 646.6151,645.356 648.9635,645.968 651.3119,646.5691 653.6604,647.1592 656.0088,647.7384 658.3572,648.3068 660.7056,648.8644 663.0541,649.4114 665.4025,649.9476 667.7509,650.4732 670.0994,650.9883 672.4478,651.4928 674.7962,651.9869 677.1446,652.4705 679.4931,652.9438 681.8415,653.4068 684.1899,653.8595 686.5383,654.302 688.8868,654.7343 691.2352,655.1565 693.5836,655.5686 695.932,655.9708 698.2805,656.3629 700.6289,656.7451 702.9773,657.1174 705.3257,657.4799 707.6742,657.8327 710.0226,658.1757 712.371,658.509 714.7194,658.8326 717.0679,659.1467 719.4163,659.4512 721.7647,659.7462 724.1131,660.0318 726.4616,660.308 728.81,660.5748 731.1584,660.8323 733.5068,661.0805 735.8553,661.3195 738.2037,661.5493 740.5521,661.7699 742.9005,661.9815 745.249,662.184 747.5974,662.3776 749.9458,662.5621 752.2942,662.7378 754.6427,662.9046 756.9911,663.0625 759.3395,663.2117 761.6879,663.3521 764.0364,663.4838 766.3848,663.6069 768.7332,663.7213 771.0816,663.8272 773.4301,663.9245 775.7785,664.0134 778.1269,664.0938 780.4753,664.1658 782.8238,664.2294 785.1722,664.2847 787.5206,664.3318 789.8691,664.3705 792.2175,664.4011 794.5659,664.4235 796.9143,664.4378 799.2628,664.444 801.6112,664.4422 803.9596,664.4323 806.308,664.4145 808.6565,664.3888 811.0049,664.3552 813.3533,664.3137 815.7017,664.2644 818.0502,664.2073 820.3986,664.1425 822.747,664.07 825.0954,663.9899 827.4439,663.9021 829.7923,663.8067 832.1407,663.7038 834.4891,663.5934 836.8376,663.4755 839.186,663.3501 841.5344,663.2174 843.8828,663.0772 846.2313,662.9298 848.5797,662.775 850.9281,662.613 853.2765,662.4437 855.625,662.2673 857.9734,662.0837 860.3218,661.893 862.6702,661.6952 865.0187,661.4903 867.3671,661.2784 869.7155,661.0595 872.0639,660.8337 874.4124,660.6009 876.7608,660.3612 879.1092,660.1147 881.4576,659.8614 883.8061,659.6013 886.1545,659.3344 888.5029,659.0608 890.8513,658.7805 893.1998,658.4935 895.5482,658.1999 897.8966,657.8997 900.245,657.5929 902.5935,657.2796 904.9419,656.9597 907.2903,656.6334 909.6388,656.3006 911.9872,655.9615 914.3356,655.6159 916.684,655.2639 919.0325,654.9057 921.3809,654.5411 923.7293,654.1703 926.0777,653.7932 928.4262,653.4099 930.7746,653.0204 933.123,652.6247 935.4714,652.2229 937.8199,651.815 940.1683,651.401 942.5167,650.981 944.8651,650.555 947.2136,650.1229 949.562,649.6849 951.9104,649.241 954.2588,648.7911 956.6073,648.3353 958.9557,647.8737 961.3041,647.4062 963.6525,646.9329 966.001,646.4538 968.3494,645.969 970.6978,645.4784 973.0462,644.9821 975.3947,644.4801 977.7431,643.9725 980.0915,643.4592 982.4399,642.9402 984.7884,642.4157 987.1368,641.8857 989.4852,641.35 991.8336,640.8089 994.1821,640.2622 996.5305,639.71 998.8789,639.1524 1001.2273,638.5894 1003.5758,638.021 1005.9242,637.4471 1008.2726,636.8679 1010.621,636.2833 1012.9695,635.6934 1015.3179,635.0982 1017.6663,634.4977 1020.0147,633.892 1022.3632,633.281 1024.7116,632.6647 1027.06,632.0433 1029.4085,631.4167 1031.7569,630.7849 1034.1053,630.1479 1036.4537,629.5059 1038.8022,628.8587 1041.1506,628.2064 1043.499,627.5491 1045.8474,626.8867 1048.1959,626.2192 1050.5443,625.5468 1052.8927,624.8693 1055.2411,624.1869 1057.5896,623.4995 1059.938,622.8071 1062.2864,622.1098 1064.6348,621.4076 1066.9833,620.7005 1069.3317,619.9885 1071.6801,619.2717 1074.0285,618.55 1076.377,617.8234 1078.7254,617.092 1081.0738,616.3559 1083.4222,615.6149 1085.7707,614.8692 1088.1191,614.1187 1090.4675,613.3634 1092.8159,612.6035 1095.1644,611.8388 1097.5128,611.0694 1099.8612,610.2953 1102.2096,609.5165 1104.5581,608.7331 1106.9065,607.945 1109.2549,607.1522 1111.6033,606.3549 1113.9518,605.5529 1116.3002,604.7463 1118.6486,603.9352 1120.997,603.1194 1123.3455,602.2991 1125.6939,601.4743 1128.0423,600.6449 1130.3907,599.8109 1132.7392,598.9725 1135.0876,598.1295 1137.436,597.282 1139.7844,596.43 1142.1329,595.5736 1144.4813,594.7126 1146.8297,593.8473 1149.1782,592.9774 1151.5266,592.1031 1153.875,591.2244 1156.2234,590.3413 1158.5719,589.4537 1160.9203,588.5617 1163.2687,587.6653 1165.6171,586.7645 1167.9656,585.8594 1170.314,584.9498 1172.6624,584.0359 1175.0108,583.1176 1177.3593,582.195 1179.7077,581.268 1182.0561,580.3367 1184.4045,579.401 1186.753,578.461 1189.1014,577.5166 1191.4498,576.568 1193.7982,575.615 1196.1467,574.6577 1198.4951,573.6961 1200.8435,572.7302 1203.1919,571.7601 1205.5404,570.7856 1207.8888,569.8068 1210.2372,568.8237 1212.5856,567.8364 1214.9341,566.8448 1217.2825,565.8489 1219.6309,564.8488 1221.9793,563.8443 1224.3278,562.8356 1226.6762,561.8227 1229.0246,560.8055 1231.373,559.784 1233.7215,558.7583 1236.0699,557.7283 1238.4183,556.6941 1240.7667,555.6556 1243.1152,554.6129 1245.4636,553.5659 1247.812,552.5147 1250.1604,551.4592 1252.5089,550.3995" style="fill:none;stroke:rgb(78,154,6);stroke-width:2;stroke-linejoin:bevel" />
    <polyline points="799.8986,664.4443" style="fill:none;stroke:rgb(200,141,0);stroke-width:2;stroke-linejoin:bevel" />
    <ellipse cx="799.8986" cy="664.4443" rx="3" ry="3" style="fill:rgb(200,141,0);stroke:none;" shape-rendering="geometricPrecision" />
    <text dominant-baseline="baseline" text-anchor="middle" transform="translate(799.8986,658.4443)" font-family="Segoe UI" font-size="12" font-weight="400" fill="black">(-0,385; 0,785)</text>
  </g>
  <defs>
    <clipPath id="clipPath3">
      <rect x="0" y="0" width="1280" height="720" />
    </clipPath>
  </defs>
  <g clip-path="url(#clipPath3)">
    <rect x="56.554" y="13.0265" width="1207.697" height="657.8675" style="fill:none;stroke:black;stroke-width:1" shape-rendering="crispEdges" />
  </g>
</svg>