<?xml version="1.0" encoding="utf-8" standalone="no"?>
<!DOCTYPE svg PUBLIC "-//W3C//DTD SVG 1.1//EN" "http://www.w3.org/Graphics/SVG/1.1/DTD/svg11.dtd">
<svg width="1280" height="720" version="1.1" xmlns:xlink="http://www.w3.org/1999/xlink" xmlns="http://www.w3.org/2000/svg">
  <defs>
    <clipPath id="clipPath1">
      <rect x="0" y="0" width="1280" height="720" />
    </clipPath>
  </defs>
  <g clip-path="url(#clipPath1)">
    <polyline points="59.551,670.894 59.551,674.894" style="fill:none;stroke:black;stroke-width:1" shape-rendering="crispEdges" />
    <polyline points="102.6355,670.894 102.6355,674.894" style="fill:none;stroke:black;stroke-width:1" shape-rendering="crispEdges" />
    <polyline points="123.9803,670.894 123.9803,674.894" style="fill:none;stroke:black;stroke-width:1" shape-rendering="crispEdges" />
    <polyline points="145.3251,670.894 145.3251,674.894" style="fill:none;stroke:black;stroke-width:1" shape-rendering="crispEdges" />
    <polyline points="166.67,670.894 166.67,674.894" style="fill:none;stroke:black;stroke-width:1" shape-rendering="crispEdges" />
    <polyline points="209.3596,670.894 209.3596,674.894" style="fill:none;stroke:black;stroke-width:1" shape-rendering="crispEdges" />
    <polyline points="230.7045,670.894 230.7045,674.894" style="fill:none;stroke:black;stroke-width:1" shape-rendering="crispEdges" />
    <polyline points="252.0493,670.894 252.0493,674.894" style="fill:none;stroke:black;stroke-width:1" shape-rendering="crispEdges" />
    <polyline points="273.3941,670.894 273.3941,674.894" style="fill:none;stroke:black;stroke-width:1" shape-rendering="crispEdges" />
    <polyline points="316.0838,670.894 316.0838,674.894" style="fill:none;stroke:black;stroke-width:1" shape-rendering="crispEdges" />
    <polyline points="337.4286,670.894 337.4286,674.894" style="fill:none;stroke:black;stroke-width:1" shape-rendering="crispEdges" />
    <polyline points="358.7735,670.894 358.7735,674.894" style="fill:none;stroke:black;stroke-width:1" shape-rendering="crispEdges" />
    <polyline points="380.1183,670.894 380.1183,674.894" style="fill:none;stroke:black;stroke-width:1" shape-rendering="crispEdges" />
    <polyline points="422.8079,670.894 422.8079,674.894" style="fill:none;stroke:black;stroke-width:1" shape-rendering="crispEdges" />
    <polyline points="444.1528,670.894 444.1528,674.894" style="fill:none;stroke:black;stroke-width:1" shape-rendering="crispEdges" />
    <polyline points="465.4976,670.894 465.4976,674.894" style="fill:none;stroke:black;stroke-width:1" shape-rendering="crispEdges" />
    <polyline points="486.8424,670.894 486.8424,674.894" style="fill:none;stroke:black;stroke-width:1" shape-rendering="crispEdges" />
    <polyline points="529.5321,670.894 529.5321,674.894" style="fill:none;stroke:black;stroke-width:1" shape-rendering="crispEdges" />
    <polyline points="550.8769,670.894 550.8769,674.894" style="fill:none;stroke:black;stroke-width:1" shape-rendering="crispEdges" />
    <polyline points="572.2218,670.894 572.2218,674.894" style="fill:none;stroke:black;stroke-width:1" shape-rendering="crispEdges" />
    <polyline points="593.5666,670.894 593.5666,674.894" style="fill:none;stroke:black;stroke-width:1" shape-rendering="crispEdges" />
    <polyline points="636.2563,670.894 636.2563,674.894" style="fill:none;stroke:black;stroke-width:1" shape-rendering="crispEdges" />
    <polyline points="657.6011,670.894 657.6011,674.894" style="fill:none;stroke:black;stroke-width:1" shape-rendering="crispEdges" />
    <polyline points="678.9459,670.894 678.9459,674.894" style="fill:none;stroke:black;stroke-width:1" shape-rendering="crispEdges" />
    <polyline points="700.2907,670.894 700.2907,674.894" style="fill:none;stroke:black;stroke-width:1" shape-rendering="crispEdges" />
    <polyline points="742.9804,670.894 742.9804,674.894" style="fill:none;stroke:black;stroke-width:1" shape-rendering="crispEdges" />
    <polyline points="764.3252,670.894 764.3252,674.894" style="fill:none;stroke:black;stroke-width:1" shape-rendering="crispEdges" />
    <polyline points="785.6701,670.894 785.6701,674.894" style="fill:none;stroke:black;stroke-width:1" shape-rendering="crispEdges" />
    <polyline points="807.0149,670.894 807.0149,674.894" style="fill:none;stroke:black;stroke-width:1" shape-rendering="crispEdges" />
    <polyline points="849.7046,670.894 849.7046,674.894" style="fill:none;stroke:black;stroke-width:1" shape-rendering="crispEdges" />
    <polyline points="871.0494,670.894 871.0494,674.894" style="fill:none;stroke:black;stroke-width:1" shape-rendering="crispEdges" />
    <polyline points="892.3942,670.894 892.3942,674.894" style="fill:none;stroke:black;stroke-width:1" shape-rendering="crispEdges" />
    <polyline points="913.7391,670.894 913.7391,674.894" style="fill:none;stroke:black;stroke-width:1" shape-rendering="crispEdges" />
    <polyline points="956.4287,670.894 956.4287,674.894" style="fill:none;stroke:black;stroke-width:1" shape-rendering="crispEdges" />
    <polyline points="977.7735,670.894 977.7735,674.894" style="fill:none;stroke:black;stroke-width:1" shape-rendering="crispEdges" />
    <polyline points="999.1184,670.894 999.1184,674.894" style="fill:none;stroke:black;stroke-width:1" shape-rendering="crispEdges" />
    <polyline points="1020.4632,670.894 1020.4632,674.894" style="fill:none;stroke:black;stroke-width:1" shape-rendering="crispEdges" />
    <polyline points="1063.1529,670.894 1063.1529,674.894" style="fill:none;stroke:black;stroke-width:1" shape-rendering="crispEdges" />
    <polyline points="1084.4977,670.894 1084.4977,674.894" style="fill:none;stroke:black;stroke-width:1" shape-rendering="crispEdges" />
    <polyline points="1105.8425,670.894 1105.8425,674.894" style="fill:none;stroke:black;stroke-width:1" shape-rendering="crispEdges" />
    <polyline points="1127.1874,670.894 1127.1874,674.894" style="fill:none;stroke:black;stroke-width:1" shape-rendering="crispEdges" />
    <polyline points="1169.877,670.894 1169.877,674.894" style="fill:none;stroke:black;stroke-width:1" shape-rendering="crispEdges" />
    <polyline points="1191.2219,670.894 1191.2219,674.894" style="fill:none;stroke:black;stroke-width:1" shape-rendering="crispEdges" />
    <polyline points="1212.5667,670.894 1212.5667,674.894" style="fill:none;stroke:black;stroke-width:1" shape-rendering="crispEdges" />
    <polyline points="1233.9115,670.894 1233.9115,674.894" style="fill:none;stroke:black;stroke-width:1" shape-rendering="crispEdges" />
    <polyline points="59.551,656.414 55.551,656.414" style="fill:none;stroke:black;stroke-width:1" shape-rendering="crispEdges" />
    <polyline points="59.551,617.8293 55.551,617.8293" style="fill:none;stroke:black;stroke-width:1" shape-rendering="crispEdges" />
    <polyline points="59.551,598.537 55.551,598.537" style="fill:none;stroke:black;stroke-width:1" shape-rendering="crispEdges" />
    <polyline points="59.551,579.2447 55.551,579.2447" style="fill:none;stroke:black;stroke-width:1" shape-rendering="crispEdges" />
    <polyline points="59.551,559.9524 55.551,559.9524" style="fill:none;stroke:black;stroke-width:1" shape-rendering="crispEdges" />
    <polyline points="59.551,521.3678 55.551,521.3678" style="fill:none;stroke:black;stroke-width:1" shape-rendering="crispEdges" />
    <polyline points="59.551,502.0755 55.551,502.0755" style="fill:none;stroke:black;stroke-width:1" shape-rendering="crispEdges" />
    <polyline points="59.551,482.7832 55.551,482.7832" style="fill:none;stroke:black;stroke-width:1" shape-rendering="crispEdges" />
    <polyline points="59.551,463.4909 55.551,463.4909" style="fill:none;stroke:black;stroke-width:1" shape-rendering="crispEdges" />
    <polyline points="59.551,424.9063 55.551,424.9063" style="fill:none;stroke:black;stroke-width:1" shape-rendering="crispEdges" />
    <polyline points="59.551,405.614 55.551,405.614" style="fill:none;stroke:black;stroke-width:1" shape-rendering="crispEdges" />
    <polyline points="59.551,386.3216 55.551,386.3216" style="fill:none;stroke:black;stroke-width:1" shape-rendering="crispEdges" />
    <polyline points="59.551,367.0293 55.551,367.0293" style="fill:none;stroke:black;stroke-width:1" shape-rendering="crispEdges" />
    <polyline points="59.551,328.4447 55.551,328.4447" style="fill:none;stroke:black;stroke-width:1" shape-rendering="crispEdges" />
    <polyline points="59.551,309.1524 55.551,309.1524" style="fill:none;stroke:black;stroke-width:1" shape-rendering="crispEdges" />
    <polyline points="59.551,289.8601 55.551,289.8601" style="fill:none;stroke:black;stroke-width:1" shape-rendering="crispEdges" />
    <polyline points="59.551,270.5678 55.551,270.5678" style="fill:none;stroke:black;stroke-width:1" shape-rendering="crispEdges" />
    <polyline points="59.551,231.9832 55.551,231.9832" style="fill:none;stroke:black;stroke-width:1" shape-rendering="crispEdges" />
    <polyline points="59.551,212.6909 55.551,212.6909" style="fill:none;stroke:black;stroke-width:1" shape-rendering="crispEdges" />
    <polyline points="59.551,193.3986 55.551,193.3986" style="fill:none;stroke:black;stroke-width:1" shape-rendering="crispEdges" />
    <polyline points="59.551,174.1063 55.551,174.1063" style="fill:none;stroke:black;stroke-width:1" shape-rendering="crispEdges" />
    <polyline points="59.551,135.5216 55.551,135.5216" style="fill:none;stroke:black;stroke-width:1" shape-rendering="crispEdges" />
    <polyline points="59.551,116.2293 55.551,116.2293" style="fill:none;stroke:black;stroke-width:1" shape-rendering="crispEdges" />
    <polyline points="59.551,96.937 55.551,96.937" style="fill:none;stroke:black;stroke-width:1" shape-rendering="crispEdges" />
    <polyline points="59.551,77.6447 55.551,77.6447" style="fill:none;stroke:black;stroke-width:1" shape-rendering="crispEdges" />
    <polyline points="59.551,39.0601 55.551,39.0601" style="fill:none;stroke:black;stroke-width:1" shape-rendering="crispEdges" />
    <polyline points="59.551,19.7678 55.551,19.7678" style="fill:none;stroke:black;stroke-width:1" shape-rendering="crispEdges" />
    <text dominant-baseline="hanging" text-anchor="middle" transform="translate(81.2907,681.894)" font-family="Segoe UI" font-size="12" font-weight="400" fill="black">1</text>
    <text dominant-baseline="hanging" text-anchor="middle" transform="translate(188.0148,681.894)" font-family="Segoe UI" font-size="12" font-weight="400" fill="black">2</text>
    <text dominant-baseline="hanging" text-anchor="middle" transform="translate(294.739,681.894)" font-family="Segoe UI" font-size="12" font-weight="400" fill="black">3</text>
    <text dominant-baseline="hanging" text-anchor="middle" transform="translate(401.4631,681.894)" font-family="Segoe UI" font-size="12" font-weight="400" fill="black">4</text>
    <text dominant-baseline="hanging" text-anchor="middle" transform="translate(508.1873,681.894)" font-family="Segoe UI" font-size="12" font-weight="400" fill="black">5</text>
    <text dominant-baseline="hanging" text-anchor="middle" transform="translate(614.9114,681.894)" font-family="Segoe UI" font-size="12" font-weight="400" fill="black">6</text>
    <text dominant-baseline="hanging" text-anchor="middle" transform="translate(721.6356,681.894)" font-family="Segoe UI" font-size="12" font-weight="400" fill="black">7</text>
    <text dominant-baseline="hanging" text-anchor="middle" transform="translate(828.3597,681.894)" font-family="Segoe UI" font-size="12" font-weight="400" fill="black">8</text>
    <text dominant-baseline="hanging" text-anchor="middle" transform="translate(935.0839,681.894)" font-family="Segoe UI" font-size="12" font-weight="400" fill="black">9</text>
    <text dominant-baseline="hanging" text-anchor="middle" transform="translate(1041.808,681.894)" font-family="Segoe UI" font-size="12" font-weight="400" fill="black">10</text>
    <text dominant-baseline="hanging" text-anchor="middle" transform="translate(1148.5322,681.894)" font-family="Segoe UI" font-size="12" font-weight="400" fill="black">11</text>
    <text dominant-baseline="hanging" text-anchor="middle" transform="translate(1255.2563,681.894)" font-family="Segoe UI" font-size="12" font-weight="400" fill="black">12</text>
    <polyline points="81.2907,670.894 81.2907,677.894" style="fill:none;stroke:black;stroke-width:1" shape-rendering="crispEdges" />
    <polyline points="188.0148,670.894 188.0148,677.894" style="fill:none;stroke:black;stroke-width:1" shape-rendering="crispEdges" />
    <polyline points="294.739,670.894 294.739,677.894" style="fill:none;stroke:black;stroke-width:1" shape-rendering="crispEdges" />
    <polyline points="401.4631,670.894 401.4631,677.894" style="fill:none;stroke:black;stroke-width:1" shape-rendering="crispEdges" />
    <polyline points="508.1873,670.894 508.1873,677.894" style="fill:none;stroke:black;stroke-width:1" shape-rendering="crispEdges" />
    <polyline points="614.9114,670.894 614.9114,677.894" style="fill:none;stroke:black;stroke-width:1" shape-rendering="crispEdges" />
    <polyline points="721.6356,670.894 721.6356,677.894" style="fill:none;stroke:black;stroke-width:1" shape-rendering="crispEdges" />
    <polyline points="828.3597,670.894 828.3597,677.894" style="fill:none;stroke:black;stroke-width:1" shape-rendering="crispEdges" />
    <polyline points="935.0839,670.894 935.0839,677.894" style="fill:none;stroke:black;stroke-width:1" shape-rendering="crispEdges" />
    <polyline points="1041.808,670.894 1041.808,677.894" style="fill:none;stroke:black;stroke-width:1" shape-rendering="crispEdges" />
    <polyline points="1148.5322,670.894 1148.5322,677.894" style="fill:none;stroke:black;stroke-width:1" shape-rendering="crispEdges" />
    <polyline points="1255.2563,670.894 1255.2563,677.894" style="fill:none;stroke:black;stroke-width:1" shape-rendering="crispEdges" />
    <text dominant-baseline="baseline" text-anchor="middle" transform="translate(663.2735,708)" font-family="Segoe UI" font-size="12" font-weight="400" fill="black">x</text>
    <text dominant-baseline="middle" text-anchor="end" transform="translate(48.551,637.1217)" font-family="Segoe UI" font-size="12" font-weight="400" fill="black">-0,1</text>
    <text dominant-baseline="middle" text-anchor="end" transform="translate(48.551,540.6601)" font-family="Segoe UI" font-size="12" font-weight="400" fill="black">0</text>
    <text dominant-baseline="middle" text-anchor="end" transform="translate(48.551,444.1986)" font-family="Segoe UI" font-size="12" font-weight="400" fill="black">0,1</text>
    <text dominant-baseline="middle" text-anchor="end" transform="translate(48.551,347.737)" font-family="Segoe UI" font-size="12" font-weight="400" fill="black">0,2</text>
    <text dominant-baseline="middle" text-anchor="end" transform="translate(48.551,251.2755)" font-family="Segoe UI" font-size="12" font-weight="400" fill="black">0,3</text>
    <text dominant-baseline="middle" text-anchor="end" transform="translate(48.551,154.8139)" font-family="Segoe UI" font-size="12" font-weight="400" fill="black">0,4</text>
    <text dominant-baseline="middle" text-anchor="end" transform="translate(48.551,58.3524)" font-family="Segoe UI" font-size="12" font-weight="400" fill="black">0,5</text>
    <polyline points="59.551,637.1217 52.551,637.1217" style="fill:none;stroke:black;stroke-width:1" shape-rendering="crispEdges" />
    <polyline points="59.551,540.6601 52.551,540.6601" style="fill:none;stroke:black;stroke-width:1" shape-rendering="crispEdges" />
    <polyline points="59.551,444.1986 52.551,444.1986" style="fill:none;stroke:black;stroke-width:1" shape-rendering="crispEdges" />
    <polyline points="59.551,347.737 52.551,347.737" style="fill:none;stroke:black;stroke-width:1" shape-rendering="crispEdges" />
    <polyline points="59.551,251.2755 52.551,251.2755" style="fill:none;stroke:black;stroke-width:1" shape-rendering="crispEdges" />
    <polyline points="59.551,154.8139 52.551,154.8139" style="fill:none;stroke:black;stroke-width:1" shape-rendering="crispEdges" />
    <polyline points="59.551,58.3524 52.551,58.3524" style="fill:none;stroke:black;stroke-width:1" shape-rendering="crispEdges" />
    <text dominant-baseline="hanging" text-anchor="middle" transform="translate(12,341.9603) rotate(-90)" font-family="Segoe UI" font-size="12" font-weight="400" fill="black">f(x)</text>
  </g>
  <defs>
    <clipPath id="clipPath2">
      <rect x="59.551" y="13.0265" width="1207.445" height="657.8675" />
    </clipPath>
  </defs>
  <g clip-path="url(#clipPath2)">
    <polyline points="81.2907,19.4762 81.5041,23.1726 81.7176,26.8459 81.931,30.496 82.1445,34.1234 82.3579,37.728 82.5713,41.3101 82.7848,44.8699 82.9982,48.4076 83.2117,51.9232 83.4251,55.4171 83.6386,58.8893 83.852,62.34 84.0655,65.7694 84.2789,69.1776 84.4924,72.5649 84.7058,75.9314 84.9193,79.2771 85.1327,82.6024 85.3462,85.9073 85.5596,89.192 85.7731,92.4567 85.9865,95.7015 86.2,98.9265 86.4134,102.132 86.6269,105.318 86.8403,108.4847 87.0538,111.6322 87.2672,114.7607 87.4807,117.8704 87.6941,120.9613 87.9076,124.0337 88.121,127.0876 88.3345,130.1231 88.5479,133.1405 88.7613,136.1399 88.9748,139.1213 89.1882,142.0849 89.4017,145.0309 89.6151,147.9594 89.8286,150.8705 90.042,153.7643 90.2555,156.641 90.4689,159.5006 90.6824,162.3434 90.8958,165.1694 91.1093,167.9787 91.3227,170.7716 91.5362,173.548 91.7496,176.3081 91.9631,179.052 92.1765,181.7799 92.39,184.4918 92.6034,187.1879 92.8169,189.8683 93.0303,192.5331 93.2438,195.1823 93.4572,197.8162 93.6707,200.4348 93.8841,203.0383 94.0976,205.6266 94.311,208.2 94.5245,210.7586 94.7379,213.3024 94.9513,215.8316 95.1648,218.3462 95.3782,220.8464 95.5917,223.3322 95.8051,225.8038 96.0186,228.2613 96.232,230.7047 96.4455,233.1341 96.6589,235.5497 96.8724,237.9516 97.0858,240.3397 97.2993,242.7143 97.5127,245.0755 97.7262,247.4232 97.9396,249.7577 98.1531,252.0789 98.3665,254.387 98.58,256.6821 98.7934,258.9643 99.0069,261.2336 99.2203,263.4902 99.4338,265.734 99.6472,267.9653 99.8607,270.1841 100.0741,272.3904 100.2876,274.5844 100.501,276.7661 100.7145,278.9357 100.9279,281.0932 101.1413,283.2386 101.3548,285.3721 101.5682,287.4938 101.7817,289.6037 101.9951,291.7018 102.2086,293.7884 102.422,295.8634 102.6355,297.9269 102.8489,299.979 103.0624,302.0198 103.2758,304.0493 103.4893,306.0677 103.7027,308.0749 103.9162,310.0712 104.2363,313.045 104.5565,315.9943 104.8767,318.9195 105.1969,321.8208 105.517,324.6983 105.8372,327.5523 106.1574,330.383 106.4776,333.1907 106.7977,335.9755 107.1179,338.7377 107.4381,341.4775 107.7582,344.1951 108.0784,346.8907 108.3986,349.5646 108.7188,352.2169 109.0389,354.8478 109.3591,357.4575 109.6793,360.0462 109.9995,362.6142 110.3196,365.1615 110.6398,367.6885 110.96,370.1952 111.2801,372.6819 111.6003,375.1488 111.9205,377.596 112.2407,380.0237 112.5608,382.4321 112.881,384.8214 113.2012,387.1917 113.5214,389.5432 113.8415,391.8761 114.1617,394.1905 114.4819,396.4866 114.802,398.7646 115.1222,401.0247 115.4424,403.2669 115.7626,405.4915 116.0827,407.6986 116.4029,409.8884 116.7231,412.061 117.0432,414.2165 117.3634,416.3552 117.6836,418.4771 118.0038,420.5825 118.3239,422.6714 118.6441,424.7439 118.9643,426.8004 119.2845,428.8408 119.6046,430.8653 119.9248,432.874 120.245,434.8672 120.5651,436.8449 120.992,439.4579 121.4189,442.044 121.8458,444.6034 122.2727,447.1364 122.6996,449.6433 123.1265,452.1245 123.5534,454.5802 123.9803,457.0107 124.4072,459.4162 124.8341,461.7971 125.261,464.1536 125.6879,466.486 126.1148,468.7945 126.5417,471.0795 126.9686,473.3411 127.3955,475.5796 127.8224,477.7953 128.2493,479.9885 128.6762,482.1593 129.1031,484.308 129.53,486.4348 129.9569,488.54 130.3838,490.6238 130.8107,492.6865 131.2376,494.7282 131.6645,496.7492 132.0914,498.7497 132.5183,500.7299 132.9451,502.69 133.4788,505.1122 134.0124,507.5038 134.546,509.8651 135.0796,512.1966 135.6133,514.4987 136.1469,516.7716 136.6805,519.0158 137.2141,521.2317 137.7477,523.4196 138.2814,525.5798 138.815,527.7128 139.3486,529.8188 139.8822,531.8982 140.4158,533.9513 140.9495,535.9785 141.4831,537.98 142.0167,539.9562 142.5503,541.9075 143.1907,544.2164 143.831,546.4903 144.4714,548.7296 145.1117,550.9349 145.752,553.1067 146.3924,555.2455 147.0327,557.3517 147.6731,559.4258 148.3134,561.4682 148.9538,563.4795 149.5941,565.46 150.2345,567.4101 150.8748,569.3304 151.6219,571.5335 152.3689,573.6972 153.116,575.822 153.8631,577.9087 154.6102,579.9577 155.3572,581.9698 156.1043,583.9455 156.8514,585.8853 157.5984,587.79 158.3455,589.6599 159.1993,591.7552 160.0531,593.8067 160.9069,595.8151 161.7607,597.7813 162.6145,599.7059 163.4683,601.5898 164.322,603.4336 165.2826,605.4608 166.2431,607.4391 167.2036,609.3695 168.1641,611.2529 169.1246,613.0901 170.0852,614.8821 171.1524,616.8213 172.2196,618.7068 173.2869,620.5398 174.3541,622.3214 175.4214,624.0526 176.5953,625.9 177.7693,627.6891 178.9433,629.4212 180.1172,631.0975 181.2912,632.7193 182.5719,634.4278 183.8526,636.0743 185.1333,637.6604 186.5207,639.3122 187.9081,640.8964 189.2955,642.4149 190.6829,643.8693 192.1771,645.3657 193.6712,646.7915 195.1653,648.1488 196.7662,649.5289 198.3671,650.8346 199.9679,652.0678 201.6755,653.3058 203.3831,654.4662 205.0907,655.5512 206.905,656.6241 208.7193,657.617 210.5336,658.5325 212.4546,659.4201 214.3757,660.2265 216.2967,660.9542 218.2177,661.6058 220.1388,662.1837 222.1665,662.7166 224.1943,663.1729 226.2221,663.5551 228.2498,663.8659 230.2776,664.1076 232.3053,664.2826 234.3331,664.3932 236.3609,664.4416 238.3886,664.4299 240.4164,664.3601 242.4441,664.2343 244.4719,664.0543 246.4996,663.8221 248.5274,663.5394 250.5552,663.2079 252.5829,662.8294 254.6107,662.4056 256.6384,661.9379 258.6662,661.428 260.694,660.8773 262.615,660.3193 264.536,659.7272 266.4571,659.1023 268.3781,658.4455 270.2991,657.7582 272.2202,657.0412 274.1412,656.2957 276.0622,655.5228 277.9833,654.7233 279.9043,653.8983 281.8253,653.0487 283.7464,652.1755 285.5607,651.3298 287.375,650.4646 289.1893,649.5806 291.0036,648.6785 292.8179,647.7589 294.6322,646.8226 296.4465,645.8702 298.2609,644.9023 300.0752,643.9197 301.8895,642.9228 303.7038,641.9124 305.5181,640.889 307.3324,639.8531 309.1467,638.8055 310.961,637.7465 312.7753,636.6768 314.5897,635.5969 316.404,634.5072 318.2183,633.4085 319.9259,632.3664 321.6335,631.317 323.341,630.2607 325.0486,629.198 326.7562,628.1292 328.4638,627.0546 330.1714,625.9747 331.879,624.8899 333.5866,623.8004 335.2941,622.7066 337.0017,621.6089 338.7093,620.5075 340.4169,619.403 342.1245,618.2955 343.8321,617.1853 345.5397,616.0729 347.2472,614.9584 348.9548,613.8423 350.6624,612.7248 352.37,611.6061 354.0776,610.4866 355.7852,609.3666 357.4928,608.2463 359.2004,607.126 360.9079,606.0059 362.6155,604.8864 364.3231,603.7676 366.0307,602.6498 367.7383,601.5333 369.4459,600.4184 371.1535,599.3051 372.861,598.1938 374.5686,597.0848 376.2762,595.9781 377.9838,594.8741 379.6914,593.7729 381.399,592.6747 383.1066,591.5799 384.8141,590.4885 386.5217,589.4007 388.2293,588.3168 389.9369,587.237 391.6445,586.1613 393.3521,585.0901 395.0597,584.0235 396.7673,582.9616 398.4748,581.9046 400.1824,580.8527 401.89,579.8061 403.7043,578.7 405.5186,577.6003 407.3329,576.5069 409.1473,575.4203 410.9616,574.3405 412.7759,573.2677 414.5902,572.202 416.4045,571.1437 418.2188,570.0928 420.0331,569.0496 421.8474,568.0142 423.6617,566.9867 425.4761,565.9673 427.2904,564.9561 429.1047,563.9532 430.919,562.9588 432.7333,561.973 434.5476,560.9959 436.3619,560.0277 438.1762,559.0684 439.9905,558.1182 441.8048,557.1771 443.6192,556.2453 445.4335,555.3229 447.2478,554.4099 449.0621,553.5066 450.8764,552.6128 452.6907,551.7288 454.505,550.8547 456.3193,549.9904 458.1336,549.1362 459.948,548.2919 461.869,547.4091 463.79,546.5377 465.7111,545.6778 467.6321,544.8295 469.5531,543.9928 471.4742,543.1679 473.3952,542.3548 475.3162,541.5534 477.2373,540.764 479.1583,539.9865 481.0793,539.221 483.0004,538.4675 484.9214,537.7261 486.8424,536.9968 488.7635,536.2796 490.6845,535.5746 492.6055,534.8818 494.5266,534.2012 496.4476,533.5329 498.3686,532.8768 500.2897,532.233 502.2107,531.6014 504.1318,530.9821 506.0528,530.3751 507.9738,529.7804 509.8949,529.198 511.8159,528.6279 513.7369,528.07 515.7647,527.4945 517.7924,526.9326 519.8202,526.3843 521.848,525.8496 523.8757,525.3285 525.9035,524.821 527.9312,524.3269 529.959,523.8464 531.9868,523.3792 534.0145,522.9255 536.0423,522.4851 538.07,522.0581 540.0978,521.6442 542.1256,521.2436 544.1533,520.8561 546.1811,520.4817 548.2088,520.1202 550.2366,519.7718 552.2643,519.4362 554.2921,519.1134 556.3199,518.8034 558.3476,518.506 560.3754,518.2212 562.4031,517.9488 564.4309,517.6889 566.4587,517.4413 568.4864,517.206 570.5142,516.9828 572.5419,516.7716 574.5697,516.5724 576.5975,516.3851 578.6252,516.2095 580.653,516.0456 582.6807,515.8932 584.7085,515.7523 586.7362,515.6227 588.764,515.5043 590.7918,515.3971 592.8195,515.3008 594.8473,515.2155 596.875,515.1409 598.9028,515.077 600.9306,515.0237 602.9583,514.9807 604.9861,514.948 607.0138,514.9255 609.0416,514.9131 611.0694,514.9105 613.0971,514.9178 615.1249,514.9347 617.1526,514.9611 619.1804,514.997 621.2081,515.0421 623.2359,515.0963 625.2637,515.1595 627.2914,515.2316 629.3192,515.3124 631.3469,515.4018 633.3747,515.4996 635.4025,515.6057 637.4302,515.72 639.458,515.8423 641.4857,515.9725 643.5135,516.1104 645.5413,516.2559 647.569,516.4089 649.5968,516.5692 651.6245,516.7366 653.6523,516.9111 655.68,517.0924 657.7078,517.2805 659.7356,517.4751 661.7633,517.6762 663.7911,517.8836 665.8188,518.0971 667.8466,518.3166 669.8744,518.5419 671.9021,518.7729 673.9299,519.0095 675.9576,519.2515 677.9854,519.4988 680.0132,519.7511 682.0409,520.0084 684.0687,520.2706 686.0964,520.5374 688.1242,520.8087 690.152,521.0844 692.1797,521.3644 694.2075,521.6484 696.2352,521.9364 698.263,522.2281 700.2907,522.5236 702.3185,522.8225 704.3463,523.1248 706.374,523.4303 708.4018,523.7389 710.4295,524.0504 712.4573,524.3648 714.4851,524.6818 716.5128,525.0013 718.5406,525.3232 720.5683,525.6473 722.5961,525.9736 724.6239,526.3018 726.6516,526.6318 728.6794,526.9636 730.7071,527.2969 732.7349,527.6316 734.7626,527.9677 736.7904,528.3049 738.8182,528.6431 740.8459,528.9823 742.8737,529.3223 744.9014,529.6629 746.9292,530.004 748.957,530.3456 750.9847,530.6874 753.0125,531.0294 755.0402,531.3715 757.068,531.7135 759.0958,532.0552 761.1235,532.3967 763.1513,532.7378 765.179,533.0783 767.2068,533.4181 769.2345,533.7572 771.2623,534.0954 773.2901,534.4326 775.3178,534.7688 777.3456,535.1037 779.3733,535.4373 781.4011,535.7696 783.4289,536.1003 785.4566,536.4294 787.4844,536.7568 789.5121,537.0825 791.5399,537.4062 793.5677,537.7279 795.5954,538.0476 797.6232,538.3651 799.6509,538.6803 801.6787,538.9932 803.7065,539.3036 805.7342,539.6115 807.762,539.9168 809.7897,540.2195 811.8175,540.5193 813.8452,540.8164 815.873,541.1105 817.9008,541.4016 819.9285,541.6897 821.9563,541.9746 823.984,542.2564 826.0118,542.5348 828.0396,542.81 830.0673,543.0817 832.0951,543.35 834.1228,543.6147 836.1506,543.8759 838.1784,544.1334 840.2061,544.3873 842.2339,544.6374 844.2616,544.8837 846.2894,545.1261 848.3171,545.3646 850.3449,545.5992 852.3727,545.8298 854.4004,546.0564 856.4282,546.2789 858.4559,546.4973 860.4837,546.7115 862.5115,546.9216 864.5392,547.1274 866.567,547.3289 868.5947,547.5262 870.6225,547.7192 872.6503,547.9078 874.678,548.092 876.7058,548.2718 878.7335,548.4472 880.7613,548.6182 882.789,548.7847 884.8168,548.9467 886.8446,549.1042 888.8723,549.2573 890.9001,549.4057 892.9278,549.5497 894.9556,549.6891 896.9834,549.8239 899.0111,549.9542 901.0389,550.0799 903.0666,550.2011 905.0944,550.3177 907.1222,550.4297 909.1499,550.5371 911.1777,550.6399 913.2054,550.7382 915.2332,550.8319 917.2609,550.9211 919.2887,551.0057 921.3165,551.0858 923.3442,551.1614 925.372,551.2324 927.3997,551.299 929.4275,551.361 931.4553,551.4186 933.483,551.4718 935.5108,551.5205 937.5385,551.5648 939.5663,551.6047 941.5941,551.6403 943.6218,551.6715 945.6496,551.6984 947.6773,551.721 949.7051,551.7394 951.7329,551.7535 953.7606,551.7634 955.7884,551.7691 957.8161,551.7708 959.8439,551.7683 961.8716,551.7617 963.8994,551.7511 965.9272,551.7366 967.9549,551.718 969.9827,551.6956 972.0104,551.6693 974.0382,551.6391 976.066,551.6051 978.0937,551.5674 980.1215,551.526 982.1492,551.481 984.177,551.4323 986.2048,551.38 988.2325,551.3242 990.2603,551.265 992.288,551.2023 994.3158,551.1362 996.3435,551.0668 998.3713,550.9942 1000.3991,550.9183 1002.4268,550.8392 1004.4546,550.7571 1006.4823,550.6718 1008.5101,550.5836 1010.5379,550.4924 1012.5656,550.3983 1014.5934,550.3013 1016.6211,550.2016 1018.6489,550.0992 1020.6767,549.994 1022.7044,549.8863 1024.7322,549.776 1026.7599,549.6632 1028.7877,549.5479 1030.8154,549.4303 1032.8432,549.3104 1034.871,549.1882 1036.8987,549.0638 1038.9265,548.9373 1040.9542,548.8087 1042.982,548.6781 1045.0098,548.5455 1047.0375,548.411 1049.0653,548.2747 1051.093,548.1367 1053.1208,547.9969 1055.1486,547.8555 1057.1763,547.7125 1059.2041,547.568 1061.2318,547.4221 1063.2596,547.2747 1065.2874,547.126 1067.3151,546.9761 1069.3429,546.8249 1071.3706,546.6726 1073.3984,546.5192 1075.4261,546.3648 1077.4539,546.2094 1079.4817,546.0532 1081.5094,545.8961 1083.5372,545.7382 1085.5649,545.5797 1087.5927,545.4204 1089.6205,545.2606 1091.6482,545.1003 1093.676,544.9395 1095.7037,544.7783 1097.7315,544.6167 1099.7593,544.4549 1101.787,544.2928 1103.8148,544.1306 1105.8425,543.9683 1107.8703,543.8059 1109.898,543.6435 1111.9258,543.4812 1113.9536,543.3189 1115.9813,543.1569 1118.0091,542.9951 1120.0368,542.8336 1122.0646,542.6725 1124.0924,542.5117 1126.1201,542.3514 1128.1479,542.1916 1130.1756,542.0324 1132.2034,541.8737 1134.2312,541.7158 1136.2589,541.5585 1138.2867,541.402 1140.3144,541.2463 1142.3422,541.0915 1144.3699,540.9377 1146.3977,540.7847 1148.4255,540.6328 1150.4532,540.4819 1152.481,540.3322 1154.5087,540.1836 1156.5365,540.0361 1158.5643,539.8899 1160.592,539.745 1162.6198,539.6015 1164.6475,539.4592 1166.6753,539.3184 1168.7031,539.179 1170.7308,539.0412 1172.7586,538.9048 1174.7863,538.77 1176.8141,538.6368 1178.8418,538.5052 1180.8696,538.3753 1182.8974,538.2471 1184.9251,538.1207 1186.9529,537.996 1188.9806,537.8731 1191.0084,537.7521 1193.0362,537.6329 1195.0639,537.5157 1197.0917,537.4003 1199.1194,537.2869 1201.1472,537.1755 1203.175,537.0661 1205.2027,536.9587 1207.2305,536.8534 1209.2582,536.7502 1211.286,536.649 1213.3138,536.55 1215.3415,536.4531 1217.3693,536.3585 1219.397,536.2659 1221.4248,536.1756 1223.4525,536.0876 1225.4803,536.0017 1227.5081,535.9181 1229.5358,535.8368 1231.5636,535.7578 1233.5913,535.6811 1235.6191,535.6066 1237.6469,535.5345 1239.6746,535.4648 1241.7024,535.3974 1243.7301,535.3323 1245.7579,535.2696 1247.7857,535.2092 1249.8134,535.1512 1251.8412,535.0956 1253.8689,535.0424 1255.2563,535.0074" style="fill:none;stroke:rgb(78,154,6);stroke-width:2;stroke-linejoin:bevel" />
    <polyline points="236.9707,664.4443" style="fill:none;stroke:rgb(200,141,0);stroke-width:2;stroke-linejoin:bevel" />
    <ellipse cx="236.9707" cy="664.4443" rx="3" ry="3" style="fill:rgb(200,141,0);stroke:none;" shape-rendering="geometricPrecision" />
    <text dominant-baseline="baseline" text-anchor="middle" transform="translate(236.9707,658.4443)" font-family="Segoe UI" font-size="12" font-weight="400" fill="black">(2,459; -0,128)</text>
  </g>
  <defs>
    <clipPath id="clipPath3">
      <rect x="0" y="0" width="1280" height="720" />
    </clipPath>
  </defs>
  <g clip-path="url(#clipPath3)">
    <rect x="59.551" y="13.0265" width="1207.445" height="657.8675" style="fill:none;stroke:black;stroke-width:1" shape-rendering="crispEdges" />
  </g>
</svg>