<?xml version="1.0" encoding="utf-8" standalone="no"?>
<!DOCTYPE svg PUBLIC "-//W3C//DTD SVG 1.1//EN" "http://www.w3.org/Graphics/SVG/1.1/DTD/svg11.dtd">
<svg width="1280" height="720" version="1.1" xmlns:xlink="http://www.w3.org/1999/xlink" xmlns="http://www.w3.org/2000/svg">
  <defs>
    <clipPath id="clipPath1">
      <rect x="0" y="0" width="1280" height="720" />
    </clipPath>
  </defs>
  <g clip-path="url(#clipPath1)">
    <polyline points="110.597,670.894 110.597,674.894" style="fill:none;stroke:black;stroke-width:1" shape-rendering="crispEdges" />
    <polyline points="139.9156,670.894 139.9156,674.894" style="fill:none;stroke:black;stroke-width:1" shape-rendering="crispEdges" />
    <polyline points="169.2342,670.894 169.2342,674.894" style="fill:none;stroke:black;stroke-width:1" shape-rendering="crispEdges" />
    <polyline points="198.5528,670.894 198.5528,674.894" style="fill:none;stroke:black;stroke-width:1" shape-rendering="crispEdges" />
    <polyline points="257.19,670.894 257.19,674.894" style="fill:none;stroke:black;stroke-width:1" shape-rendering="crispEdges" />
    <polyline points="286.5086,670.894 286.5086,674.894" style="fill:none;stroke:black;stroke-width:1" shape-rendering="crispEdges" />
    <polyline points="315.8272,670.894 315.8272,674.894" style="fill:none;stroke:black;stroke-width:1" shape-rendering="crispEdges" />
    <polyline points="345.1458,670.894 345.1458,674.894" style="fill:none;stroke:black;stroke-width:1" shape-rendering="crispEdges" />
    <polyline points="403.7829,670.894 403.7829,674.894" style="fill:none;stroke:black;stroke-width:1" shape-rendering="crispEdges" />
    <polyline points="433.1015,670.894 433.1015,674.894" style="fill:none;stroke:black;stroke-width:1" shape-rendering="crispEdges" />
    <polyline points="462.4201,670.894 462.4201,674.894" style="fill:none;stroke:black;stroke-width:1" shape-rendering="crispEdges" />
    <polyline points="491.7387,670.894 491.7387,674.894" style="fill:none;stroke:black;stroke-width:1" shape-rendering="crispEdges" />
    <polyline points="550.3759,670.894 550.3759,674.894" style="fill:none;stroke:black;stroke-width:1" shape-rendering="crispEdges" />
    <polyline points="579.6945,670.894 579.6945,674.894" style="fill:none;stroke:black;stroke-width:1" shape-rendering="crispEdges" />
    <polyline points="609.0131,670.894 609.0131,674.894" style="fill:none;stroke:black;stroke-width:1" shape-rendering="crispEdges" />
    <polyline points="638.3317,670.894 638.3317,674.894" style="fill:none;stroke:black;stroke-width:1" shape-rendering="crispEdges" />
    <polyline points="696.9688,670.894 696.9688,674.894" style="fill:none;stroke:black;stroke-width:1" shape-rendering="crispEdges" />
    <polyline points="726.2874,670.894 726.2874,674.894" style="fill:none;stroke:black;stroke-width:1" shape-rendering="crispEdges" />
    <polyline points="755.606,670.894 755.606,674.894" style="fill:none;stroke:black;stroke-width:1" shape-rendering="crispEdges" />
    <polyline points="784.9246,670.894 784.9246,674.894" style="fill:none;stroke:black;stroke-width:1" shape-rendering="crispEdges" />
    <polyline points="843.5618,670.894 843.5618,674.894" style="fill:none;stroke:black;stroke-width:1" shape-rendering="crispEdges" />
    <polyline points="872.8804,670.894 872.8804,674.894" style="fill:none;stroke:black;stroke-width:1" shape-rendering="crispEdges" />
    <polyline points="902.199,670.894 902.199,674.894" style="fill:none;stroke:black;stroke-width:1" shape-rendering="crispEdges" />
    <polyline points="931.5176,670.894 931.5176,674.894" style="fill:none;stroke:black;stroke-width:1" shape-rendering="crispEdges" />
    <polyline points="990.1547,670.894 990.1547,674.894" style="fill:none;stroke:black;stroke-width:1" shape-rendering="crispEdges" />
    <polyline points="1019.4733,670.894 1019.4733,674.894" style="fill:none;stroke:black;stroke-width:1" shape-rendering="crispEdges" />
    <polyline points="1048.7919,670.894 1048.7919,674.894" style="fill:none;stroke:black;stroke-width:1" shape-rendering="crispEdges" />
    <polyline points="1078.1105,670.894 1078.1105,674.894" style="fill:none;stroke:black;stroke-width:1" shape-rendering="crispEdges" />
    <polyline points="1136.7477,670.894 1136.7477,674.894" style="fill:none;stroke:black;stroke-width:1" shape-rendering="crispEdges" />
    <polyline points="1166.0663,670.894 1166.0663,674.894" style="fill:none;stroke:black;stroke-width:1" shape-rendering="crispEdges" />
    <polyline points="1195.3849,670.894 1195.3849,674.894" style="fill:none;stroke:black;stroke-width:1" shape-rendering="crispEdges" />
    <polyline points="1224.7035,670.894 1224.7035,674.894" style="fill:none;stroke:black;stroke-width:1" shape-rendering="crispEdges" />
    <polyline points="59.551,667.1323 55.551,667.1323" style="fill:none;stroke:black;stroke-width:1" shape-rendering="crispEdges" />
    <polyline points="59.551,651.9061 55.551,651.9061" style="fill:none;stroke:black;stroke-width:1" shape-rendering="crispEdges" />
    <polyline points="59.551,636.68 55.551,636.68" style="fill:none;stroke:black;stroke-width:1" shape-rendering="crispEdges" />
    <polyline points="59.551,621.4539 55.551,621.4539" style="fill:none;stroke:black;stroke-width:1" shape-rendering="crispEdges" />
    <polyline points="59.551,591.0016 55.551,591.0016" style="fill:none;stroke:black;stroke-width:1" shape-rendering="crispEdges" />
    <polyline points="59.551,575.7755 55.551,575.7755" style="fill:none;stroke:black;stroke-width:1" shape-rendering="crispEdges" />
    <polyline points="59.551,560.5493 55.551,560.5493" style="fill:none;stroke:black;stroke-width:1" shape-rendering="crispEdges" />
    <polyline points="59.551,545.3232 55.551,545.3232" style="fill:none;stroke:black;stroke-width:1" shape-rendering="crispEdges" />
    <polyline points="59.551,514.8709 55.551,514.8709" style="fill:none;stroke:black;stroke-width:1" shape-rendering="crispEdges" />
    <polyline points="59.551,499.6448 55.551,499.6448" style="fill:none;stroke:black;stroke-width:1" shape-rendering="crispEdges" />
    <polyline points="59.551,484.4187 55.551,484.4187" style="fill:none;stroke:black;stroke-width:1" shape-rendering="crispEdges" />
    <polyline points="59.551,469.1926 55.551,469.1926" style="fill:none;stroke:black;stroke-width:1" shape-rendering="crispEdges" />
    <polyline points="59.551,438.7403 55.551,438.7403" style="fill:none;stroke:black;stroke-width:1" shape-rendering="crispEdges" />
    <polyline points="59.551,423.5142 55.551,423.5142" style="fill:none;stroke:black;stroke-width:1" shape-rendering="crispEdges" />
    <polyline points="59.551,408.288 55.551,408.288" style="fill:none;stroke:black;stroke-width:1" shape-rendering="crispEdges" />
    <polyline points="59.551,393.0619 55.551,393.0619" style="fill:none;stroke:black;stroke-width:1" shape-rendering="crispEdges" />
    <polyline points="59.551,362.6096 55.551,362.6096" style="fill:none;stroke:black;stroke-width:1" shape-rendering="crispEdges" />
    <polyline points="59.551,347.3835 55.551,347.3835" style="fill:none;stroke:black;stroke-width:1" shape-rendering="crispEdges" />
    <polyline points="59.551,332.1574 55.551,332.1574" style="fill:none;stroke:black;stroke-width:1" shape-rendering="crispEdges" />
    <polyline points="59.551,316.9312 55.551,316.9312" style="fill:none;stroke:black;stroke-width:1" shape-rendering="crispEdges" />
    <polyline points="59.551,286.479 55.551,286.479" style="fill:none;stroke:black;stroke-width:1" shape-rendering="crispEdges" />
    <polyline points="59.551,271.2528 55.551,271.2528" style="fill:none;stroke:black;stroke-width:1" shape-rendering="crispEdges" />
    <polyline points="59.551,256.0267 55.551,256.0267" style="fill:none;stroke:black;stroke-width:1" shape-rendering="crispEdges" />
    <polyline points="59.551,240.8006 55.551,240.8006" style="fill:none;stroke:black;stroke-width:1" shape-rendering="crispEdges" />
    <polyline points="59.551,210.3483 55.551,210.3483" style="fill:none;stroke:black;stroke-width:1" shape-rendering="crispEdges" />
    <polyline points="59.551,195.1222 55.551,195.1222" style="fill:none;stroke:black;stroke-width:1" shape-rendering="crispEdges" />
    <polyline points="59.551,179.8961 55.551,179.8961" style="fill:none;stroke:black;stroke-width:1" shape-rendering="crispEdges" />
    <polyline points="59.551,164.6699 55.551,164.6699" style="fill:none;stroke:black;stroke-width:1" shape-rendering="crispEdges" />
    <polyline points="59.551,134.2177 55.551,134.2177" style="fill:none;stroke:black;stroke-width:1" shape-rendering="crispEdges" />
    <polyline points="59.551,118.9915 55.551,118.9915" style="fill:none;stroke:black;stroke-width:1" shape-rendering="crispEdges" />
    <polyline points="59.551,103.7654 55.551,103.7654" style="fill:none;stroke:black;stroke-width:1" shape-rendering="crispEdges" />
    <polyline points="59.551,88.5393 55.551,88.5393" style="fill:none;stroke:black;stroke-width:1" shape-rendering="crispEdges" />
    <polyline points="59.551,58.087 55.551,58.087" style="fill:none;stroke:black;stroke-width:1" shape-rendering="crispEdges" />
    <polyline points="59.551,42.8609 55.551,42.8609" style="fill:none;stroke:black;stroke-width:1" shape-rendering="crispEdges" />
    <polyline points="59.551,27.6347 55.551,27.6347" style="fill:none;stroke:black;stroke-width:1" shape-rendering="crispEdges" />
    <text dominant-baseline="hanging" text-anchor="middle" transform="translate(81.2784,681.894)" font-family="Segoe UI" font-size="12" font-weight="400" fill="black">0</text>
    <text dominant-baseline="hanging" text-anchor="middle" transform="translate(227.8714,681.894)" font-family="Segoe UI" font-size="12" font-weight="400" fill="black">0,5</text>
    <text dominant-baseline="hanging" text-anchor="middle" transform="translate(374.4643,681.894)" font-family="Segoe UI" font-size="12" font-weight="400" fill="black">1</text>
    <text dominant-baseline="hanging" text-anchor="middle" transform="translate(521.0573,681.894)" font-family="Segoe UI" font-size="12" font-weight="400" fill="black">1,5</text>
    <text dominant-baseline="hanging" text-anchor="middle" transform="translate(667.6503,681.894)" font-family="Segoe UI" font-size="12" font-weight="400" fill="black">2</text>
    <text dominant-baseline="hanging" text-anchor="middle" transform="translate(814.2432,681.894)" font-family="Segoe UI" font-size="12" font-weight="400" fill="black">2,5</text>
    <text dominant-baseline="hanging" text-anchor="middle" transform="translate(960.8362,681.894)" font-family="Segoe UI" font-size="12" font-weight="400" fill="black">3</text>
    <text dominant-baseline="hanging" text-anchor="middle" transform="translate(1107.4291,681.894)" font-family="Segoe UI" font-size="12" font-weight="400" fill="black">3,5</text>
    <text dominant-baseline="hanging" text-anchor="middle" transform="translate(1254.0221,681.894)" font-family="Segoe UI" font-size="12" font-weight="400" fill="black">4</text>
    <polyline points="81.2784,670.894 81.2784,677.894" style="fill:none;stroke:black;stroke-width:1" shape-rendering="crispEdges" />
    <polyline points="227.8714,670.894 227.8714,677.894" style="fill:none;stroke:black;stroke-width:1" shape-rendering="crispEdges" />
    <polyline points="374.4643,670.894 374.4643,677.894" style="fill:none;stroke:black;stroke-width:1" shape-rendering="crispEdges" />
    <polyline points="521.0573,670.894 521.0573,677.894" style="fill:none;stroke:black;stroke-width:1" shape-rendering="crispEdges" />
    <polyline points="667.6503,670.894 667.6503,677.894" style="fill:none;stroke:black;stroke-width:1" shape-rendering="crispEdges" />
    <polyline points="814.2432,670.894 814.2432,677.894" style="fill:none;stroke:black;stroke-width:1" shape-rendering="crispEdges" />
    <polyline points="960.8362,670.894 960.8362,677.894" style="fill:none;stroke:black;stroke-width:1" shape-rendering="crispEdges" />
    <polyline points="1107.4291,670.894 1107.4291,677.894" style="fill:none;stroke:black;stroke-width:1" shape-rendering="crispEdges" />
    <polyline points="1254.0221,670.894 1254.0221,677.894" style="fill:none;stroke:black;stroke-width:1" shape-rendering="crispEdges" />
    <text dominant-baseline="baseline" text-anchor="middle" transform="translate(662.6503,708)" font-family="Segoe UI" font-size="12" font-weight="400" fill="black">x</text>
    <text dominant-baseline="middle" text-anchor="end" transform="translate(48.551,606.2277)" font-family="Segoe UI" font-size="12" font-weight="400" fill="black">-1,5</text>
    <text dominant-baseline="middle" text-anchor="end" transform="translate(48.551,530.0971)" font-family="Segoe UI" font-size="12" font-weight="400" fill="black">-1</text>
    <text dominant-baseline="middle" text-anchor="end" transform="translate(48.551,453.9664)" font-family="Segoe UI" font-size="12" font-weight="400" fill="black">-0,5</text>
    <text dominant-baseline="middle" text-anchor="end" transform="translate(48.551,377.8358)" font-family="Segoe UI" font-size="12" font-weight="400" fill="black">0</text>
    <text dominant-baseline="middle" text-anchor="end" transform="translate(48.551,301.7051)" font-family="Segoe UI" font-size="12" font-weight="400" fill="black">0,5</text>
    <text dominant-baseline="middle" text-anchor="end" transform="translate(48.551,225.5745)" font-family="Segoe UI" font-size="12" font-weight="400" fill="black">1</text>
    <text dominant-baseline="middle" text-anchor="end" transform="translate(48.551,149.4438)" font-family="Segoe UI" font-size="12" font-weight="400" fill="black">1,5</text>
    <text dominant-baseline="middle" text-anchor="end" transform="translate(48.551,73.3131)" font-family="Segoe UI" font-size="12" font-weight="400" fill="black">2</text>
    <polyline points="59.551,606.2277 52.551,606.2277" style="fill:none;stroke:black;stroke-width:1" shape-rendering="crispEdges" />
    <polyline points="59.551,530.0971 52.551,530.0971" style="fill:none;stroke:black;stroke-width:1" shape-rendering="crispEdges" />
    <polyline points="59.551,453.9664 52.551,453.9664" style="fill:none;stroke:black;stroke-width:1" shape-rendering="crispEdges" />
    <polyline points="59.551,377.8358 52.551,377.8358" style="fill:none;stroke:black;stroke-width:1" shape-rendering="crispEdges" />
    <polyline points="59.551,301.7051 52.551,301.7051" style="fill:none;stroke:black;stroke-width:1" shape-rendering="crispEdges" />
    <polyline points="59.551,225.5745 52.551,225.5745" style="fill:none;stroke:black;stroke-width:1" shape-rendering="crispEdges" />
    <polyline points="59.551,149.4438 52.551,149.4438" style="fill:none;stroke:black;stroke-width:1" shape-rendering="crispEdges" />
    <polyline points="59.551,73.3131 52.551,73.3131" style="fill:none;stroke:black;stroke-width:1" shape-rendering="crispEdges" />
    <text dominant-baseline="hanging" text-anchor="middle" transform="translate(12,341.9603) rotate(-90)" font-family="Segoe UI" font-size="12" font-weight="400" fill="black">f(x)</text>
  </g>
  <defs>
    <clipPath id="clipPath2">
      <rect x="59.551" y="13.0265" width="1206.1985" height="657.8675" />
    </clipPath>
  </defs>
  <g clip-path="url(#clipPath2)">
    <polyline points="81.2784,377.8358 81.8648,375.3692 82.4512,372.9027 83.0376,370.4366 83.6239,367.9709 84.2103,365.5058 84.7967,363.0416 85.383,360.5782 85.9694,358.116 86.5558,355.655 87.1422,353.1954 87.7285,350.7374 88.3149,348.281 88.9013,345.8266 89.4876,343.3742 90.074,340.9239 90.6604,338.476 91.2468,336.0306 91.8331,333.5878 92.4195,331.1478 93.0059,328.7107 93.5922,326.2768 94.1786,323.8461 94.765,321.4188 95.3514,318.9951 95.9377,316.5752 96.5241,314.159 97.1105,311.747 97.6968,309.339 98.2832,306.9355 98.8696,304.5364 99.456,302.1419 100.0423,299.7522 100.6287,297.3675 101.2151,294.9878 101.8014,292.6134 102.3878,290.2443 102.9742,287.8808 103.5606,285.523 104.1469,283.171 104.7333,280.825 105.3197,278.4852 105.9061,276.1516 106.4924,273.8244 107.0788,271.5038 107.6652,269.1899 108.2515,266.8829 108.8379,264.5829 109.4243,262.2901 110.0107,260.0046 110.597,257.7265 111.1834,255.456 111.7698,253.1932 112.3561,250.9383 112.9425,248.6914 113.5289,246.4527 114.1153,244.2223 114.7016,242.0003 115.288,239.7869 115.8744,237.5822 116.4607,235.3864 117.0471,233.1996 117.6335,231.0219 118.2199,228.8535 118.8062,226.6946 119.3926,224.5451 119.979,222.4054 120.5653,220.2754 121.1517,218.1555 121.7381,216.0456 122.3245,213.9459 122.9108,211.8566 123.4972,209.7777 124.0836,207.7095 124.67,205.652 125.2563,203.6054 125.8427,201.5698 126.4291,199.5454 127.0154,197.5322 127.6018,195.5304 128.1882,193.5401 128.7746,191.5614 129.3609,189.5945 129.9473,187.6395 130.5337,185.6965 131.12,183.7656 131.7064,181.847 132.586,178.9923 133.4655,176.1659 134.3451,173.3681 135.2246,170.5994 136.1042,167.8601 136.9838,165.1506 137.8633,162.4714 138.7429,159.8227 139.6224,157.205 140.502,154.6186 141.3815,152.064 142.2611,149.5414 143.1407,147.0512 144.0202,144.5937 144.8998,142.1694 145.7793,139.7786 146.6589,137.4215 147.5385,135.0986 148.418,132.8102 149.2976,130.5565 150.1771,128.3379 151.0567,126.1547 151.9362,124.0073 152.8158,121.8959 153.6954,119.8208 154.5749,117.7823 155.4545,115.7807 156.334,113.8163 157.2136,111.8893 158.0931,110.0001 158.9727,108.1489 159.8523,106.3359 161.025,103.9785 162.1977,101.6902 163.3705,99.4715 164.5432,97.323 165.716,95.2451 166.8887,93.2385 168.0615,91.3036 169.2342,89.4409 170.407,87.6509 171.5797,85.934 172.7524,84.2905 174.2184,82.3403 175.6843,80.5063 177.1502,78.7893 178.6162,77.1899 180.0821,75.7087 181.548,74.3463 183.3071,72.869 185.0662,71.5643 186.8254,70.4329 188.5845,69.4753 190.6368,68.5787 192.6891,67.92 194.7414,67.4997 196.7937,67.3182 198.846,67.3753 200.8983,67.6711 202.9506,68.2051 205.0029,68.9769 207.0552,69.9858 208.8143,71.0386 210.5734,72.2643 212.3325,73.6622 214.0917,75.2313 215.5576,76.669 217.0235,78.2244 218.4894,79.8969 219.9554,81.6857 221.4213,83.59 222.8872,85.6091 224.06,87.3065 225.2327,89.0764 226.4055,90.9182 227.5782,92.8316 228.7509,94.816 229.9237,96.8709 231.0964,98.9957 232.2692,101.1899 233.4419,103.453 234.6147,105.7842 235.7874,108.1831 236.667,110.0262 237.5465,111.9068 238.4261,113.8244 239.3056,115.7789 240.1852,117.77 241.0648,119.7973 241.9443,121.8606 242.8239,123.9595 243.7034,126.0938 244.583,128.2631 245.4625,130.4672 246.3421,132.7056 247.2217,134.9781 248.1012,137.2843 248.9808,139.624 249.8603,141.9966 250.7399,144.402 251.6194,146.8397 252.499,149.3094 253.3786,151.8107 254.2581,154.3433 255.1377,156.9068 256.0172,159.5008 256.8968,162.1249 257.7764,164.7788 258.6559,167.462 259.5355,170.1742 260.415,172.915 261.2946,175.6839 262.1741,178.4806 263.0537,181.3047 263.9333,184.1557 264.5196,186.0711 265.106,187.9982 265.6924,189.9368 266.2787,191.8869 266.8651,193.8482 267.4515,195.8207 268.0379,197.8042 268.6242,199.7986 269.2106,201.8038 269.797,203.8196 270.3833,205.846 270.9697,207.8827 271.5561,209.9297 272.1425,211.9867 272.7288,214.0538 273.3152,216.1307 273.9016,218.2173 274.4879,220.3135 275.0743,222.4191 275.6607,224.5341 276.2471,226.6582 276.8334,228.7913 277.4198,230.9333 278.0062,233.0841 278.5926,235.2434 279.1789,237.4113 279.7653,239.5875 280.3517,241.7718 280.938,243.9642 281.5244,246.1645 282.1108,248.3726 282.6972,250.5883 283.2835,252.8115 283.8699,255.042 284.4563,257.2796 285.0426,259.5244 285.629,261.776 286.2154,264.0343 286.8018,266.2993 287.3881,268.5707 287.9745,270.8485 288.5609,273.1323 289.1472,275.4222 289.7336,277.718 290.32,280.0195 290.9064,282.3265 291.4927,284.639 292.0791,286.9567 292.6655,289.2796 293.2518,291.6074 293.8382,293.94 294.4246,296.2773 295.011,298.6191 295.5973,300.9652 296.1837,303.3156 296.7701,305.67 297.3564,308.0283 297.9428,310.3904 298.5292,312.7561 299.1156,315.1252 299.7019,317.4976 300.2883,319.8731 300.8747,322.2516 301.4611,324.6329 302.0474,327.017 302.6338,329.4035 303.2202,331.7924 303.8065,334.1835 304.3929,336.5767 304.9793,338.9717 305.5657,341.3685 306.152,343.7669 306.7384,346.1667 307.3248,348.5678 307.9111,350.9701 308.4975,353.3733 309.0839,355.7773 309.6703,358.1819 310.2566,360.5871 310.843,362.9926 311.4294,365.3983 312.0157,367.804 312.6021,370.2096 313.1885,372.6149 313.7749,375.0197 314.3612,377.424 314.9476,379.8276 315.534,382.2302 316.1203,384.6318 316.7067,387.0321 317.2931,389.4311 317.8795,391.8285 318.4658,394.2243 319.0522,396.6182 319.6386,399.0102 320.225,401.4 320.8113,403.7875 321.3977,406.1725 321.9841,408.5549 322.5704,410.9346 323.1568,413.3113 323.7432,415.685 324.3296,418.0554 324.9159,420.4225 325.5023,422.786 326.0887,425.1458 326.675,427.5018 327.2614,429.8538 327.8478,432.2017 328.4342,434.5452 329.0205,436.8843 329.6069,439.2188 330.1933,441.5486 330.7796,443.8734 331.366,446.1932 331.9524,448.5078 332.5388,450.817 333.1251,453.1207 333.7115,455.4187 334.2979,457.711 334.8842,459.9973 335.4706,462.2775 336.057,464.5514 336.6434,466.819 337.2297,469.08 337.8161,471.3343 338.4025,473.5818 338.9888,475.8223 339.5752,478.0557 340.1616,480.2818 340.748,482.5005 341.3343,484.7116 341.9207,486.915 342.5071,489.1106 343.0935,491.2982 343.6798,493.4776 344.2662,495.6488 344.8526,497.8116 345.4389,499.9658 346.0253,502.1113 346.6117,504.248 347.1981,506.3757 347.7844,508.4943 348.3708,510.6036 348.9572,512.7036 349.5435,514.794 350.1299,516.8748 350.7163,518.9458 351.3027,521.0069 351.889,523.0579 352.4754,525.0987 353.0618,527.1292 353.6481,529.1492 354.2345,531.1586 354.8209,533.1574 355.4073,535.1452 355.9936,537.1221 356.58,539.0879 357.1664,541.0425 357.7527,542.9857 358.3391,544.9174 358.9255,546.8374 359.805,549.6955 360.6846,552.5268 361.5642,555.3308 362.4437,558.1071 363.3233,560.8554 364.2028,563.5752 365.0824,566.2662 365.962,568.9279 366.8415,571.5599 367.7211,574.162 368.6006,576.7336 369.4802,579.2744 370.3597,581.7841 371.2393,584.2622 372.1189,586.7085 372.9984,589.1224 373.878,591.5038 374.7575,593.8522 375.6371,596.1674 376.5166,598.4489 377.3962,600.6964 378.2758,602.9096 379.1553,605.0881 380.0349,607.2317 380.9144,609.3401 381.794,611.4129 382.6735,613.4498 383.5531,615.4505 384.4327,617.4147 385.3122,619.3422 386.1918,621.2326 387.0713,623.0857 387.9509,624.9012 389.1236,627.2629 390.2964,629.5566 391.4691,631.7818 392.6419,633.9379 393.8146,636.0243 394.9874,638.0404 396.1601,639.9857 397.3328,641.8598 398.5056,643.662 399.6783,645.392 400.8511,647.0493 402.317,649.0179 403.7829,650.8714 405.2489,652.609 406.7148,654.2299 408.1807,655.7336 409.6467,657.1192 411.4058,658.6256 413.1649,659.9603 414.924,661.1226 416.6831,662.1117 418.7354,663.0461 420.7877,663.7431 422.84,664.2021 424.8923,664.4228 426.9446,664.4048 428.9969,664.1481 431.0492,663.6527 433.1015,662.9191 435.1538,661.9476 436.9129,660.9262 438.6721,659.731 440.4312,658.3628 442.1903,656.8223 443.6562,655.4075 445.1221,653.8741 446.5881,652.2228 448.054,650.4542 449.5199,648.5688 450.9859,646.5676 452.1586,644.8836 453.3314,643.1263 454.5041,641.2962 455.6768,639.3937 456.8496,637.4192 458.0223,635.3733 459.1951,633.2565 460.3678,631.0692 461.5406,628.8121 462.7133,626.4857 463.886,624.0905 464.7656,622.2494 465.6452,620.3702 466.5247,618.4533 467.4043,616.4988 468.2838,614.507 469.1634,612.4783 470.0429,610.4129 470.9225,608.3111 471.8021,606.1732 472.6816,603.9994 473.5612,601.7902 474.4407,599.5458 475.3203,597.2666 476.1999,594.9528 477.0794,592.6048 477.959,590.2229 478.8385,587.8074 479.7181,585.3587 480.5976,582.8772 481.4772,580.3632 482.3568,577.817 483.2363,575.239 484.1159,572.6296 484.9954,569.9891 485.875,567.3179 486.7545,564.6164 487.6341,561.885 488.5137,559.124 489.3932,556.3339 490.2728,553.5151 491.1523,550.6679 491.7387,548.7542 492.3251,546.8282 492.9114,544.89 493.4978,542.9397 494.0842,540.9775 494.6706,539.0036 495.2569,537.0179 495.8433,535.0206 496.4297,533.0119 497.0161,530.9919 497.6024,528.9608 498.1888,526.9185 498.7752,524.8654 499.3615,522.8014 499.9479,520.7268 500.5343,518.6416 501.1207,516.5461 501.707,514.4402 502.2934,512.3242 502.8798,510.1983 503.4661,508.0624 504.0525,505.9168 504.6389,503.7616 505.2253,501.5969 505.8116,499.4229 506.398,497.2398 506.9844,495.0475 507.5707,492.8464 508.1571,490.6364 508.7435,488.4178 509.3299,486.1908 509.9162,483.9553 510.5026,481.7117 511.089,479.46 511.6753,477.2003 512.2617,474.9329 512.8481,472.6578 513.4345,470.3752 514.0208,468.0852 514.6072,465.7881 515.1936,463.4838 515.78,461.1727 516.3663,458.8547 516.9527,456.5302 517.5391,454.1991 518.1254,451.8617 518.7118,449.5182 519.2982,447.1685 519.8846,444.813 520.4709,442.4518 521.0573,440.0849 521.6437,437.7126 522.23,435.335 522.8164,432.9523 523.4028,430.5645 523.9892,428.172 524.5755,425.7747 525.1619,423.3729 525.7483,420.9667 526.3346,418.5562 526.921,416.1417 527.5074,413.7232 528.0938,411.301 528.6801,408.8751 529.2665,406.4458 529.8529,404.0131 530.4392,401.5773 531.0256,399.1385 531.612,396.6968 532.1984,394.2524 532.7847,391.8054 533.3711,389.3561 533.9575,386.9045 534.5438,384.4508 535.1302,381.9952 535.7166,379.5379 536.303,377.0789 536.8893,374.6184 537.4757,372.1567 538.0621,369.6937 538.6485,367.2298 539.2348,364.7651 539.8212,362.2996 540.4076,359.8336 540.9939,357.3673 541.5803,354.9007 542.1667,352.4341 542.7531,349.9676 543.3394,347.5013 543.9258,345.0354 544.5122,342.5701 545.0985,340.1055 545.6849,337.6418 546.2713,335.1791 546.8577,332.7176 547.444,330.2574 548.0304,327.7987 548.6168,325.3417 549.2031,322.8865 549.7895,320.4332 550.3759,317.9821 550.9623,315.5332 551.5486,313.0868 552.135,310.6429 552.7214,308.2018 553.3077,305.7635 553.8941,303.3284 554.4805,300.8964 555.0669,298.4677 555.6532,296.0426 556.2396,293.6211 556.826,291.2034 557.4123,288.7897 557.9987,286.3801 558.5851,283.9748 559.1715,281.5739 559.7578,279.1776 560.3442,276.786 560.9306,274.3992 561.517,272.0175 562.1033,269.641 562.6897,267.2698 563.2761,264.9041 563.8624,262.544 564.4488,260.1897 565.0352,257.8413 565.6216,255.4989 566.2079,253.1628 566.7943,250.8331 567.3807,248.5098 567.967,246.1933 568.5534,243.8835 569.1398,241.5807 569.7262,239.285 570.3125,236.9965 570.8989,234.7155 571.4853,232.4419 572.0716,230.176 572.658,227.918 573.2444,225.6679 573.8308,223.4259 574.4171,221.1922 575.0035,218.9668 575.5899,216.75 576.1762,214.5418 576.7626,212.3425 577.349,210.1521 577.9354,207.9708 578.5217,205.7986 579.1081,203.6359 579.6945,201.4826 580.2808,199.339 580.8672,197.2052 581.4536,195.0812 582.04,192.9673 582.6263,190.8635 583.2127,188.7701 583.7991,186.687 584.3855,184.6146 584.9718,182.5528 585.5582,180.5019 586.1446,178.4619 586.7309,176.433 587.3173,174.4153 587.9037,172.4089 588.4901,170.414 589.0764,168.4307 589.6628,166.4591 590.2492,164.4993 590.8355,162.5515 591.4219,160.6158 592.0083,158.6923 592.8878,155.8302 593.7674,152.9962 594.647,150.1908 595.5265,147.4143 596.4061,144.6672 597.2856,141.9498 598.1652,139.2624 599.0447,136.6056 599.9243,133.9797 600.8039,131.3849 601.6834,128.8218 602.563,126.2907 603.4425,123.7918 604.3221,121.3257 605.2017,118.8925 606.0812,116.4928 606.9608,114.1267 607.8403,111.7947 608.7199,109.4971 609.5994,107.2342 610.479,105.0062 611.3586,102.8136 612.2381,100.6567 613.1177,98.5357 613.9972,96.4509 614.8768,94.4026 615.7563,92.3912 616.6359,90.4169 617.5155,88.48 618.395,86.5807 619.2746,84.7194 620.1541,82.8962 621.3269,80.5252 622.4996,78.2231 623.6724,75.9905 624.8451,73.8279 626.0179,71.736 627.1906,69.7152 628.3633,67.7659 629.5361,65.8888 630.7088,64.0843 631.8816,62.3528 633.0543,60.6947 634.5202,58.726 635.9862,56.8734 637.4521,55.1377 638.918,53.5195 640.384,52.0195 641.8499,50.6382 643.609,49.138 645.3681,47.8103 647.1272,46.6559 648.8864,45.6752 650.9387,44.7515 652.991,44.0658 655.0433,43.6184 657.0956,43.4096 659.1479,43.4396 661.2002,43.7082 663.2525,44.2152 665.3048,44.96 667.3571,45.9419 669.1162,46.9718 670.8753,48.1746 672.6344,49.5496 674.3935,51.096 675.8595,52.515 677.3254,54.0517 678.7913,55.7056 680.2572,57.4759 681.7232,59.3618 683.1891,61.3627 684.3618,63.0456 685.5346,64.8011 686.7073,66.6287 687.8801,68.5278 689.0528,70.4981 690.2256,72.539 691.3983,74.65 692.5711,76.8305 693.7438,79.0798 694.9165,81.3976 696.0893,83.783 696.9688,85.6162 697.8484,87.4868 698.728,89.3947 699.6075,91.3394 700.4871,93.3208 701.3666,95.3385 702.2462,97.3923 703.1257,99.4818 704.0053,101.6067 704.8849,103.7668 705.7644,105.9616 706.644,108.191 707.5235,110.4544 708.4031,112.7518 709.2826,115.0825 710.1622,117.4465 711.0418,119.8432 711.9213,122.2724 712.8009,124.7336 713.6804,127.2266 714.56,129.7509 715.4396,132.3062 716.3191,134.8921 717.1987,137.5083 718.0782,140.1543 718.9578,142.8298 719.8373,145.5343 720.7169,148.2676 721.5965,151.0291 722.476,153.8184 723.3556,156.6353 724.2351,159.4792 725.1147,162.3497 725.7011,164.278 726.2874,166.2178 726.8738,168.169 727.4602,170.1314 728.0465,172.105 728.6329,174.0897 729.2193,176.0852 729.8057,178.0915 730.392,180.1084 730.9784,182.1358 731.5648,184.1735 732.1511,186.2215 732.7375,188.2796 733.3239,190.3477 733.9103,192.4256 734.4966,194.5132 735.083,196.6104 735.6694,198.7169 736.2558,200.8328 736.8421,202.9578 737.4285,205.0919 738.0149,207.2348 738.6012,209.3864 739.1876,211.5467 739.774,213.7154 740.3604,215.8924 740.9467,218.0776 741.5331,220.2708 742.1195,222.4719 742.7058,224.6807 743.2922,226.8972 743.8786,229.1211 744.465,231.3524 745.0513,233.5908 745.6377,235.8362 746.2241,238.0885 746.8104,240.3475 747.3968,242.6132 747.9832,244.8852 748.5696,247.1636 749.1559,249.4481 749.7423,251.7386 750.3287,254.035 750.915,256.337 751.5014,258.6446 752.0878,260.9576 752.6742,263.2759 753.2605,265.5992 753.8469,267.9275 754.4333,270.2606 755.0197,272.5984 755.606,274.9406 756.1924,277.2872 756.7788,279.638 757.3651,281.9928 757.9515,284.3515 758.5379,286.714 759.1243,289.08 759.7106,291.4495 760.297,293.8222 760.8834,296.198 761.4697,298.5768 762.0561,300.9585 762.6425,303.3427 763.2289,305.7295 763.8152,308.1186 764.4016,310.51 764.988,312.9033 765.5743,315.2986 766.1607,317.6955 766.7471,320.0941 767.3335,322.4941 767.9198,324.8953 768.5062,327.2976 769.0926,329.7009 769.6789,332.105 770.2653,334.5097 770.8517,336.9149 771.4381,339.3204 772.0244,341.7261 772.6108,344.1318 773.1972,346.5374 773.7835,348.9426 774.3699,351.3475 774.9563,353.7517 775.5427,356.1551 776.129,358.5576 776.7154,360.9591 777.3018,363.3593 777.8882,365.7582 778.4745,368.1554 779.0609,370.551 779.6473,372.9448 780.2336,375.3365 780.82,377.7261 781.4064,380.1133 781.9928,382.4981 782.5791,384.8803 783.1655,387.2596 783.7519,389.6361 784.3382,392.0094 784.9246,394.3795 785.511,396.7462 786.0974,399.1094 786.6837,401.4688 787.2701,403.8244 787.8565,406.176 788.4428,408.5234 789.0292,410.8665 789.6156,413.2051 790.202,415.5391 790.7883,417.8684 791.3747,420.1927 791.9611,422.512 792.5474,424.826 793.1338,427.1347 793.7202,429.4378 794.3066,431.7353 794.8929,434.027 795.4793,436.3126 796.0657,438.5922 796.652,440.8655 797.2384,443.1324 797.8248,445.3927 798.4112,447.6464 798.9975,449.8931 799.5839,452.1329 800.1703,454.3656 800.7567,456.5909 801.343,458.8088 801.9294,461.0192 802.5158,463.2218 803.1021,465.4166 803.6885,467.6033 804.2749,469.7819 804.8613,471.9523 805.4476,474.1142 806.034,476.2675 806.6204,478.4121 807.2067,480.5479 807.7931,482.6747 808.3795,484.7923 808.9659,486.9007 809.5522,488.9997 810.1386,491.0892 810.725,493.169 811.3113,495.239 811.8977,497.299 812.4841,499.349 813.0705,501.3888 813.6568,503.4182 814.2432,505.4372 814.8296,507.4455 815.4159,509.4432 816.0023,511.4299 816.5887,513.4057 817.1751,515.3703 817.7614,517.3237 818.3478,519.2657 818.9342,521.1963 819.5205,523.1152 820.4001,525.9714 821.2797,528.8008 822.1592,531.603 823.0388,534.3774 823.9183,537.1238 824.7979,539.8417 825.6775,542.5307 826.557,545.1904 827.4366,547.8204 828.3161,550.4204 829.1957,552.9899 830.0752,555.5286 830.9548,558.0362 831.8344,560.5122 832.7139,562.9562 833.5935,565.368 834.473,567.7472 835.3526,570.0933 836.2321,572.4062 837.1117,574.6854 837.9913,576.9306 838.8708,579.1414 839.7504,581.3176 840.6299,583.4589 841.5095,585.5648 842.3891,587.6352 843.2686,589.6696 844.1482,591.6678 845.0277,593.6296 845.9073,595.5546 846.7868,597.4424 847.6664,599.293 848.546,601.1059 849.7187,603.4642 850.8914,605.7544 852.0642,607.9761 853.2369,610.1287 854.4097,612.2115 855.5824,614.224 856.7552,616.1657 857.9279,618.0361 859.1006,619.8347 860.2734,621.561 861.4461,623.2145 862.9121,625.1785 864.378,627.0273 865.8439,628.7601 867.3099,630.3763 868.7758,631.8752 870.2417,633.256 872.0008,634.7565 873.7599,636.0854 875.5191,637.2418 877.2782,638.2251 879.3305,639.1526 881.3828,639.8427 883.4351,640.2948 885.4874,640.5085 887.5397,640.4835 889.592,640.2199 891.6443,639.7176 893.6966,638.977 895.7489,637.9986 897.508,636.9713 899.2671,635.7702 901.0262,634.3962 902.7853,632.8498 904.2513,631.4302 905.7172,629.892 907.1831,628.2359 908.6491,626.4625 910.115,624.5724 911.5809,622.5664 912.7537,620.8787 913.9264,619.1178 915.0992,617.2839 916.2719,615.3777 917.4446,613.3996 918.6174,611.3501 919.7901,609.2296 920.9629,607.0388 922.1356,604.7781 923.3084,602.4482 924.4811,600.0496 925.3607,598.2059 926.2402,596.3241 927.1198,594.4046 927.9993,592.4476 928.8789,590.4533 929.7585,588.4221 930.638,586.3542 931.5176,584.2499 932.3971,582.1096 933.2767,579.9334 934.1562,577.7218 935.0358,575.475 935.9154,573.1934 936.7949,570.8773 937.6745,568.527 938.554,566.1428 939.4336,563.7251 940.3131,561.2741 941.1927,558.7904 942.0723,556.2742 942.9518,553.7258 943.8314,551.1457 944.7109,548.5341 945.5905,545.8915 946.47,543.2183 947.3496,540.5148 948.2292,537.7813 949.1087,535.0184 949.9883,532.2263 950.8678,529.4055 951.7474,526.5564 952.3338,524.6414 952.9201,522.7142 953.5065,520.7748 954.0929,518.8233 954.6793,516.8599 955.2656,514.8847 955.852,512.8979 956.4384,510.8994 957.0247,508.8896 957.6111,506.8685 958.1975,504.8361 958.7839,502.7928 959.3702,500.7385 959.9566,498.6735 960.543,496.5978 961.1293,494.5115 961.7157,492.4149 962.3021,490.308 962.8885,488.191 963.4748,486.064 964.0612,483.9272 964.6476,481.7806 965.2339,479.6244 965.8203,477.4588 966.4067,475.2839 966.9931,473.0998 967.5794,470.9066 968.1658,468.7045 968.7522,466.4937 969.3385,464.2743 969.9249,462.0463 970.5113,459.8101 971.0977,457.5656 971.684,455.3131 972.2704,453.0526 972.8568,450.7844 973.4432,448.5085 974.0295,446.2252 974.6159,443.9345 975.2023,441.6366 975.7886,439.3316 976.375,437.0198 976.9614,434.7012 977.5478,432.3759 978.1341,430.0442 978.7205,427.7062 979.3069,425.362 979.8932,423.0118 980.4796,420.6557 981.066,418.2938 981.6524,415.9264 982.2387,413.5536 982.8251,411.1754 983.4115,408.7922 983.9978,406.404 984.5842,404.0109 985.1706,401.6132 985.757,399.2109 986.3433,396.8042 986.9297,394.3934 987.5161,391.9784 988.1024,389.5596 988.6888,387.137 989.2752,384.7108 989.8616,382.2811 990.4479,379.8481 991.0343,377.4119 991.6207,374.9728 992.207,372.5308 992.7934,370.0862 993.3798,367.639 993.9662,365.1894 994.5525,362.7376 995.1389,360.2837 995.7253,357.8279 996.3117,355.3704 996.898,352.9112 997.4844,350.4506 998.0708,347.9887 998.6571,345.5257 999.2435,343.0617 999.8299,340.5969 1000.4163,338.1314 1001.0026,335.6653 1001.589,333.199 1002.1754,330.7324 1002.7617,328.2658 1003.3481,325.7993 1003.9345,323.333 1004.5209,320.8672 1005.1072,318.4019 1005.6936,315.9374 1006.28,313.4738 1006.8663,311.0112 1007.4527,308.5498 1008.0391,306.0898 1008.6255,303.6313 1009.2118,301.1744 1009.7982,298.7194 1010.3846,296.2664 1010.9709,293.8154 1011.5573,291.3668 1012.1437,288.9206 1012.7301,286.477 1013.3164,284.0362 1013.9028,281.5983 1014.4892,279.1634 1015.0755,276.7317 1015.6619,274.3034 1016.2483,271.8787 1016.8347,269.4576 1017.421,267.0403 1018.0074,264.627 1018.5938,262.2178 1019.1802,259.813 1019.7665,257.4125 1020.3529,255.0167 1020.9393,252.6255 1021.5256,250.2393 1022.112,247.8581 1022.6984,245.4821 1023.2848,243.1115 1023.8711,240.7463 1024.4575,238.3868 1025.0439,236.0331 1025.6302,233.6853 1026.2166,231.3436 1026.803,229.0081 1027.3894,226.679 1027.9757,224.3565 1028.5621,222.0406 1029.1485,219.7315 1029.7348,217.4294 1030.3212,215.1345 1030.9076,212.8467 1031.494,210.5664 1032.0803,208.2937 1032.6667,206.0286 1033.2531,203.7713 1033.8394,201.5221 1034.4258,199.2809 1035.0122,197.048 1035.5986,194.8235 1036.1849,192.6076 1036.7713,190.4003 1037.3577,188.2019 1037.9441,186.0124 1038.5304,183.832 1039.1168,181.6608 1039.7032,179.499 1040.2895,177.3468 1040.8759,175.2041 1041.4623,173.0713 1042.0487,170.9483 1042.635,168.8354 1043.2214,166.7327 1043.8078,164.6403 1044.3941,162.5583 1044.9805,160.487 1045.5669,158.4263 1046.1533,156.3765 1046.7396,154.3376 1047.326,152.3098 1047.9124,150.2933 1048.4987,148.2881 1049.0851,146.2943 1049.6715,144.3122 1050.2579,142.3418 1050.8442,140.3833 1051.4306,138.4367 1052.017,136.5022 1052.6033,134.58 1053.4829,131.7197 1054.3625,128.8877 1055.242,126.0842 1056.1216,123.3097 1057.0011,120.5646 1057.8807,117.8492 1058.7602,115.164 1059.6398,112.5092 1060.5194,109.8854 1061.3989,107.2928 1062.2785,104.7318 1063.158,102.2028 1064.0376,99.7062 1064.9172,97.2423 1065.7967,94.8114 1066.6763,92.4139 1067.5558,90.0502 1068.4354,87.7205 1069.3149,85.4252 1070.1945,83.1646 1071.0741,80.9391 1071.9536,78.7489 1072.8332,76.5944 1073.7127,74.4758 1074.5923,72.3935 1075.4718,70.3478 1076.3514,68.3389 1077.231,66.3671 1078.1105,64.4327 1078.9901,62.536 1079.8696,60.6772 1080.7492,58.8567 1081.9219,56.4891 1083.0947,54.1906 1084.2674,51.9615 1085.4402,49.8025 1086.6129,47.7142 1087.7857,45.697 1088.9584,43.7515 1090.1311,41.878 1091.3039,40.0772 1092.4766,38.3494 1093.6494,36.6951 1095.1153,34.7311 1096.5812,32.8833 1098.0472,31.1524 1099.5131,29.539 1100.979,28.0438 1102.4449,26.6673 1104.2041,25.173 1105.9632,23.8511 1107.7223,22.7026 1109.4814,21.7279 1111.5337,20.8111 1113.586,20.1322 1115.6383,19.6918 1117.6906,19.49 1119.7429,19.5269 1121.7952,19.8025 1123.8475,20.3163 1125.8998,21.068 1127.9521,22.0569 1129.7112,23.0926 1131.4704,24.3013 1133.2295,25.6821 1134.9886,27.2344 1136.4545,28.6581 1137.9204,30.1997 1139.3864,31.8583 1140.8523,33.6333 1142.3182,35.524 1143.7842,37.5295 1144.9569,39.2161 1146.1297,40.9753 1147.3024,42.8065 1148.4751,44.7093 1149.6479,46.6832 1150.8206,48.7277 1151.9934,50.8422 1153.1661,53.0262 1154.3389,55.2791 1155.5116,57.6003 1156.6843,59.9891 1157.5639,61.8249 1158.4435,63.698 1159.323,65.6084 1160.2026,67.5556 1161.0821,69.5395 1161.9617,71.5597 1162.8412,73.6159 1163.7208,75.7078 1164.6004,77.8351 1165.4799,79.9975 1166.3595,82.1947 1167.239,84.4264 1168.1186,86.6922 1168.9982,88.9918 1169.8777,91.3248 1170.7573,93.691 1171.6368,96.0899 1172.5164,98.5213 1173.3959,100.9847 1174.2755,103.4798 1175.1551,106.0063 1176.0346,108.5637 1176.9142,111.1517 1177.7937,113.7699 1178.6733,116.4179 1179.5528,119.0953 1180.4324,121.8019 1181.312,124.537 1182.1915,127.3004 1183.0711,130.0917 1183.9506,132.9104 1184.8302,135.7561 1185.7097,138.6284 1186.2961,140.5578 1186.8825,142.4988 1187.4689,144.4511 1188.0552,146.4147 1188.6416,148.3895 1189.228,150.3752 1189.8144,152.3719 1190.4007,154.3792 1190.9871,156.3972 1191.5735,158.4257 1192.1598,160.4645 1192.7462,162.5135 1193.3326,164.5726 1193.919,166.6417 1194.5053,168.7206 1195.0917,170.8092 1195.6781,172.9073 1196.2644,175.0148 1196.8508,177.1317 1197.4372,179.2576 1198.0236,181.3925 1198.6099,183.5364 1199.1963,185.6889 1199.7827,187.85 1200.369,190.0195 1200.9554,192.1974 1201.5418,194.3834 1202.1282,196.5774 1202.7145,198.7793 1203.3009,200.989 1203.8873,203.2062 1204.4736,205.4309 1205.06,207.6628 1205.6464,209.902 1206.2328,212.1481 1206.8191,214.4011 1207.4055,216.6608 1207.9919,218.9271 1208.5782,221.1998 1209.1646,223.4788 1209.751,225.7639 1210.3374,228.0551 1210.9237,230.352 1211.5101,232.6546 1212.0965,234.9628 1212.6829,237.2763 1213.2692,239.5951 1213.8556,241.919 1214.442,244.2478 1215.0283,246.5814 1215.6147,248.9196 1216.2011,251.2623 1216.7875,253.6093 1217.3738,255.9605 1217.9602,258.3157 1218.5466,260.6748 1219.1329,263.0376 1219.7193,265.404 1220.3057,267.7738 1220.8921,270.1468 1221.4784,272.523 1222.0648,274.9021 1222.6512,277.284 1223.2375,279.6685 1223.8239,282.0556 1224.4103,284.4449 1224.9967,286.8365 1225.583,289.23 1226.1694,291.6254 1226.7558,294.0226 1227.3421,296.4213 1227.9285,298.8214 1228.5149,301.2227 1229.1013,303.6252 1229.6876,306.0285 1230.274,308.4327 1230.8604,310.8374 1231.4467,313.2427 1232.0331,315.6482 1232.6195,318.0539 1233.2059,320.4596 1233.7922,322.8652 1234.3786,325.2704 1234.965,327.6752 1235.5514,330.0793 1236.1377,332.4827 1236.7241,334.8851 1237.3105,337.2864 1237.8968,339.6865 1238.4832,342.0852 1239.0696,344.4823 1239.656,346.8777 1240.2423,349.2713 1240.8287,351.6628 1241.4151,354.0521 1242.0014,356.4392 1242.5878,358.8237 1243.1742,361.2055 1243.7606,363.5846 1244.3469,365.9607 1244.9333,368.3338 1245.5197,370.7035 1246.106,373.0699 1246.6924,375.4327 1247.2788,377.7917 1247.8652,380.1469 1248.4515,382.4981 1249.0379,384.845 1249.6243,387.1877 1250.2106,389.5259 1250.797,391.8594 1251.3834,394.1882 1251.9698,396.512 1252.5561,398.8307 1253.1425,401.1442 1253.7289,403.4523 1254.0221,404.6043" style="fill:none;stroke:rgb(78,154,6);stroke-width:2;stroke-linejoin:bevel" />
  </g>
  <defs>
    <clipPath id="clipPath3">
      <rect x="0" y="0" width="1280" height="720" />
    </clipPath>
  </defs>
  <g clip-path="url(#clipPath3)">
    <rect x="59.551" y="13.0265" width="1206.1985" height="657.8675" style="fill:none;stroke:black;stroke-width:1" shape-rendering="crispEdges" />
  </g>
</svg>